<?xml version="1.0" encoding="utf-8"?>
<svg width="1000px" height="1000px" viewBox="0 0 1000 1000" version="1.1" xmlns:xlink="http://www.w3.org/1999/xlink" xmlns="http://www.w3.org/2000/svg">
  <defs>
    <path d="M1000 0L1000 0L1000 1000L0 1000L0 0L1000 0Z" id="path_1" />
    <path d="M761 0L761 0L761 756L0 756L0 0L761 0Z" id="path_2" />
    <path d="M500 0L500 0L500 500L0 500L0 0L500 0Z" id="path_3" />
    <path d="M70.7135 970.713L870.714 970.713C925.95 970.713 970.714 925.949 970.714 870.713L970.714 70.7132C970.714 43.0953 959.523 18.0955 941.427 0L0 941.427C18.0955 959.522 43.0955 970.713 70.7135 970.713L70.7135 970.713Z" id="path_4" />
    <clipPath id="clip_1">
      <use xlink:href="#path_1" clip-rule="evenodd" fill-rule="evenodd" />
    </clipPath>
    <clipPath id="clip_2">
      <use xlink:href="#path_2" clip-rule="evenodd" fill-rule="evenodd" />
    </clipPath>
    <clipPath id="clip_3">
      <use xlink:href="#path_3" clip-rule="evenodd" fill-rule="evenodd" />
    </clipPath>
    <clipPath id="clip_4">
      <use xlink:href="#path_4" clip-rule="evenodd" fill-rule="evenodd" />
    </clipPath>
  </defs>
  <g id="icon">
    <path d="M1000 0L1000 0L1000 1000L0 1000L0 0L1000 0Z" id="icon" fill="none" stroke="none" />
    <path d="M900 0C955.236 0 1000 44.764 1000 100L1000 900C1000 955.236 955.236 1000 900 1000L100 1000C44.764 1000 0 955.236 0 900L0 100C0 44.764 44.764 0 100 0L900 0Z" id="Rectangle" fill="#FFFFFF" stroke="none" clip-path="url(#clip_1)" />
    <path d="M99.7135 999.713L899.713 999.713C954.949 999.713 999.713 954.949 999.713 899.713L999.713 99.7132C999.713 72.0953 988.523 47.0955 970.427 29L29 970.427C47.0955 988.522 72.0955 999.713 99.7135 999.713L99.7135 999.713Z" id="Vector" fill="#FFFFFF" fill-rule="evenodd" stroke="none" clip-path="url(#clip_1)" />
    <g id="X32C" transform="translate(132 151)" clip-path="url(#clip_1)">
      <path d="M669.28 0C692.877 0 712 19.863 712 44.3728L712 574.627C712 599.137 692.877 619 669.28 619L42.72 619C19.1232 619 0 599.137 0 574.627L0 44.3728C0 19.863 19.1232 0 42.72 0L669.28 0L669.28 0Z" id="Rectangle" fill="#303030" stroke="none" />
      <path d="M644.36 245.529C647.506 245.529 650.056 248.178 650.056 251.446L650.056 323.921C650.056 327.189 647.506 329.838 644.36 329.838L593.808 329.838C590.662 329.838 588.112 327.189 588.112 323.921L588.112 251.446C588.112 248.178 590.662 245.529 593.808 245.529L644.36 245.529L644.36 245.529Z" id="Rectangle-15" fill="#B2B2B2" stroke="none" />
      <path d="M644.36 333.535C647.506 333.535 650.056 336.184 650.056 339.452L650.056 457.039C650.056 460.307 647.506 462.956 644.36 462.956L593.808 462.956C590.662 462.956 588.112 460.307 588.112 457.039L588.112 339.452C588.112 336.184 590.662 333.535 593.808 333.535L644.36 333.535L644.36 333.535Z" id="Rectangle-14" fill="#B2B2B2" stroke="none" />
      <path d="M644.36 466.654C647.506 466.654 650.056 469.302 650.056 472.57L650.056 549.483C650.056 552.751 647.506 555.399 644.36 555.399L593.808 555.399C590.662 555.399 588.112 552.751 588.112 549.483L588.112 472.57C588.112 469.302 590.662 466.654 593.808 466.654L644.36 466.654L644.36 466.654Z" id="Rectangle-13" fill="#B2B2B2" stroke="none" />
      <path d="M65.504 32.54L159.488 32.54C162.634 32.54 165.184 35.1884 165.184 38.4564L165.184 73.2152C165.184 76.4832 162.634 79.1314 159.488 79.1314L65.504 79.1314C62.3578 79.1314 59.808 76.4832 59.808 73.2152L59.808 38.4564C59.808 35.1884 62.3578 32.54 65.504 32.54ZM173.728 32.54L280.528 32.54C283.674 32.54 286.224 35.1884 286.224 38.4564L286.224 73.2152C286.224 76.4832 283.674 79.1314 280.528 79.1314L173.728 79.1314C170.582 79.1314 168.032 76.4832 168.032 73.2152L168.032 38.4564C168.032 35.1884 170.582 32.54 173.728 32.54ZM294.057 32.54L331.792 32.54C334.938 32.54 337.488 35.1884 337.488 38.4564L337.488 73.2152C337.488 76.4832 334.938 79.1314 331.792 79.1314L294.057 79.1314C290.91 79.1314 288.36 76.4832 288.36 73.2152L288.36 38.4564C288.36 35.1884 290.91 32.54 294.057 32.54ZM65.504 82.0896L159.488 82.0896C162.634 82.0896 165.184 84.7379 165.184 88.0059L165.184 152.347C165.184 155.615 162.634 158.263 159.488 158.263L65.504 158.263C62.3578 158.263 59.808 155.615 59.808 152.347L59.808 88.0059C59.808 84.7379 62.3578 82.0896 65.504 82.0896ZM173.728 82.0896L280.528 82.0896C283.674 82.0896 286.224 84.7379 286.224 88.0059L286.224 232.218C286.224 235.486 283.674 238.134 280.528 238.134L173.728 238.134C170.582 238.134 168.032 235.486 168.032 232.218L168.032 88.0059C168.032 84.7379 170.582 82.0896 173.728 82.0896ZM294.057 82.0896L331.792 82.0896C334.938 82.0896 337.488 84.7379 337.488 88.0059L337.488 232.218C337.488 235.486 334.938 238.134 331.792 238.134L294.057 238.134C290.91 238.134 288.36 235.486 288.36 232.218L288.36 88.0059C288.36 84.7379 290.91 82.0896 294.057 82.0896ZM65.504 161.221L105.376 161.221C108.522 161.221 111.072 163.87 111.072 167.138L111.072 231.478C111.072 234.746 108.522 237.394 105.376 237.394L65.504 237.394C62.3578 237.394 59.808 234.746 59.808 231.478L59.808 167.138C59.808 163.87 62.3578 161.221 65.504 161.221ZM119.616 161.221L159.488 161.221C162.634 161.221 165.184 163.87 165.184 167.138L165.184 231.478C165.184 234.746 162.634 237.394 159.488 237.394L119.616 237.394C116.47 237.394 113.92 234.746 113.92 231.478L113.92 167.138C113.92 163.87 116.47 161.221 119.616 161.221Z" id="Group-7" fill="#B2B2B2" fill-rule="evenodd" stroke="none" />
      <g id="Group-10" transform="translate(59.807995 245.52927)">
        <g id="Group-8">
          <g id="Fader-bank" transform="translate(23.495993 0)">
            <path d="M21.36 0C24.5063 0 27.056 2.6484 27.056 5.91637L27.056 303.953C27.056 307.221 24.5063 309.87 21.36 309.87L5.696 309.87C2.54976 309.87 0 307.221 0 303.953L0 5.91637C0 2.6484 2.54976 0 5.696 0L21.36 0L21.36 0Z" id="Rectangle-3#1" fill="#454545" stroke="none" />
            <path d="M48.416 0C51.5623 0 54.112 2.6484 54.112 5.91637L54.112 303.953C54.112 307.221 51.5623 309.87 48.416 309.87L32.752 309.87C29.6057 309.87 27.056 307.221 27.056 303.953L27.056 5.91637C27.056 2.6484 29.6057 0 32.752 0L48.416 0L48.416 0Z" id="Rectangle-4#1" fill="#B2B2B2" stroke="none" />
            <path d="M75.472 0C78.6183 0 81.168 2.6484 81.168 5.91637L81.168 303.953C81.168 307.221 78.6183 309.87 75.472 309.87L59.808 309.87C56.6617 309.87 54.112 307.221 54.112 303.953L54.112 5.91637C54.112 2.6484 56.6617 0 59.808 0L75.472 0L75.472 0Z" id="Rectangle-5#1" fill="#454545" stroke="none" />
            <path d="M102.528 0C105.674 0 108.224 2.6484 108.224 5.91637L108.224 303.953C108.224 307.221 105.674 309.87 102.528 309.87L86.864 309.87C83.7177 309.87 81.168 307.221 81.168 303.953L81.168 5.91637C81.168 2.6484 83.7177 0 86.864 0L102.528 0L102.528 0Z" id="Rectangle-6#1" fill="#B2B2B2" stroke="none" />
            <path d="M129.584 0C132.73 0 135.28 2.6484 135.28 5.91637L135.28 303.953C135.28 307.221 132.73 309.87 129.584 309.87L113.92 309.87C110.774 309.87 108.224 307.221 108.224 303.953L108.224 5.91637C108.224 2.6484 110.774 0 113.92 0L129.584 0L129.584 0Z" id="Rectangle-7#1" fill="#454545" stroke="none" />
            <path d="M156.64 9.47225e-05C159.786 9.47225e-05 162.336 2.6485 162.336 5.91646L162.336 303.953C162.336 307.221 159.786 309.87 156.64 309.87L140.976 309.87C137.83 309.87 135.28 307.221 135.28 303.953L135.28 5.91646C135.28 2.6485 137.83 9.47225e-05 140.976 9.47225e-05L156.64 9.47225e-05L156.64 9.47225e-05Z" id="Rectangle-8#1" fill="#B2B2B2" stroke="none" />
            <path d="M183.696 0C186.842 0 189.392 2.6484 189.392 5.91637L189.392 303.953C189.392 307.221 186.842 309.87 183.696 309.87L168.032 309.87C164.886 309.87 162.336 307.221 162.336 303.953L162.336 5.91637C162.336 2.6484 164.886 0 168.032 0L183.696 0L183.696 0Z" id="Rectangle-9" fill="#454545" stroke="none" />
            <path d="M210.752 0C213.898 0 216.448 2.6484 216.448 5.91637L216.448 303.953C216.448 307.221 213.898 309.87 210.752 309.87L195.088 309.87C191.942 309.87 189.392 307.221 189.392 303.953L189.392 5.91637C189.392 2.6484 191.942 0 195.088 0L210.752 0L210.752 0Z" id="Rectangle-10" fill="#B2B2B2" stroke="none" />
          </g>
          <path d="M16.376 9.47225e-05C19.5223 9.47225e-05 22.072 2.6485 22.072 5.91646L22.072 303.953C22.072 307.221 19.5223 309.87 16.376 309.87L5.696 309.87C2.54976 309.87 0 307.221 0 303.953L0 5.91646C0 2.6485 2.54976 9.47225e-05 5.696 9.47225e-05L16.376 9.47225e-05L16.376 9.47225e-05Z" id="Rectangle-11#1" fill="#B2B2B2" stroke="none" />
        </g>
        <g id="Group-9" transform="translate(244.92801 0)">
          <g id="Fader-bank#1" transform="translate(24.207996 0)">
            <path d="M21.36 0C24.5063 0 27.056 2.6484 27.056 5.91637L27.056 303.953C27.056 307.221 24.5063 309.87 21.36 309.87L5.696 309.87C2.54976 309.87 0 307.221 0 303.953L0 5.91637C0 2.6484 2.54976 0 5.696 0L21.36 0L21.36 0Z" id="Rectangle-3#2" fill="#454545" stroke="none" />
            <path d="M48.416 0C51.5622 0 54.112 2.6484 54.112 5.91637L54.112 303.953C54.112 307.221 51.5622 309.87 48.416 309.87L32.752 309.87C29.6057 309.87 27.056 307.221 27.056 303.953L27.056 5.91637C27.056 2.6484 29.6057 0 32.752 0L48.416 0L48.416 0Z" id="Rectangle-4#2" fill="#B2B2B2" stroke="none" />
            <path d="M75.472 0C78.6183 0 81.168 2.6484 81.168 5.91637L81.168 303.953C81.168 307.221 78.6183 309.87 75.472 309.87L59.808 309.87C56.6617 309.87 54.112 307.221 54.112 303.953L54.112 5.91637C54.112 2.6484 56.6617 0 59.808 0L75.472 0L75.472 0Z" id="Rectangle-5#2" fill="#454545" stroke="none" />
            <path d="M102.528 0C105.674 0 108.224 2.6484 108.224 5.91637L108.224 303.953C108.224 307.221 105.674 309.87 102.528 309.87L86.864 309.87C83.7177 309.87 81.168 307.221 81.168 303.953L81.168 5.91637C81.168 2.6484 83.7177 0 86.864 0L102.528 0L102.528 0Z" id="Rectangle-6#2" fill="#B2B2B2" stroke="none" />
            <path d="M129.584 0C132.73 0 135.28 2.6484 135.28 5.91637L135.28 303.953C135.28 307.221 132.73 309.87 129.584 309.87L113.92 309.87C110.774 309.87 108.224 307.221 108.224 303.953L108.224 5.91637C108.224 2.6484 110.774 0 113.92 0L129.584 0L129.584 0Z" id="Rectangle-7#2" fill="#454545" stroke="none" />
            <path d="M156.64 9.47225e-05C159.786 9.47225e-05 162.336 2.6485 162.336 5.91646L162.336 303.953C162.336 307.221 159.786 309.87 156.64 309.87L140.976 309.87C137.83 309.87 135.28 307.221 135.28 303.953L135.28 5.91646C135.28 2.6485 137.83 9.47225e-05 140.976 9.47225e-05L156.64 9.47225e-05L156.64 9.47225e-05Z" id="Rectangle-8#2" fill="#B2B2B2" stroke="none" />
            <path d="M183.696 0C186.842 0 189.392 2.6484 189.392 5.91637L189.392 303.953C189.392 307.221 186.842 309.87 183.696 309.87L168.032 309.87C164.886 309.87 162.336 307.221 162.336 303.953L162.336 5.91637C162.336 2.6484 164.886 0 168.032 0L183.696 0L183.696 0Z" id="Rectangle-9#1" fill="#454545" stroke="none" />
            <path d="M210.752 0C213.898 0 216.448 2.6484 216.448 5.91637L216.448 303.953C216.448 307.221 213.898 309.87 210.752 309.87L195.088 309.87C191.942 309.87 189.392 307.221 189.392 303.953L189.392 5.91637C189.392 2.6484 191.942 0 195.088 0L210.752 0L210.752 0Z" id="Rectangle-10#1" fill="#B2B2B2" stroke="none" />
          </g>
          <path d="M17.088 9.47225e-05C20.2343 9.47225e-05 22.784 2.6485 22.784 5.91646L22.784 31.061C22.784 34.329 20.2343 36.9774 17.088 36.9774L5.696 36.9774C2.54976 36.9774 0 34.329 0 31.061L0 5.91646C0 2.6485 2.54976 9.47225e-05 5.696 9.47225e-05L17.088 9.47225e-05L17.088 9.47225e-05Z" id="Rectangle-9#2" fill="#B2B2B2" stroke="none" />
          <path d="M17.088 64.3406C20.2343 64.3406 22.784 66.989 22.784 70.2569L22.784 303.953C22.784 307.221 20.2343 309.87 17.088 309.87L5.696 309.87C2.54976 309.87 0 307.221 0 303.953L0 70.2569C0 66.989 2.54976 64.3406 5.696 64.3406L17.088 64.3406L17.088 64.3406Z" id="Rectangle-10#2" fill="#B2B2B2" stroke="none" />
        </g>
        <path d="M519.048 9.47225e-05C522.194 9.47225e-05 524.744 2.6485 524.744 5.91646L524.744 303.953C524.744 307.221 522.194 309.87 519.048 309.87L492.704 309.87C489.558 309.87 487.008 307.221 487.008 303.953L487.008 5.91646C487.008 2.6485 489.558 9.47225e-05 492.704 9.47225e-05L519.048 9.47225e-05L519.048 9.47225e-05Z" id="Rectangle-12#1" fill="#B2B2B2" stroke="none" />
      </g>
      <g id="Group-6" transform="translate(347.45596 24.40502)">
        <path d="M306.16 0C315.992 0 323.96 8.27626 323.96 18.4886L323.96 193.021C323.96 203.234 315.992 211.51 306.16 211.51L17.8 211.51C7.96799 211.51 0 203.234 0 193.021L0 18.4886C0 8.27626 7.96799 0 17.8 0L306.16 0L306.16 0Z" id="Rectangle-16" fill="#000000" stroke="none" />
        <path d="M256.32 23.6655C259.466 23.6655 262.016 26.3139 262.016 29.5818L262.016 138.295C262.016 141.563 259.466 144.211 256.32 144.211L28.4801 144.211C25.3338 144.211 22.7841 141.563 22.7841 138.295L22.7841 29.5818C22.7841 26.3139 25.3338 23.6655 28.4801 23.6655L256.32 23.6655L256.32 23.6655Z" id="Rectangle-2" fill="#B2B2B2" stroke="none" />
        <path d="M272.697 23.6654L291.921 23.6654C295.067 23.6654 297.616 26.3139 297.616 29.5818L297.616 30.8996C297.616 34.1675 295.067 36.8159 291.921 36.8159L272.697 36.8159C269.55 36.8159 267 34.1675 267 30.8996L267 29.5818C267 26.3139 269.55 23.6654 272.697 23.6654ZM272.696 39.0077L291.92 39.0077C295.067 39.0077 297.616 41.6561 297.616 44.9241L297.616 46.2418C297.616 49.5099 295.067 52.1582 291.92 52.1582L272.696 52.1582C269.55 52.1582 267 49.5099 267 46.2418L267 44.9241C267 41.6561 269.55 39.0077 272.696 39.0077ZM272.696 54.35L291.92 54.35C295.067 54.35 297.616 56.9983 297.616 60.2663L297.616 61.584C297.616 64.8521 295.067 67.5004 291.92 67.5004L272.696 67.5004C269.55 67.5004 267 64.8521 267 61.584L267 60.2663C267 56.9983 269.55 54.35 272.696 54.35ZM272.696 69.6921L291.92 69.6921C295.067 69.6921 297.616 72.3405 297.616 75.6084L297.616 76.9263C297.616 80.1941 295.067 82.8426 291.92 82.8426L272.696 82.8426C269.55 82.8426 267 80.1941 267 76.9263L267 75.6084C267 72.3405 269.55 69.6921 272.696 69.6921ZM272.696 85.0343L291.92 85.0343C295.067 85.0343 297.616 87.6827 297.616 90.9507L297.616 92.2684C297.616 95.5365 295.067 98.1851 291.92 98.1851L272.696 98.1851C269.55 98.1851 267 95.5365 267 92.2684L267 90.9507C267 87.6827 269.55 85.0343 272.696 85.0343ZM272.696 100.376L291.92 100.376C295.067 100.376 297.616 103.025 297.616 106.293L297.616 107.61C297.616 110.878 295.067 113.527 291.92 113.527L272.696 113.527C269.55 113.527 267 110.878 267 107.61L267 106.293C267 103.025 269.55 100.376 272.696 100.376ZM272.696 115.719L291.92 115.719C295.067 115.719 297.616 118.368 297.616 121.636L297.616 122.953C297.616 126.22 295.067 128.87 291.92 128.87L272.696 128.87C269.55 128.87 267 126.22 267 122.953L267 121.636C267 118.368 269.55 115.719 272.696 115.719ZM272.696 131.061L291.92 131.061C295.066 131.061 297.616 133.709 297.616 136.977L297.616 138.295C297.616 141.563 295.066 144.211 291.92 144.211L272.696 144.211C269.55 144.211 267 141.563 267 138.295L267 136.977C267 133.709 269.55 131.061 272.696 131.061Z" id="Group-4" fill="#454545" fill-rule="evenodd" stroke="none" />
        <path d="M240.656 148.649L242.079 148.649C245.226 148.649 247.776 151.297 247.776 154.565L247.776 161.221C247.776 164.489 245.226 167.137 242.079 167.137L240.656 167.137C237.51 167.137 234.96 164.489 234.96 161.221L234.96 154.565C234.96 151.297 237.51 148.649 240.656 148.649ZM266.289 161.221L272.696 161.221C275.842 161.221 278.392 163.869 278.392 167.137L278.392 168.617C278.392 171.884 275.842 174.533 272.696 174.533L266.289 174.533C263.142 174.533 260.592 171.884 260.592 168.617L260.592 167.137C260.592 163.869 263.142 161.221 266.289 161.221ZM286.225 161.221L292.632 161.221C295.778 161.221 298.328 163.869 298.328 167.137L298.328 168.617C298.328 171.884 295.778 174.533 292.632 174.533L286.225 174.533C283.078 174.533 280.528 171.884 280.528 168.617L280.528 167.137C280.528 163.869 283.078 161.221 286.225 161.221ZM240.656 169.356L242.079 169.356C245.226 169.356 247.776 172.005 247.776 175.272L247.776 181.928C247.776 185.196 245.226 187.845 242.079 187.845L240.656 187.845C237.51 187.845 234.96 185.196 234.96 181.928L234.96 175.272C234.96 172.005 237.51 169.356 240.656 169.356Z" id="Group-5" fill="#454545" fill-rule="evenodd" stroke="none" />
        <path d="M179.424 168.247C179.424 162.733 183.728 158.263 189.036 158.263C194.345 158.263 198.648 162.733 198.648 168.247C198.648 173.76 194.345 178.231 189.036 178.231C183.728 178.231 179.424 173.76 179.424 168.247L179.424 168.247ZM150.232 168.247C150.232 162.733 154.536 158.263 159.844 158.263C165.153 158.263 169.456 162.733 169.456 168.247C169.456 173.76 165.153 178.231 159.844 178.231C154.536 178.231 150.232 173.76 150.232 168.247L150.232 168.247ZM121.04 168.247C121.04 162.733 125.344 158.263 130.652 158.263C135.961 158.263 140.264 162.733 140.264 168.247C140.264 173.76 135.961 178.231 130.652 178.231C125.344 178.231 121.04 173.76 121.04 168.247L121.04 168.247ZM91.8481 167.507C91.8481 161.993 96.1515 157.523 101.46 157.523C106.769 157.523 111.072 161.993 111.072 167.507C111.072 173.021 106.769 177.491 101.46 177.491C96.1515 177.491 91.8481 173.021 91.8481 167.507L91.8481 167.507ZM62.6561 167.507C62.6561 161.993 66.9596 157.523 72.2681 157.523C77.5766 157.523 81.8801 161.993 81.8801 167.507C81.8801 173.021 77.5766 177.491 72.2681 177.491C66.9596 177.491 62.6561 173.021 62.6561 167.507L62.6561 167.507ZM33.4641 167.507C33.4641 161.993 37.7676 157.523 43.0761 157.523C48.3846 157.523 52.6881 161.993 52.6881 167.507C52.6881 173.021 48.3846 177.491 43.0761 177.491C37.7676 177.491 33.4641 173.021 33.4641 167.507L33.4641 167.507Z" id="Group-3" fill="#454545" fill-rule="evenodd" stroke="none" />
      </g>
    </g>
    <g id="Resized_svg" clip-path="url(#clip_1)">
      <path d="M761 0L761 0L761 756L0 756L0 0L761 0Z" id="Resized_svg" fill="none" stroke="none" transform="matrix(0.99999994 0 0 0.99999994 99 99)" />
      <g id="Resized_svg(1)" clip-path="url(#clip_2)" transform="matrix(0.99999994 0 0 0.99999994 99 99)">
        <path d="M500 0L500 0L500 500L0 500L0 0L500 0Z" id="Resized_svg(1)" fill="none" stroke="none" transform="matrix(0.99999994 0 0 0.99999994 261 256)" />
      </g>
    </g>
    <g id="icon-Mask" transform="translate(29.286499 29.286865)" clip-path="url(#clip_1)">
      <path d="M70.7135 970.713L870.714 970.713C925.95 970.713 970.714 925.949 970.714 870.713L970.714 70.7132C970.714 43.0953 959.523 18.0955 941.427 0L0 941.427C18.0955 959.522 43.0955 970.713 70.7135 970.713L70.7135 970.713Z" id="Mask" fill="#FFFFFF" fill-rule="evenodd" stroke="none" />
      <g clip-path="url(#clip_4)">
        <g id="icon" transform="matrix(0.9999999 0 0 0.9999999 399 380)">
          <path d="M397.727 153.409C397.727 143.995 405.359 136.364 414.773 136.364C424.187 136.364 431.818 143.995 431.818 153.409C431.818 162.823 424.187 170.455 414.773 170.455C405.359 170.455 397.727 162.823 397.727 153.409Z" id="Circle" fill="#000000" fill-rule="evenodd" stroke="#000000" stroke-width="23" />
          <path d="M397.727 241.477C397.727 232.063 405.359 224.432 414.773 224.432C424.187 224.432 431.818 232.063 431.818 241.477C431.818 250.891 424.187 258.523 414.773 258.523C405.359 258.523 397.727 250.891 397.727 241.477Z" id="Circle" fill="#000000" fill-rule="evenodd" stroke="#000000" stroke-width="23" />
          <path d="M397.727 329.545C397.727 320.132 405.359 312.5 414.773 312.5C424.187 312.5 431.818 320.132 431.818 329.545C431.818 338.959 424.187 346.591 414.773 346.591C405.359 346.591 397.727 338.959 397.727 329.545Z" id="Circle" fill="#000000" fill-rule="evenodd" stroke="#000000" stroke-width="23" />
          <path d="M397.727 417.614C397.727 408.2 405.359 400.568 414.773 400.568C424.187 400.568 431.818 408.2 431.818 417.614C431.818 427.028 424.187 434.659 414.773 434.659C405.359 434.659 397.727 427.028 397.727 417.614Z" id="Circle" fill="#000000" fill-rule="evenodd" stroke="#000000" stroke-width="23" />
          <path d="M375 0L477.273 39.7727L375 79.5455L397.727 39.7727" id="Shape" fill="#000000" stroke="none" />
          <path d="M90.9091 39.7727L90.9091 420.455" id="Line" fill="none" fill-rule="evenodd" stroke="#000000" stroke-width="23" />
          <path d="M204.545 39.7727L204.545 244.318" id="Line" fill="none" fill-rule="evenodd" stroke="#000000" stroke-width="23" />
          <path d="M318.182 39.7727L318.182 147.727" id="Line" fill="none" fill-rule="evenodd" stroke="#000000" stroke-width="23" />
          <path d="M62.5 39.7727L414.773 39.7727" id="Line" fill="none" fill-rule="evenodd" stroke="#000000" stroke-width="23" />
          <path d="M0 153.409L414.773 153.409" id="Line" fill="none" fill-rule="evenodd" stroke="#000000" stroke-width="23" />
          <path d="M0 241.477L414.773 241.477" id="Line" fill="none" fill-rule="evenodd" stroke="#000000" stroke-width="23" />
          <path d="M0 329.545L414.773 329.545" id="Line" fill="none" fill-rule="evenodd" stroke="#000000" stroke-width="23" />
          <path d="M0 417.614L414.773 417.614" id="Line" fill="none" fill-rule="evenodd" stroke="#000000" stroke-width="23" />
        </g>
      </g>
    </g>
  </g>
</svg>