<?xml version="1.0" encoding="utf-8"?>
<svg width="1000px" height="836.99994px" viewBox="0 0 1000 836.99994" version="1.1" xmlns:xlink="http://www.w3.org/1999/xlink" xmlns="http://www.w3.org/2000/svg">
  <g id="X32C">
    <path d="M940 0C973.142 0 1000 26.8584 1000 60L1000 777C1000 810.142 973.142 837 940 837L60 837C26.8584 837 0 810.142 0 777L0 60C0 26.8584 26.8584 0 60 0L940 0Z" id="Rectangle" fill="#303030" stroke="none" />
    <path d="M905 332C909.419 332 913 335.581 913 340L913 438C913 442.419 909.419 446 905 446L834 446C829.581 446 826 442.419 826 438L826 340C826 335.581 829.581 332 834 332L905 332Z" id="Rectangle-15" fill="#B2B2B2" stroke="none" />
    <path d="M905 451C909.419 451 913 454.581 913 459L913 618C913 622.419 909.419 626 905 626L834 626C829.581 626 826 622.419 826 618L826 459C826 454.581 829.581 451 834 451L905 451Z" id="Rectangle-14" fill="#B2B2B2" stroke="none" />
    <path d="M905 631C909.419 631 913 634.581 913 639L913 743C913 747.419 909.419 751 905 751L834 751C829.581 751 826 747.419 826 743L826 639C826 634.581 829.581 631 834 631L905 631Z" id="Rectangle-13" fill="#B2B2B2" stroke="none" />
    <g id="Group-7" transform="translate(84 44)">
      <path d="M382 67C386.419 67 390 70.5811 390 75L390 270C390 274.419 386.419 278 382 278L329 278C324.581 278 321 274.419 321 270L321 75C321 70.5811 324.581 67 329 67L382 67Z" id="Rectangle-11" fill="#B2B2B2" stroke="none" />
      <path d="M310 67C314.419 67 318 70.5811 318 75L318 270C318 274.419 314.419 278 310 278L160 278C155.581 278 152 274.419 152 270L152 75C152 70.5811 155.581 67 160 67L310 67Z" id="Rectangle-12" fill="#B2B2B2" stroke="none" />
      <path d="M140 67C144.419 67 148 70.5811 148 75L148 162C148 166.419 144.419 170 140 170L8 170C3.58112 170 0 166.419 0 162L0 75C0 70.5811 3.58112 67 8 67L140 67Z" id="Rectangle-3" fill="#B2B2B2" stroke="none" />
      <path d="M140 174C144.419 174 148 177.581 148 182L148 269C148 273.419 144.419 277 140 277L84 277C79.5811 277 76 273.419 76 269L76 182C76 177.581 79.5811 174 84 174L140 174Z" id="Rectangle-4" fill="#B2B2B2" stroke="none" />
      <path d="M64 174C68.4189 174 72 177.581 72 182L72 269C72 273.419 68.4189 277 64 277L8 277C3.58112 277 0 273.419 0 269L0 182C0 177.581 3.58112 174 8 174L64 174Z" id="Rectangle-5" fill="#B2B2B2" stroke="none" />
      <path d="M140 0C144.419 0 148 3.58112 148 8L148 55C148 59.4189 144.419 63 140 63L8 63C3.58112 63 0 59.4189 0 55L0 8C0 3.58112 3.58112 0 8 0L140 0Z" id="Rectangle-6" fill="#B2B2B2" stroke="none" />
      <path d="M310 0C314.419 0 318 3.58112 318 8L318 55C318 59.4189 314.419 63 310 63L160 63C155.581 63 152 59.4189 152 55L152 8C152 3.58112 155.581 0 160 0L310 0Z" id="Rectangle-7" fill="#B2B2B2" stroke="none" />
      <path d="M382 0C386.419 0 390 3.58112 390 8L390 55C390 59.4189 386.419 63 382 63L329 63C324.581 63 321 59.4189 321 55L321 8C321 3.58112 324.581 0 329 0L382 0Z" id="Rectangle-8" fill="#B2B2B2" stroke="none" />
    </g>
    <g id="Group-10" transform="translate(84 332)">
      <g id="Group-8">
        <g id="Fader-bank" transform="translate(33 0)">
          <path d="M30 0C34.4189 0 38 3.58112 38 8L38 411C38 415.419 34.4189 419 30 419L8 419C3.58112 419 0 415.419 0 411L0 8C0 3.58112 3.58112 0 8 0L30 0Z" id="Rectangle-3" fill="#454545" stroke="none" />
          <path d="M68 0C72.4189 0 76 3.58112 76 8L76 411C76 415.419 72.4189 419 68 419L46 419C41.5811 419 38 415.419 38 411L38 8C38 3.58112 41.5811 0 46 0L68 0Z" id="Rectangle-4" fill="#B2B2B2" stroke="none" />
          <path d="M106 0C110.419 0 114 3.58112 114 8L114 411C114 415.419 110.419 419 106 419L84 419C79.5811 419 76 415.419 76 411L76 8C76 3.58112 79.5811 0 84 0L106 0Z" id="Rectangle-5" fill="#454545" stroke="none" />
          <path d="M144 0C148.419 0 152 3.58112 152 8L152 411C152 415.419 148.419 419 144 419L122 419C117.581 419 114 415.419 114 411L114 8C114 3.58112 117.581 0 122 0L144 0Z" id="Rectangle-6" fill="#B2B2B2" stroke="none" />
          <path d="M182 0C186.419 0 190 3.58112 190 8L190 411C190 415.419 186.419 419 182 419L160 419C155.581 419 152 415.419 152 411L152 8C152 3.58112 155.581 0 160 0L182 0Z" id="Rectangle-7" fill="#454545" stroke="none" />
          <path d="M220 0.00012207C224.419 0.00012207 228 3.58124 228 8.00012L228 411C228 415.419 224.419 419 220 419L198 419C193.581 419 190 415.419 190 411L190 8.00012C190 3.58124 193.581 0.00012207 198 0.00012207L220 0.00012207Z" id="Rectangle-8" fill="#B2B2B2" stroke="none" />
          <path d="M258 0C262.419 0 266 3.58112 266 8L266 411C266 415.419 262.419 419 258 419L236 419C231.581 419 228 415.419 228 411L228 8C228 3.58112 231.581 0 236 0L258 0Z" id="Rectangle-9" fill="#454545" stroke="none" />
          <path d="M296 0C300.419 0 304 3.58112 304 8L304 411C304 415.419 300.419 419 296 419L274 419C269.581 419 266 415.419 266 411L266 8C266 3.58112 269.581 0 274 0L296 0Z" id="Rectangle-10" fill="#B2B2B2" stroke="none" />
        </g>
        <path d="M23 0.00012207C27.4189 0.00012207 31 3.58124 31 8.00012L31 411C31 415.419 27.4189 419 23 419L8 419C3.58112 419 0 415.419 0 411L0 8.00012C0 3.58124 3.58112 0.00012207 8 0.00012207L23 0.00012207Z" id="Rectangle-11" fill="#B2B2B2" stroke="none" />
      </g>
      <g id="Group-9" transform="translate(344 0)">
        <g id="Fader-bank" transform="translate(34 0)">
          <path d="M30 0C34.4189 0 38 3.58112 38 8L38 411C38 415.419 34.4189 419 30 419L8 419C3.58112 419 0 415.419 0 411L0 8C0 3.58112 3.58112 0 8 0L30 0Z" id="Rectangle-3" fill="#454545" stroke="none" />
          <path d="M68 0C72.4189 0 76 3.58112 76 8L76 411C76 415.419 72.4189 419 68 419L46 419C41.5811 419 38 415.419 38 411L38 8C38 3.58112 41.5811 0 46 0L68 0Z" id="Rectangle-4" fill="#B2B2B2" stroke="none" />
          <path d="M106 0C110.419 0 114 3.58112 114 8L114 411C114 415.419 110.419 419 106 419L84 419C79.5811 419 76 415.419 76 411L76 8C76 3.58112 79.5811 0 84 0L106 0Z" id="Rectangle-5" fill="#454545" stroke="none" />
          <path d="M144 0C148.419 0 152 3.58112 152 8L152 411C152 415.419 148.419 419 144 419L122 419C117.581 419 114 415.419 114 411L114 8C114 3.58112 117.581 0 122 0L144 0Z" id="Rectangle-6" fill="#B2B2B2" stroke="none" />
          <path d="M182 0C186.419 0 190 3.58112 190 8L190 411C190 415.419 186.419 419 182 419L160 419C155.581 419 152 415.419 152 411L152 8C152 3.58112 155.581 0 160 0L182 0Z" id="Rectangle-7" fill="#454545" stroke="none" />
          <path d="M220 0.00012207C224.419 0.00012207 228 3.58124 228 8.00012L228 411C228 415.419 224.419 419 220 419L198 419C193.581 419 190 415.419 190 411L190 8.00012C190 3.58124 193.581 0.00012207 198 0.00012207L220 0.00012207Z" id="Rectangle-8" fill="#B2B2B2" stroke="none" />
          <path d="M258 0C262.419 0 266 3.58112 266 8L266 411C266 415.419 262.419 419 258 419L236 419C231.581 419 228 415.419 228 411L228 8C228 3.58112 231.581 0 236 0L258 0Z" id="Rectangle-9" fill="#454545" stroke="none" />
          <path d="M296 0C300.419 0 304 3.58112 304 8L304 411C304 415.419 300.419 419 296 419L274 419C269.581 419 266 415.419 266 411L266 8C266 3.58112 269.581 0 274 0L296 0Z" id="Rectangle-10" fill="#B2B2B2" stroke="none" />
        </g>
        <path d="M24 0.00012207C28.4189 0.00012207 32 3.58124 32 8.00012L32 42.0001C32 46.419 28.4189 50.0001 24 50.0001L8 50.0001C3.58112 50.0001 0 46.419 0 42.0001L0 8.00012C0 3.58124 3.58112 0.00012207 8 0.00012207L24 0.00012207Z" id="Rectangle-9" fill="#B2B2B2" stroke="none" />
        <path d="M24 87.0001C28.4189 87.0001 32 90.5812 32 95.0001L32 411C32 415.419 28.4189 419 24 419L8 419C3.58112 419 0 415.419 0 411L0 95.0001C0 90.5812 3.58112 87.0001 8 87.0001L24 87.0001Z" id="Rectangle-10" fill="#B2B2B2" stroke="none" />
      </g>
      <path d="M729 0.00012207C733.419 0.00012207 737 3.58124 737 8.00012L737 411C737 415.419 733.419 419 729 419L692 419C687.581 419 684 415.419 684 411L684 8.00012C684 3.58124 687.581 0.00012207 692 0.00012207L729 0.00012207Z" id="Rectangle-12" fill="#B2B2B2" stroke="none" />
    </g>
    <g id="Group-6" transform="translate(488 33)">
      <path d="M430 0C443.809 0 455 11.191 455 25L455 261C455 274.809 443.809 286 430 286L25 286C11.191 286 0 274.809 0 261L0 25C0 11.191 11.191 0 25 0L430 0Z" id="Rectangle-16" fill="#000000" stroke="none" />
      <path d="M360 32C364.419 32 368 35.5811 368 40L368 187C368 191.419 364.419 195 360 195L40.0001 195C35.5812 195 32.0001 191.419 32.0001 187L32.0001 40C32.0001 35.5811 35.5812 32 40.0001 32L360 32Z" id="Rectangle-2" fill="#B2B2B2" stroke="none" />
      <g id="Group-4" transform="translate(375 32)">
        <path d="M35.0002 0C39.4191 0 43.0002 3.58112 43.0002 8L43.0002 9.78182C43.0002 14.2007 39.4191 17.7818 35.0002 17.7818L8.00024 17.7818C3.58137 17.7818 0.000244141 14.2007 0.000244141 9.78182L0.000244141 8C0.000244141 3.58112 3.58137 0 8.00024 0L35.0002 0Z" id="Rectangle-16" fill="#454545" stroke="none" />
        <path d="M35.0001 20.7455C39.419 20.7455 43.0001 24.3266 43.0001 28.7455L43.0001 30.5273C43.0001 34.9462 39.419 38.5273 35.0001 38.5273L8.00012 38.5273C3.58124 38.5273 0.00012207 34.9462 0.00012207 30.5273L0.00012207 28.7455C0.00012207 24.3266 3.58124 20.7455 8.00012 20.7455L35.0001 20.7455Z" id="Rectangle-17" fill="#454545" stroke="none" />
        <path d="M35.0001 41.491C39.419 41.491 43.0001 45.0721 43.0001 49.491L43.0001 51.2728C43.0001 55.6917 39.419 59.2728 35.0001 59.2728L8.00012 59.2728C3.58124 59.2728 0.00012207 55.6917 0.00012207 51.2728L0.00012207 49.491C0.00012207 45.0721 3.58124 41.491 8.00012 41.491L35.0001 41.491Z" id="Rectangle-18" fill="#454545" stroke="none" />
        <path d="M35.0001 62.2363C39.419 62.2363 43.0001 65.8175 43.0001 70.2363L43.0001 72.0182C43.0001 76.437 39.419 80.0182 35.0001 80.0182L8.00012 80.0182C3.58124 80.0182 0.00012207 76.437 0.00012207 72.0182L0.00012207 70.2363C0.00012207 65.8175 3.58124 62.2363 8.00012 62.2363L35.0001 62.2363Z" id="Rectangle-19" fill="#454545" stroke="none" />
        <path d="M35.0001 82.9818C39.419 82.9818 43.0001 86.5629 43.0001 90.9818L43.0001 92.7636C43.0001 97.1825 39.419 100.764 35.0001 100.764L8.00012 100.764C3.58124 100.764 0.00012207 97.1825 0.00012207 92.7636L0.00012207 90.9818C0.00012207 86.5629 3.58124 82.9818 8.00012 82.9818L35.0001 82.9818Z" id="Rectangle-20" fill="#454545" stroke="none" />
        <path d="M35.0001 103.727C39.419 103.727 43.0001 107.308 43.0001 111.727L43.0001 113.509C43.0001 117.928 39.419 121.509 35.0001 121.509L8.00012 121.509C3.58124 121.509 0.00012207 117.928 0.00012207 113.509L0.00012207 111.727C0.00012207 107.308 3.58124 103.727 8.00012 103.727L35.0001 103.727Z" id="Rectangle-21" fill="#454545" stroke="none" />
        <path d="M35.0001 124.473C39.419 124.473 43.0001 128.054 43.0001 132.473L43.0001 134.255C43.0001 138.673 39.419 142.255 35.0001 142.255L8.00012 142.255C3.58124 142.255 0.00012207 138.673 0.00012207 134.255L0.00012207 132.473C0.00012207 128.054 3.58124 124.473 8.00012 124.473L35.0001 124.473Z" id="Rectangle-22" fill="#454545" stroke="none" />
        <path d="M35 145.218C39.4189 145.218 43 148.799 43 153.218L43 155C43 159.419 39.4189 163 35 163L8 163C3.58112 163 0 159.419 0 155L0 153.218C0 148.799 3.58112 145.218 8 145.218L35 145.218Z" id="Rectangle-23" fill="#454545" stroke="none" />
      </g>
      <g id="Group-5" transform="translate(330.00012 201.00012)">
        <path d="M81 16.9999C85.4189 16.9999 89 20.581 89 24.9999L89 26.9999C89 31.4188 85.4189 34.9999 81 34.9999L72 34.9999C67.5811 34.9999 64 31.4188 64 26.9999L64 24.9999C64 20.581 67.5811 16.9999 72 16.9999L81 16.9999Z" id="Rectangle-24" fill="#454545" stroke="none" />
        <path d="M53 16.9999C57.4189 16.9999 61 20.581 61 24.9999L61 26.9999C61 31.4188 57.4189 34.9999 53 34.9999L44 34.9999C39.5811 34.9999 36 31.4188 36 26.9999L36 24.9999C36 20.581 39.5811 16.9999 44 16.9999L53 16.9999Z" id="Rectangle-25" fill="#454545" stroke="none" />
        <path d="M10 0C14.4189 0 18 3.58112 18 8L18 17C18 21.4189 14.4189 25 10 25L8 25C3.58112 25 0 21.4189 0 17L0 8C0 3.58112 3.58112 0 8 0L10 0Z" id="Rectangle-26" fill="#454545" stroke="none" />
        <path d="M10 27.9999C14.4189 27.9999 18 31.581 18 35.9999L18 44.9999C18 49.4188 14.4189 52.9999 10 52.9999L8 52.9999C3.58112 52.9999 0 49.4188 0 44.9999L0 35.9999C0 31.581 3.58112 27.9999 8 27.9999L10 27.9999Z" id="Rectangle-27" fill="#454545" stroke="none" />
      </g>
      <g id="Group-3" transform="translate(47.000122 213)">
        <path d="M205 14.5C205 7.04416 211.044 1 218.5 1C225.956 1 232 7.04416 232 14.5C232 21.9558 225.956 28 218.5 28C211.044 28 205 21.9558 205 14.5Z" id="Oval" fill="#454545" fill-rule="evenodd" stroke="none" />
        <path d="M164 14.5C164 7.04416 170.044 1 177.5 1C184.956 1 191 7.04416 191 14.5C191 21.9558 184.956 28 177.5 28C170.044 28 164 21.9558 164 14.5Z" id="Oval-2" fill="#454545" fill-rule="evenodd" stroke="none" />
        <path d="M123 14.5C123 7.04416 129.044 1 136.5 1C143.956 1 150 7.04416 150 14.5C150 21.9558 143.956 28 136.5 28C129.044 28 123 21.9558 123 14.5Z" id="Oval-3" fill="#454545" fill-rule="evenodd" stroke="none" />
        <path d="M82 13.5C82 6.04416 88.0442 0 95.5 0C102.956 0 109 6.04416 109 13.5C109 20.9558 102.956 27 95.5 27C88.0442 27 82 20.9558 82 13.5Z" id="Oval-4" fill="#454545" fill-rule="evenodd" stroke="none" />
        <path d="M41 13.5C41 6.04416 47.0442 0 54.5 0C61.9558 0 68 6.04416 68 13.5C68 20.9558 61.9558 27 54.5 27C47.0442 27 41 20.9558 41 13.5Z" id="Oval-5" fill="#454545" fill-rule="evenodd" stroke="none" />
        <path d="M0 13.5C0 6.04416 6.04416 0 13.5 0C20.9558 0 27 6.04416 27 13.5C27 20.9558 20.9558 27 13.5 27C6.04416 27 0 20.9558 0 13.5Z" id="Oval-6" fill="#454545" fill-rule="evenodd" stroke="none" />
      </g>
    </g>
  </g>
</svg>