<?xml version="1.0" encoding="utf-8"?>
<svg width="1110px" height="464px" viewBox="0 0 1110 464" version="1.1" xmlns:xlink="http://www.w3.org/1999/xlink" xmlns="http://www.w3.org/2000/svg" >
  <style>
    .number {
      font: 13px sans-serif;
      fill: #ffffff;
      text-anchor: middle;
      user-select: none;
    }
    .hiz {
      font: 11px sans-serif;
      fill: #ffffff;
      text-anchor: middle;
      user-select: none;
    }
  </style>
  <g id="SD16">
    <path d="M1070 0C1092.09 0 1110 17.9056 1110 40L1110 424C1110 446.094 1092.09 464 1070 464L40 464C17.9056 464 0 446.094 0 424L0 40C0 17.9056 17.9056 0 40 0L1070 0Z" id="Rectangle-16" fill="#303030" stroke="none" />
    <g id="Inputs" transform="translate(248 94)">
      <g id="XLRi-1" class="connector input" transform="translate(0 0)">
        <text x="78" y="26" class="number">1</text>
        <g id="connector" transform="translate(0 15.7)">
          <use xlink:href="xlr.svg#xlr-f" x="0" y="0" />
        </g>
      </g>
      <g id="XLRi-2" class="connector input" transform="translate(94 0)">
        <text x="78" y="26" class="number">2</text>
        <g id="connector" transform="translate(0 15.7)">
          <use xlink:href="xlr.svg#xlr-f" x="0" y="0" />
        </g>
      </g>
      <g id="XLRi-3" class="connector input" transform="translate(188 0)">
        <text x="78" y="26" class="number">3</text>
        <g id="connector" transform="translate(0 15.7)">
          <use xlink:href="xlr.svg#xlr-f" x="0" y="0" />
        </g>
      </g>
      <g id="XLRi-4" class="connector input" transform="translate(282 0)">
        <text x="78" y="26" class="number">4</text>
        <g id="connector" transform="translate(0 15.7)">
          <use xlink:href="xlr.svg#xlr-f" x="0" y="0" />
        </g>
      </g>
      <g id="XLRi-5" class="connector input" transform="translate(376 0)">
        <text x="78" y="26" class="number">5</text>
        <g id="connector" transform="translate(0 15.7)">
          <use xlink:href="xlr.svg#xlr-f" x="0" y="0" />
        </g>
      </g>
      <g id="XLRi-6" class="connector input" transform="translate(470 0)">
        <text x="78" y="26" class="number">6</text>
        <g id="connector" transform="translate(0 15.7)">
          <use xlink:href="xlr.svg#xlr-f" x="0" y="0" />
        </g>
      </g>
      <g id="XLRi-7" class="connector input" transform="translate(564 0)">
        <text x="78" y="26" class="number">7</text>
        <g id="connector" transform="translate(0 15.7)">
          <use xlink:href="xlr.svg#xlr-f" x="0" y="0" />
        </g>
      </g>
      <g id="XLRi-8" class="connector input" transform="translate(658 0)">
        <text x="78" y="26" class="number">8</text>
        <g id="connector" transform="translate(0 15.7)">
          <use xlink:href="xlr.svg#xlr-f" x="0" y="0" />
        </g>
      </g>
      <g id="XLRi-9" class="connector input" transform="translate(0 96)">
        <text x="78" y="26" class="number">9</text>
        <g id="connector" transform="translate(0 15.7)">
          <use xlink:href="xlr.svg#xlr-f" x="0" y="0" />
        </g>
      </g>
      <g id="XLRi-10" class="connector input" transform="translate(94 96)">
        <text x="78" y="26" class="number">10</text>
        <g id="connector" transform="translate(0 15.7)">
          <use xlink:href="xlr.svg#xlr-f" x="0" y="0" />
        </g>
      </g>
      <g id="XLRi-11" class="connector input" transform="translate(188 96)">
        <text x="78" y="26" class="number">11</text>
        <g id="connector" transform="translate(0 15.7)">
          <use xlink:href="xlr.svg#xlr-f" x="0" y="0" />
        </g>
      </g>
      <g id="XLRi-12" class="connector input" transform="translate(282 96)">
        <text x="78" y="26" class="number">12</text>
        <g id="connector" transform="translate(0 15.7)">
          <use xlink:href="xlr.svg#xlr-f" x="0" y="0" />
        </g>
      </g>
      <g id="XLRi-13" class="connector input" transform="translate(376 96)">
        <text x="78" y="26" class="number">13</text>
        <g id="connector" transform="translate(0 15.7)">
          <use xlink:href="xlr.svg#xlr-f" x="0" y="0" />
        </g>
      </g>
      <g id="XLRi-14" class="connector input" transform="translate(470 96)">
        <text x="78" y="26" class="number">14</text>
        <g id="connector" transform="translate(0 15.7)">
          <use xlink:href="xlr.svg#xlr-f" x="0" y="0" />
        </g>
      </g>
      <g id="XLRi-15" class="connector input" transform="translate(564 96)">
        <text x="78" y="26" class="number">15</text>
        <text x="39.5" y="14" class="hiz">HI-Z</text>
        <g id="connector" transform="translate(0 15.7)">
          <use xlink:href="xlr.svg#xlr-f" x="0" y="0" />
        </g>
      </g>
      <g id="XLRi-16" class="connector input" transform="translate(658 96)">
        <text x="78" y="26" class="number">16</text>
        <text x="39.5" y="14" class="hiz">HI-Z</text>
        <g id="connector" transform="translate(0 15.7)">
          <use xlink:href="xlr.svg#xlr-f" x="0" y="0" />
        </g>
      </g>
    </g>
    <g id="Outputs" transform="translate(248 294)">
      <g id="XLRo-1" class="connector output" transform="translate(0 0)">
        <text x="62" y="25" class="number">OUT 1</text>
        <g id="connector" transform="translate(0 25.7)">
          <use xlink:href="xlr.svg#xlr-m" x="0" y="0" />
        </g>
      </g>
      <g id="XLRo-2" class="connector input" transform="translate(94 0)">
        <text x="62" y="25" class="number">OUT 2</text>
        <g id="connector" transform="translate(0 25.7)">
          <use xlink:href="xlr.svg#xlr-m" x="0" y="0" />
        </g>
      </g>
      <g id="XLRo-3" class="connector input" transform="translate(188 0)">
        <text x="62" y="25" class="number">OUT 3</text>
        <g id="connector" transform="translate(0 25.7)">
          <use xlink:href="xlr.svg#xlr-m" x="0" y="0" />
        </g>
      </g>
      <g id="XLRo-4" class="connector input" transform="translate(282 0)">
        <text x="62" y="25" class="number">OUT 4</text>
        <g id="connector" transform="translate(0 25.7)">
          <use xlink:href="xlr.svg#xlr-m" x="0" y="0" />
        </g>
      </g>
      <g id="XLRo-5" class="connector input" transform="translate(376 0)">
        <text x="62" y="25" class="number">OUT 5</text>
        <g id="connector" transform="translate(0 25.7)">
          <use xlink:href="xlr.svg#xlr-m" x="0" y="0" />
        </g>
      </g>
      <g id="XLRo-6" class="connector input" transform="translate(470 0)">
        <text x="62" y="25" class="number">OUT 6</text>
        <g id="connector" transform="translate(0 25.7)">
          <use xlink:href="xlr.svg#xlr-m" x="0" y="0" />
        </g>
      </g>
      <g id="XLRo-7" class="connector input" transform="translate(564 0)">
        <text x="62" y="25" class="number">OUT 7</text>
        <g id="connector" transform="translate(0 25.7)">
          <use xlink:href="xlr.svg#xlr-m" x="0" y="0" />
        </g>
      </g>
      <g id="XLRo-8" class="connector input" transform="translate(658 0)">
        <text x="62" y="25" class="number">OUT 8</text>
        <g id="connector" transform="translate(0 25.7)">
          <use xlink:href="xlr.svg#xlr-m" x="0" y="0" />
        </g>
      </g>
    </g>
    <path d="M197 107C201.419 107 205 110.581 205 115L205 397C205 401.419 201.419 405 197 405L119 405C114.581 405 111 401.419 111 397L111 115C111 110.581 114.581 107 119 107L197 107Z" id="Rectangle-17" fill="#B2B2B2" stroke="none" />
    <path d="M57 38C63.076 38 68 42.924 68 49L68 416C68 422.076 63.076 427 57 427L57 427C50.924 427 46 422.076 46 416L46 49C46 42.924 50.924 38 57 38Z" id="Rectangle-18" fill="#D5D5D5" stroke="none" />
    <path d="M1053 37.9999C1059.08 37.9999 1064 42.9239 1064 48.9999L1064 416C1064 422.076 1059.08 427 1053 427L1053 427C1046.92 427 1042 422.076 1042 416L1042 48.9999C1042 42.9239 1046.92 37.9999 1053 37.9999Z" id="Rectangle-19" fill="#D5D5D5" stroke="none" />
    <g id="RJ45" transform="translate(128 123)">
      <image x="0" y="0" width="79" height="79" xlink:href="rj45.svg" />
    </g>
    <g id="RJ45-2" transform="translate(128 193.29993)">
      <image x="0" y="0" width="79" height="79" xlink:href="rj45.svg" />
    </g>
    <g id="RJ45-3" transform="translate(128 264.59985)">
      <image x="0" y="0" width="79" height="79" xlink:href="rj45.svg" />
    </g>
    <g id="RJ45-4" transform="translate(128 334.90002)">
      <image x="0" y="0" width="79" height="79" xlink:href="rj45.svg" />
    </g>
  </g>
</svg>