<?xml version="1.0" encoding="utf-8"?>
<svg width="1110px" height="499px" viewBox="0 0 1110 499" version="1.1" xmlns:xlink="http://www.w3.org/1999/xlink" xmlns="http://www.w3.org/2000/svg">
  <defs>
    <path d="M0 0L50 0L50 50L0 50L0 0Z" id="path_1" />
    <path d="M0 0L37.5 0L37.5 38L0 38L0 0Z" id="path_2" />
    <path d="M0 0L114 0L114 21L0 21L0 0Z" id="path_3" />
    <clipPath id="clip_1">
      <use xlink:href="#path_1" />
    </clipPath>
    <clipPath id="clip_2">
      <use xlink:href="#path_2" transform="translate(0, 2.784092)" />
    </clipPath>
    <clipPath id="clip_3">
      <use xlink:href="#path_3" />
    </clipPath>
  </defs>
  <g id="SD16">
    <path d="M1070 35.0001C1092.09 35.0001 1110 52.9057 1110 75.0001L1110 459C1110 481.095 1092.09 499 1070 499L40 499C17.9056 499 0 481.095 0 459L0 75.0001C0 52.9057 17.9056 35.0001 40 35.0001L1070 35.0001Z" id="Rectangle-16" fill="#303030" stroke="none" />
    <g id="Inputs" transform="translate(248 139)">
      <g id="XLR">
        <g id="1" transform="translate(73.5 0)">
          <g id="1" fill="#FFFFFF">
            <path d="M4.63352 3.38068L4.63352 13.5625L3.40057 13.5625L3.40057 4.6733L3.34091 4.6733L0.855114 6.32386L0.855114 5.07102L3.40057 3.38068L4.63352 3.38068Z" />
          </g>
        </g>
        <path d="M0 45.2023C0 23.387 17.6848 5.70227 39.5 5.70227C61.3152 5.70227 79 23.387 79 45.2023C79 67.0175 61.3152 84.7023 39.5 84.7023C17.6848 84.7023 0 67.0175 0 45.2023Z" id="Oval" fill="#B2B2B2" fill-rule="evenodd" stroke="none" />
        <path d="M26 44.7024C26 37.5227 31.8203 31.7024 39 31.7024C46.1797 31.7024 52 37.5227 52 44.7024C52 51.8821 46.1797 57.7024 39 57.7024C31.8203 57.7024 26 51.8821 26 44.7024Z" id="Oval-2" fill="#454545" fill-rule="evenodd" stroke="none" />
        <path d="M34 60.2024C34 57.1648 36.4624 54.7024 39.5 54.7024C42.5376 54.7024 45 57.1648 45 60.2024C45 63.2399 42.5376 65.7024 39.5 65.7024C36.4624 65.7024 34 63.2399 34 60.2024Z" id="Oval-3" fill="#454545" fill-rule="evenodd" stroke="none" />
        <path d="M20 45.2024C20 42.1648 22.4624 39.7024 25.5 39.7024C28.5376 39.7024 31 42.1648 31 45.2024C31 48.2399 28.5376 50.7024 25.5 50.7024C22.4624 50.7024 20 48.2399 20 45.2024Z" id="Oval-4" fill="#454545" fill-rule="evenodd" stroke="none" />
        <path d="M48 45.2024C48 42.1648 50.4624 39.7024 53.5 39.7024C56.5376 39.7024 59 42.1648 59 45.2024C59 48.2399 56.5376 50.7024 53.5 50.7024C50.4624 50.7024 48 48.2399 48 45.2024Z" id="Oval-5" fill="#454545" fill-rule="evenodd" stroke="none" />
      </g>
      <g id="XLR-2" transform="translate(93.5 0)">
        <g id="2" transform="translate(73 0)">
          <g id="2" fill="#FFFFFF">
            <path d="M1.05398 13.5625L1.05398 12.6676L4.41477 8.98864Q5.00639 8.34233 5.3892 7.86257Q5.77202 7.38281 5.95845 6.95774Q6.14489 6.53267 6.14489 6.06534Q6.14489 5.25994 5.58558 4.78764Q5.02628 4.31534 4.19602 4.31534Q3.31108 4.31534 2.78906 4.84482Q2.26705 5.37429 2.26705 6.24432L1.09375 6.24432Q1.09375 5.34943 1.50639 4.6733Q1.91903 3.99716 2.63246 3.61932Q3.34588 3.24148 4.2358 3.24148Q5.13068 3.24148 5.82173 3.61932Q6.51278 3.99716 6.90554 4.63849Q7.2983 5.27983 7.2983 6.06534Q7.2983 6.62713 7.09695 7.16158Q6.8956 7.69602 6.40092 8.34979Q5.90625 9.00355 5.03125 9.94318L2.74432 12.3892L2.74432 12.4688L7.47727 12.4688L7.47727 13.5625L1.05398 13.5625Z" />
          </g>
        </g>
        <path d="M0 45.2023C0 23.387 17.6848 5.70227 39.5 5.70227C61.3152 5.70227 79 23.387 79 45.2023C79 67.0175 61.3152 84.7023 39.5 84.7023C17.6848 84.7023 0 67.0175 0 45.2023Z" id="Oval" fill="#B2B2B2" fill-rule="evenodd" stroke="none" />
        <path d="M26 44.7024C26 37.5227 31.8203 31.7024 39 31.7024C46.1797 31.7024 52 37.5227 52 44.7024C52 51.8821 46.1797 57.7024 39 57.7024C31.8203 57.7024 26 51.8821 26 44.7024Z" id="Oval-2" fill="#454545" fill-rule="evenodd" stroke="none" />
        <path d="M34 60.2024C34 57.1648 36.4624 54.7024 39.5 54.7024C42.5376 54.7024 45 57.1648 45 60.2024C45 63.2399 42.5376 65.7024 39.5 65.7024C36.4624 65.7024 34 63.2399 34 60.2024Z" id="Oval-3" fill="#454545" fill-rule="evenodd" stroke="none" />
        <path d="M20 45.2024C20 42.1648 22.4624 39.7024 25.5 39.7024C28.5376 39.7024 31 42.1648 31 45.2024C31 48.2399 28.5376 50.7024 25.5 50.7024C22.4624 50.7024 20 48.2399 20 45.2024Z" id="Oval-4" fill="#454545" fill-rule="evenodd" stroke="none" />
        <path d="M48 45.2024C48 42.1648 50.4624 39.7024 53.5 39.7024C56.5376 39.7024 59 42.1648 59 45.2024C59 48.2399 56.5376 50.7024 53.5 50.7024C50.4624 50.7024 48 48.2399 48 45.2024Z" id="Oval-5" fill="#454545" fill-rule="evenodd" stroke="none" />
      </g>
      <g id="XLR-3" transform="translate(187.5 0)">
        <g id="3" transform="translate(72.5 0)">
          <g id="3" fill="#FFFFFF">
            <path d="M4.49432 13.7017Q3.50994 13.7017 2.74183 13.3636Q1.97372 13.0256 1.52379 12.4215Q1.07386 11.8175 1.03409 11.017L2.28693 11.017Q2.34162 11.7528 2.96555 12.1804Q3.58949 12.608 4.47443 12.608Q5.45384 12.608 6.08771 12.1083Q6.72159 11.6087 6.72159 10.7983Q6.72159 9.95312 6.09766 9.42117Q5.47372 8.8892 4.31534 8.8892L3.5 8.8892L3.5 7.79545L4.31534 7.79545Q5.22017 7.79545 5.7919 7.31321Q6.36364 6.83097 6.36364 6.02557Q6.36364 5.25497 5.86151 4.78516Q5.35938 4.31534 4.5142 4.31534Q3.98722 4.31534 3.52237 4.50675Q3.05753 4.69815 2.7642 5.05859Q2.47088 5.41903 2.44602 5.92614L1.25284 5.92614Q1.28267 5.12571 1.73509 4.52166Q2.1875 3.91761 2.92081 3.57955Q3.65412 3.24148 4.53409 3.24148Q5.47869 3.24148 6.15483 3.6218Q6.83097 4.00213 7.19389 4.62358Q7.55682 5.24503 7.55682 5.96591Q7.55682 6.82599 7.10689 7.43253Q6.65696 8.03906 5.88636 8.27273L5.88636 8.35227Q6.85085 8.51136 7.39276 9.1701Q7.93466 9.82884 7.93466 10.7983Q7.93466 11.6286 7.48473 12.2873Q7.0348 12.946 6.25923 13.3239Q5.48366 13.7017 4.49432 13.7017Z" />
          </g>
        </g>
        <path d="M0 45.2023C0 23.387 17.6848 5.70227 39.5 5.70227C61.3152 5.70227 79 23.387 79 45.2023C79 67.0175 61.3152 84.7023 39.5 84.7023C17.6848 84.7023 0 67.0175 0 45.2023Z" id="Oval" fill="#B2B2B2" fill-rule="evenodd" stroke="none" />
        <path d="M26 44.7024C26 37.5227 31.8203 31.7024 39 31.7024C46.1797 31.7024 52 37.5227 52 44.7024C52 51.8821 46.1797 57.7024 39 57.7024C31.8203 57.7024 26 51.8821 26 44.7024Z" id="Oval-2" fill="#454545" fill-rule="evenodd" stroke="none" />
        <path d="M34 60.2024C34 57.1648 36.4624 54.7024 39.5 54.7024C42.5376 54.7024 45 57.1648 45 60.2024C45 63.2399 42.5376 65.7024 39.5 65.7024C36.4624 65.7024 34 63.2399 34 60.2024Z" id="Oval-3" fill="#454545" fill-rule="evenodd" stroke="none" />
        <path d="M20 45.2024C20 42.1648 22.4624 39.7024 25.5 39.7024C28.5376 39.7024 31 42.1648 31 45.2024C31 48.2399 28.5376 50.7024 25.5 50.7024C22.4624 50.7024 20 48.2399 20 45.2024Z" id="Oval-4" fill="#454545" fill-rule="evenodd" stroke="none" />
        <path d="M48 45.2024C48 42.1648 50.4624 39.7024 53.5 39.7024C56.5376 39.7024 59 42.1648 59 45.2024C59 48.2399 56.5376 50.7024 53.5 50.7024C50.4624 50.7024 48 48.2399 48 45.2024Z" id="Oval-5" fill="#454545" fill-rule="evenodd" stroke="none" />
      </g>
      <g id="XLR-4" transform="translate(280.5 0)">
        <g id="4" transform="translate(72.5 0)">
          <g id="4" fill="#FFFFFF">
            <path d="M0.815341 11.4744L0.815341 10.4602L5.28977 3.38068L6.78125 3.38068L6.78125 10.3807L8.1733 10.3807L8.1733 11.4744L6.78125 11.4744L6.78125 13.5625L5.60795 13.5625L5.60795 11.4744L0.815341 11.4744ZM5.60795 10.3807L5.60795 4.9517L5.52841 4.9517L2.14773 10.3011L2.14773 10.3807L5.60795 10.3807Z" />
          </g>
        </g>
        <path d="M0 45.2023C0 23.387 17.6848 5.70227 39.5 5.70227C61.3152 5.70227 79 23.387 79 45.2023C79 67.0175 61.3152 84.7023 39.5 84.7023C17.6848 84.7023 0 67.0175 0 45.2023Z" id="Oval" fill="#B2B2B2" fill-rule="evenodd" stroke="none" />
        <path d="M26 44.7024C26 37.5227 31.8203 31.7024 39 31.7024C46.1797 31.7024 52 37.5227 52 44.7024C52 51.8821 46.1797 57.7024 39 57.7024C31.8203 57.7024 26 51.8821 26 44.7024Z" id="Oval-2" fill="#454545" fill-rule="evenodd" stroke="none" />
        <path d="M34 60.2024C34 57.1648 36.4624 54.7024 39.5 54.7024C42.5376 54.7024 45 57.1648 45 60.2024C45 63.2399 42.5376 65.7024 39.5 65.7024C36.4624 65.7024 34 63.2399 34 60.2024Z" id="Oval-3" fill="#454545" fill-rule="evenodd" stroke="none" />
        <path d="M20 45.2024C20 42.1648 22.4624 39.7024 25.5 39.7024C28.5376 39.7024 31 42.1648 31 45.2024C31 48.2399 28.5376 50.7024 25.5 50.7024C22.4624 50.7024 20 48.2399 20 45.2024Z" id="Oval-4" fill="#454545" fill-rule="evenodd" stroke="none" />
        <path d="M48 45.2024C48 42.1648 50.4624 39.7024 53.5 39.7024C56.5376 39.7024 59 42.1648 59 45.2024C59 48.2399 56.5376 50.7024 53.5 50.7024C50.4624 50.7024 48 48.2399 48 45.2024Z" id="Oval-5" fill="#454545" fill-rule="evenodd" stroke="none" />
      </g>
      <g id="XLR-5" transform="translate(375 0)">
        <g id="5" transform="translate(72.5 0)">
          <g id="5" fill="#FFFFFF">
            <path d="M4.2358 13.7017Q3.3608 13.7017 2.6598 13.3537Q1.95881 13.0057 1.53622 12.3991Q1.11364 11.7926 1.07386 11.017L2.26705 11.017Q2.33665 11.7081 2.89595 12.158Q3.45526 12.608 4.2358 12.608Q4.86222 12.608 5.35192 12.3146Q5.84162 12.0213 6.12251 11.5067Q6.40341 10.9922 6.40341 10.3409Q6.40341 9.67472 6.11257 9.15021Q5.82173 8.62571 5.31463 8.32244Q4.80753 8.01918 4.15625 8.0142Q3.68892 8.00923 3.19673 8.1559Q2.70455 8.30256 2.38636 8.53125L1.23295 8.39205L1.84943 3.38068L7.1392 3.38068L7.1392 4.47443L2.88352 4.47443L2.52557 7.47727L2.58523 7.47727Q2.89844 7.22869 3.37074 7.06463Q3.84304 6.90057 4.35511 6.90057Q5.28977 6.90057 6.02308 7.34553Q6.75639 7.79048 7.17649 8.56108Q7.59659 9.33168 7.59659 10.321Q7.59659 11.2955 7.16158 12.0586Q6.72656 12.8217 5.96591 13.2617Q5.20526 13.7017 4.2358 13.7017Z" />
          </g>
        </g>
        <path d="M0 45.2023C0 23.387 17.6848 5.70227 39.5 5.70227C61.3152 5.70227 79 23.387 79 45.2023C79 67.0175 61.3152 84.7023 39.5 84.7023C17.6848 84.7023 0 67.0175 0 45.2023Z" id="Oval" fill="#B2B2B2" fill-rule="evenodd" stroke="none" />
        <path d="M26 44.7024C26 37.5227 31.8203 31.7024 39 31.7024C46.1797 31.7024 52 37.5227 52 44.7024C52 51.8821 46.1797 57.7024 39 57.7024C31.8203 57.7024 26 51.8821 26 44.7024Z" id="Oval-2" fill="#454545" fill-rule="evenodd" stroke="none" />
        <path d="M34 60.2024C34 57.1648 36.4624 54.7024 39.5 54.7024C42.5376 54.7024 45 57.1648 45 60.2024C45 63.2399 42.5376 65.7024 39.5 65.7024C36.4624 65.7024 34 63.2399 34 60.2024Z" id="Oval-3" fill="#454545" fill-rule="evenodd" stroke="none" />
        <path d="M20 45.2024C20 42.1648 22.4624 39.7024 25.5 39.7024C28.5376 39.7024 31 42.1648 31 45.2024C31 48.2399 28.5376 50.7024 25.5 50.7024C22.4624 50.7024 20 48.2399 20 45.2024Z" id="Oval-4" fill="#454545" fill-rule="evenodd" stroke="none" />
        <path d="M48 45.2024C48 42.1648 50.4624 39.7024 53.5 39.7024C56.5376 39.7024 59 42.1648 59 45.2024C59 48.2399 56.5376 50.7024 53.5 50.7024C50.4624 50.7024 48 48.2399 48 45.2024Z" id="Oval-5" fill="#454545" fill-rule="evenodd" stroke="none" />
      </g>
      <g id="XLR-6" transform="translate(468 0)">
        <g id="6" transform="translate(72.5 0)">
          <g id="6" fill="#FFFFFF">
            <path d="M4.43466 13.7017Q3.80824 13.6918 3.18182 13.4631Q2.5554 13.2344 2.03835 12.69Q1.52131 12.1456 1.2081 11.2134Q0.894886 10.2812 0.894886 8.86932Q0.894886 6.16974 1.88423 4.70561Q2.87358 3.24148 4.59375 3.24148Q5.44886 3.24148 6.11754 3.58203Q6.78622 3.92259 7.20881 4.52912Q7.63139 5.13565 7.75568 5.92614L6.54261 5.92614Q6.37358 5.24006 5.88636 4.78764Q5.39915 4.33523 4.59375 4.33523Q3.41051 4.33523 2.73189 5.36435Q2.05327 6.39347 2.0483 8.25284L2.12784 8.25284Q2.54545 7.62145 3.19673 7.26101Q3.84801 6.90057 4.63352 6.90057Q5.50852 6.90057 6.23438 7.33558Q6.96023 7.7706 7.39773 8.53374Q7.83523 9.29688 7.83523 10.2812Q7.83523 11.2259 7.41264 12.0089Q6.99006 12.7919 6.22692 13.2518Q5.46378 13.7116 4.43466 13.7017ZM4.43466 12.608Q5.06108 12.608 5.56072 12.2947Q6.06037 11.9815 6.35121 11.4545Q6.64205 10.9276 6.64205 10.2812Q6.64205 9.64986 6.36115 9.13033Q6.08026 8.6108 5.59055 8.30256Q5.10085 7.99432 4.47443 7.99432Q3.84304 7.99432 3.33594 8.31747Q2.82884 8.64062 2.53054 9.16513Q2.23224 9.68963 2.22727 10.3011Q2.22727 10.9077 2.51314 11.4347Q2.79901 11.9616 3.29865 12.2848Q3.7983 12.608 4.43466 12.608Z" />
          </g>
        </g>
        <path d="M0 45.2023C0 23.387 17.6848 5.70227 39.5 5.70227C61.3152 5.70227 79 23.387 79 45.2023C79 67.0175 61.3152 84.7023 39.5 84.7023C17.6848 84.7023 0 67.0175 0 45.2023Z" id="Oval" fill="#B2B2B2" fill-rule="evenodd" stroke="none" />
        <path d="M26 44.7024C26 37.5227 31.8203 31.7024 39 31.7024C46.1797 31.7024 52 37.5227 52 44.7024C52 51.8821 46.1797 57.7024 39 57.7024C31.8203 57.7024 26 51.8821 26 44.7024Z" id="Oval-2" fill="#454545" fill-rule="evenodd" stroke="none" />
        <path d="M34 60.2024C34 57.1648 36.4624 54.7024 39.5 54.7024C42.5376 54.7024 45 57.1648 45 60.2024C45 63.2399 42.5376 65.7024 39.5 65.7024C36.4624 65.7024 34 63.2399 34 60.2024Z" id="Oval-3" fill="#454545" fill-rule="evenodd" stroke="none" />
        <path d="M20 45.2024C20 42.1648 22.4624 39.7024 25.5 39.7024C28.5376 39.7024 31 42.1648 31 45.2024C31 48.2399 28.5376 50.7024 25.5 50.7024C22.4624 50.7024 20 48.2399 20 45.2024Z" id="Oval-4" fill="#454545" fill-rule="evenodd" stroke="none" />
        <path d="M48 45.2024C48 42.1648 50.4624 39.7024 53.5 39.7024C56.5376 39.7024 59 42.1648 59 45.2024C59 48.2399 56.5376 50.7024 53.5 50.7024C50.4624 50.7024 48 48.2399 48 45.2024Z" id="Oval-5" fill="#454545" fill-rule="evenodd" stroke="none" />
      </g>
      <g id="XLR-7" transform="translate(562 0)">
        <g id="7" transform="translate(73 0)">
          <g id="7" fill="#FFFFFF">
            <path d="M1.37216 13.5625L5.92614 4.55398L5.92614 4.47443L0.676136 4.47443L0.676136 3.38068L7.19886 3.38068L7.19886 4.53409L2.66477 13.5625L1.37216 13.5625Z" />
          </g>
        </g>
        <path d="M0 45.2023C0 23.387 17.6848 5.70227 39.5 5.70227C61.3152 5.70227 79 23.387 79 45.2023C79 67.0175 61.3152 84.7023 39.5 84.7023C17.6848 84.7023 0 67.0175 0 45.2023Z" id="Oval" fill="#B2B2B2" fill-rule="evenodd" stroke="none" />
        <path d="M26 44.7024C26 37.5227 31.8203 31.7024 39 31.7024C46.1797 31.7024 52 37.5227 52 44.7024C52 51.8821 46.1797 57.7024 39 57.7024C31.8203 57.7024 26 51.8821 26 44.7024Z" id="Oval-2" fill="#454545" fill-rule="evenodd" stroke="none" />
        <path d="M34 60.2024C34 57.1648 36.4624 54.7024 39.5 54.7024C42.5376 54.7024 45 57.1648 45 60.2024C45 63.2399 42.5376 65.7024 39.5 65.7024C36.4624 65.7024 34 63.2399 34 60.2024Z" id="Oval-3" fill="#454545" fill-rule="evenodd" stroke="none" />
        <path d="M20 45.2024C20 42.1648 22.4624 39.7024 25.5 39.7024C28.5376 39.7024 31 42.1648 31 45.2024C31 48.2399 28.5376 50.7024 25.5 50.7024C22.4624 50.7024 20 48.2399 20 45.2024Z" id="Oval-4" fill="#454545" fill-rule="evenodd" stroke="none" />
        <path d="M48 45.2024C48 42.1648 50.4624 39.7024 53.5 39.7024C56.5376 39.7024 59 42.1648 59 45.2024C59 48.2399 56.5376 50.7024 53.5 50.7024C50.4624 50.7024 48 48.2399 48 45.2024Z" id="Oval-5" fill="#454545" fill-rule="evenodd" stroke="none" />
      </g>
      <g id="XLR-8" transform="translate(656 0)">
        <g id="8" transform="translate(72.5 0)">
          <g id="8" fill="#FFFFFF">
            <path d="M4.31534 13.7017Q3.29119 13.7017 2.50817 13.3363Q1.72514 12.9709 1.28764 12.3271Q0.850142 11.6832 0.855114 10.858Q0.850142 10.2116 1.10866 9.66229Q1.36719 9.11293 1.81712 8.74254Q2.26705 8.37216 2.82386 8.27273L2.82386 8.21307Q2.09304 8.02415 1.66051 7.39027Q1.22798 6.75639 1.23295 5.94602Q1.22798 5.17045 1.62571 4.55895Q2.02344 3.94744 2.72195 3.59446Q3.42045 3.24148 4.31534 3.24148Q5.20028 3.24148 5.89631 3.59446Q6.59233 3.94744 6.99254 4.55895Q7.39276 5.17045 7.39773 5.94602Q7.39276 6.75639 6.95774 7.39027Q6.52273 8.02415 5.80682 8.21307L5.80682 8.27273Q6.35866 8.37216 6.80114 8.74254Q7.24361 9.11293 7.5071 9.66229Q7.7706 10.2116 7.77557 10.858Q7.7706 11.6832 7.33061 12.3271Q6.89062 12.9709 6.11257 13.3363Q5.33452 13.7017 4.31534 13.7017ZM4.31534 12.608Q5.34943 12.608 5.95348 12.1133Q6.55753 11.6186 6.5625 10.7983Q6.55753 10.2216 6.2642 9.77912Q5.97088 9.33665 5.46626 9.0831Q4.96165 8.82955 4.31534 8.82955Q3.66406 8.82955 3.15447 9.0831Q2.64489 9.33665 2.35405 9.77912Q2.06321 10.2216 2.06818 10.7983Q2.06321 11.6186 2.66477 12.1133Q3.26634 12.608 4.31534 12.608ZM4.31534 7.77557Q5.13565 7.77557 5.66761 7.29581Q6.19957 6.81605 6.20455 6.02557Q6.19957 5.25 5.68004 4.78267Q5.16051 4.31534 4.31534 4.31534Q3.46023 4.31534 2.9407 4.78267Q2.42116 5.25 2.42614 6.02557Q2.42116 6.81605 2.95064 7.29581Q3.48011 7.77557 4.31534 7.77557Z" />
          </g>
        </g>
        <path d="M0 45.2023C0 23.387 17.6848 5.70227 39.5 5.70227C61.3152 5.70227 79 23.387 79 45.2023C79 67.0175 61.3152 84.7023 39.5 84.7023C17.6848 84.7023 0 67.0175 0 45.2023Z" id="Oval" fill="#B2B2B2" fill-rule="evenodd" stroke="none" />
        <path d="M26 44.7024C26 37.5227 31.8203 31.7024 39 31.7024C46.1797 31.7024 52 37.5227 52 44.7024C52 51.8821 46.1797 57.7024 39 57.7024C31.8203 57.7024 26 51.8821 26 44.7024Z" id="Oval-2" fill="#454545" fill-rule="evenodd" stroke="none" />
        <path d="M34 60.2024C34 57.1648 36.4624 54.7024 39.5 54.7024C42.5376 54.7024 45 57.1648 45 60.2024C45 63.2399 42.5376 65.7024 39.5 65.7024C36.4624 65.7024 34 63.2399 34 60.2024Z" id="Oval-3" fill="#454545" fill-rule="evenodd" stroke="none" />
        <path d="M20 45.2024C20 42.1648 22.4624 39.7024 25.5 39.7024C28.5376 39.7024 31 42.1648 31 45.2024C31 48.2399 28.5376 50.7024 25.5 50.7024C22.4624 50.7024 20 48.2399 20 45.2024Z" id="Oval-4" fill="#454545" fill-rule="evenodd" stroke="none" />
        <path d="M48 45.2024C48 42.1648 50.4624 39.7024 53.5 39.7024C56.5376 39.7024 59 42.1648 59 45.2024C59 48.2399 56.5376 50.7024 53.5 50.7024C50.4624 50.7024 48 48.2399 48 45.2024Z" id="Oval-5" fill="#454545" fill-rule="evenodd" stroke="none" />
      </g>
      <g id="XLR-9" transform="translate(0 106)">
        <g id="9" transform="translate(72.5 0)">
          <g id="9" fill="#FFFFFF">
            <path d="M4.29545 3.24148Q4.92188 3.24645 5.5483 3.48011Q6.17472 3.71378 6.69176 4.2532Q7.20881 4.79261 7.52202 5.7223Q7.83523 6.65199 7.83523 8.05398Q7.83523 10.7685 6.84339 12.2351Q5.85156 13.7017 4.13636 13.7017Q2.85369 13.7017 2.00355 12.9535Q1.15341 12.2053 0.974432 10.9972L2.1875 10.9972Q2.35156 11.6982 2.84126 12.1531Q3.33097 12.608 4.13636 12.608Q5.31463 12.608 5.99822 11.5788Q6.68182 10.5497 6.68182 8.67045L6.60227 8.67045Q6.18466 9.29688 5.53587 9.6598Q4.88707 10.0227 4.09659 10.0227Q3.22159 10.0227 2.49325 9.58771Q1.76491 9.1527 1.3299 8.38956Q0.894886 7.62642 0.894886 6.64205Q0.894886 5.70739 1.31499 4.92933Q1.73509 4.15128 2.49822 3.68892Q3.26136 3.22656 4.29545 3.24148ZM4.29545 4.33523Q3.66903 4.33523 3.16939 4.64595Q2.66974 4.95668 2.37891 5.48118Q2.08807 6.00568 2.08807 6.64205Q2.08807 7.27841 2.36896 7.79794Q2.64986 8.31747 3.13956 8.62322Q3.62926 8.92898 4.25568 8.92898Q4.8821 8.92898 5.39169 8.60582Q5.90128 8.28267 6.20206 7.75568Q6.50284 7.22869 6.50284 6.62216Q6.50284 6.02557 6.21697 5.50355Q5.93111 4.98153 5.43146 4.65838Q4.93182 4.33523 4.29545 4.33523Z" />
          </g>
        </g>
        <path d="M0 45.2023C0 23.387 17.6848 5.70227 39.5 5.70227C61.3152 5.70227 79 23.387 79 45.2023C79 67.0175 61.3152 84.7023 39.5 84.7023C17.6848 84.7023 0 67.0175 0 45.2023Z" id="Oval" fill="#B2B2B2" fill-rule="evenodd" stroke="none" />
        <path d="M26 44.7024C26 37.5227 31.8203 31.7024 39 31.7024C46.1797 31.7024 52 37.5227 52 44.7024C52 51.8821 46.1797 57.7024 39 57.7024C31.8203 57.7024 26 51.8821 26 44.7024Z" id="Oval-2" fill="#454545" fill-rule="evenodd" stroke="none" />
        <path d="M34 60.2024C34 57.1648 36.4624 54.7024 39.5 54.7024C42.5376 54.7024 45 57.1648 45 60.2024C45 63.2399 42.5376 65.7024 39.5 65.7024C36.4624 65.7024 34 63.2399 34 60.2024Z" id="Oval-3" fill="#454545" fill-rule="evenodd" stroke="none" />
        <path d="M20 45.2024C20 42.1648 22.4624 39.7024 25.5 39.7024C28.5376 39.7024 31 42.1648 31 45.2024C31 48.2399 28.5376 50.7024 25.5 50.7024C22.4624 50.7024 20 48.2399 20 45.2024Z" id="Oval-4" fill="#454545" fill-rule="evenodd" stroke="none" />
        <path d="M48 45.2024C48 42.1648 50.4624 39.7024 53.5 39.7024C56.5376 39.7024 59 42.1648 59 45.2024C59 48.2399 56.5376 50.7024 53.5 50.7024C50.4624 50.7024 48 48.2399 48 45.2024Z" id="Oval-5" fill="#454545" fill-rule="evenodd" stroke="none" />
      </g>
      <g id="XLR-10" transform="translate(93 106)">
        <g id="10" transform="translate(69.5 0)">
          <g id="10" fill="#FFFFFF">
            <path d="M4.63352 3.38068L4.63352 13.5625L3.40057 13.5625L3.40057 4.6733L3.34091 4.6733L0.855114 6.32386L0.855114 5.07102L3.40057 3.38068L4.63352 3.38068ZM10.8778 13.7017Q9.19247 13.7017 8.26527 12.3345Q7.33807 10.9673 7.33807 8.47159Q7.33807 5.99574 8.27273 4.61861Q9.20739 3.24148 10.8778 3.24148Q12.5483 3.24148 13.483 4.61861Q14.4176 5.99574 14.4176 8.47159Q14.4176 10.9673 13.4904 12.3345Q12.5632 13.7017 10.8778 13.7017ZM10.8778 12.608Q11.9915 12.608 12.608 11.5341Q13.2244 10.4602 13.2244 8.47159Q13.2244 6.48793 12.603 5.40163Q11.9815 4.31534 10.8778 4.31534Q9.77415 4.31534 9.1527 5.40163Q8.53125 6.48793 8.53125 8.47159Q8.53125 10.4602 9.15021 11.5341Q9.76918 12.608 10.8778 12.608Z" />
          </g>
        </g>
        <path d="M0 45.2023C0 23.387 17.6848 5.70227 39.5 5.70227C61.3152 5.70227 79 23.387 79 45.2023C79 67.0175 61.3152 84.7023 39.5 84.7023C17.6848 84.7023 0 67.0175 0 45.2023Z" id="Oval" fill="#B2B2B2" fill-rule="evenodd" stroke="none" />
        <path d="M26 44.7024C26 37.5227 31.8203 31.7024 39 31.7024C46.1797 31.7024 52 37.5227 52 44.7024C52 51.8821 46.1797 57.7024 39 57.7024C31.8203 57.7024 26 51.8821 26 44.7024Z" id="Oval-2" fill="#454545" fill-rule="evenodd" stroke="none" />
        <path d="M34 60.2024C34 57.1648 36.4624 54.7024 39.5 54.7024C42.5376 54.7024 45 57.1648 45 60.2024C45 63.2399 42.5376 65.7024 39.5 65.7024C36.4624 65.7024 34 63.2399 34 60.2024Z" id="Oval-3" fill="#454545" fill-rule="evenodd" stroke="none" />
        <path d="M20 45.2024C20 42.1648 22.4624 39.7024 25.5 39.7024C28.5376 39.7024 31 42.1648 31 45.2024C31 48.2399 28.5376 50.7024 25.5 50.7024C22.4624 50.7024 20 48.2399 20 45.2024Z" id="Oval-4" fill="#454545" fill-rule="evenodd" stroke="none" />
        <path d="M48 45.2024C48 42.1648 50.4624 39.7024 53.5 39.7024C56.5376 39.7024 59 42.1648 59 45.2024C59 48.2399 56.5376 50.7024 53.5 50.7024C50.4624 50.7024 48 48.2399 48 45.2024Z" id="Oval-5" fill="#454545" fill-rule="evenodd" stroke="none" />
      </g>
      <g id="XLR-11" transform="translate(187 106)">
        <g id="11" transform="translate(70.5 0)">
          <g id="11" fill="#FFFFFF">
            <path d="M4.63352 3.38068L4.63352 13.5625L3.40057 13.5625L3.40057 4.6733L3.34091 4.6733L0.855114 6.32386L0.855114 5.07102L3.40057 3.38068L4.63352 3.38068ZM11.1364 3.38068L11.1364 13.5625L9.90341 13.5625L9.90341 4.6733L9.84375 4.6733L7.35795 6.32386L7.35795 5.07102L9.90341 3.38068L11.1364 3.38068Z" />
          </g>
        </g>
        <path d="M0 45.2023C0 23.387 17.6848 5.70227 39.5 5.70227C61.3152 5.70227 79 23.387 79 45.2023C79 67.0175 61.3152 84.7023 39.5 84.7023C17.6848 84.7023 0 67.0175 0 45.2023Z" id="Oval" fill="#B2B2B2" fill-rule="evenodd" stroke="none" />
        <path d="M26 44.7024C26 37.5227 31.8203 31.7024 39 31.7024C46.1797 31.7024 52 37.5227 52 44.7024C52 51.8821 46.1797 57.7024 39 57.7024C31.8203 57.7024 26 51.8821 26 44.7024Z" id="Oval-2" fill="#454545" fill-rule="evenodd" stroke="none" />
        <path d="M34 60.2024C34 57.1648 36.4624 54.7024 39.5 54.7024C42.5376 54.7024 45 57.1648 45 60.2024C45 63.2399 42.5376 65.7024 39.5 65.7024C36.4624 65.7024 34 63.2399 34 60.2024Z" id="Oval-3" fill="#454545" fill-rule="evenodd" stroke="none" />
        <path d="M20 45.2024C20 42.1648 22.4624 39.7024 25.5 39.7024C28.5376 39.7024 31 42.1648 31 45.2024C31 48.2399 28.5376 50.7024 25.5 50.7024C22.4624 50.7024 20 48.2399 20 45.2024Z" id="Oval-4" fill="#454545" fill-rule="evenodd" stroke="none" />
        <path d="M48 45.2024C48 42.1648 50.4624 39.7024 53.5 39.7024C56.5376 39.7024 59 42.1648 59 45.2024C59 48.2399 56.5376 50.7024 53.5 50.7024C50.4624 50.7024 48 48.2399 48 45.2024Z" id="Oval-5" fill="#454545" fill-rule="evenodd" stroke="none" />
      </g>
      <g id="XLR-12" transform="translate(281 106)">
        <g id="12" transform="translate(69.5 0)">
          <g id="12" fill="#FFFFFF">
            <path d="M4.63352 3.38068L4.63352 13.5625L3.40057 13.5625L3.40057 4.6733L3.34091 4.6733L0.855114 6.32386L0.855114 5.07102L3.40057 3.38068L4.63352 3.38068ZM7.55682 13.5625L7.55682 12.6676L10.9176 8.98864Q11.5092 8.34233 11.892 7.86257Q12.2749 7.38281 12.4613 6.95774Q12.6477 6.53267 12.6477 6.06534Q12.6477 5.25994 12.0884 4.78764Q11.5291 4.31534 10.6989 4.31534Q9.81392 4.31534 9.2919 4.84482Q8.76989 5.37429 8.76989 6.24432L7.59659 6.24432Q7.59659 5.34943 8.00923 4.6733Q8.42188 3.99716 9.1353 3.61932Q9.84872 3.24148 10.7386 3.24148Q11.6335 3.24148 12.3246 3.61932Q13.0156 3.99716 13.4084 4.63849Q13.8011 5.27983 13.8011 6.06534Q13.8011 6.62713 13.5998 7.16158Q13.3984 7.69602 12.9038 8.34979Q12.4091 9.00355 11.5341 9.94318L9.24716 12.3892L9.24716 12.4688L13.9801 12.4688L13.9801 13.5625L7.55682 13.5625Z" />
          </g>
        </g>
        <path d="M0 45.2023C0 23.387 17.6848 5.70227 39.5 5.70227C61.3152 5.70227 79 23.387 79 45.2023C79 67.0175 61.3152 84.7023 39.5 84.7023C17.6848 84.7023 0 67.0175 0 45.2023Z" id="Oval" fill="#B2B2B2" fill-rule="evenodd" stroke="none" />
        <path d="M26 44.7024C26 37.5227 31.8203 31.7024 39 31.7024C46.1797 31.7024 52 37.5227 52 44.7024C52 51.8821 46.1797 57.7024 39 57.7024C31.8203 57.7024 26 51.8821 26 44.7024Z" id="Oval-2" fill="#454545" fill-rule="evenodd" stroke="none" />
        <path d="M34 60.2024C34 57.1648 36.4624 54.7024 39.5 54.7024C42.5376 54.7024 45 57.1648 45 60.2024C45 63.24 42.5376 65.7024 39.5 65.7024C36.4624 65.7024 34 63.24 34 60.2024Z" id="Oval-3" fill="#454545" fill-rule="evenodd" stroke="none" />
        <path d="M20 45.2023C20 42.1648 22.4624 39.7023 25.5 39.7023C28.5376 39.7023 31 42.1648 31 45.2023C31 48.2399 28.5376 50.7023 25.5 50.7023C22.4624 50.7023 20 48.2399 20 45.2023Z" id="Oval-4" fill="#454545" fill-rule="evenodd" stroke="none" />
        <path d="M48 45.2023C48 42.1648 50.4624 39.7023 53.5 39.7023C56.5376 39.7023 59 42.1648 59 45.2023C59 48.2399 56.5376 50.7023 53.5 50.7023C50.4624 50.7023 48 48.2399 48 45.2023Z" id="Oval-5" fill="#454545" fill-rule="evenodd" stroke="none" />
      </g>
      <g id="XLR-13" transform="translate(375 106)">
        <g id="13" transform="translate(69.5 0)">
          <g id="13" fill="#FFFFFF">
            <path d="M4.63352 3.38068L4.63352 13.5625L3.40057 13.5625L3.40057 4.6733L3.34091 4.6733L0.855114 6.32386L0.855114 5.07102L3.40057 3.38068L4.63352 3.38068ZM10.9972 13.7017Q10.0128 13.7017 9.24467 13.3636Q8.47656 13.0256 8.02663 12.4215Q7.5767 11.8175 7.53693 11.017L8.78977 11.017Q8.84446 11.7528 9.4684 12.1804Q10.0923 12.608 10.9773 12.608Q11.9567 12.608 12.5906 12.1083Q13.2244 11.6087 13.2244 10.7983Q13.2244 9.95312 12.6005 9.42117Q11.9766 8.8892 10.8182 8.8892L10.0028 8.8892L10.0028 7.79545L10.8182 7.79545Q11.723 7.79545 12.2947 7.31321Q12.8665 6.83097 12.8665 6.02557Q12.8665 5.25497 12.3643 4.78516Q11.8622 4.31534 11.017 4.31534Q10.4901 4.31534 10.0252 4.50675Q9.56037 4.69815 9.26705 5.05859Q8.97372 5.41903 8.94886 5.92614L7.75568 5.92614Q7.78551 5.12571 8.23793 4.52166Q8.69034 3.91761 9.42365 3.57955Q10.157 3.24148 11.0369 3.24148Q11.9815 3.24148 12.6577 3.6218Q13.3338 4.00213 13.6967 4.62358Q14.0597 5.24503 14.0597 5.96591Q14.0597 6.82599 13.6097 7.43253Q13.1598 8.03906 12.3892 8.27273L12.3892 8.35227Q13.3537 8.51136 13.8956 9.1701Q14.4375 9.82884 14.4375 10.7983Q14.4375 11.6286 13.9876 12.2873Q13.5376 12.946 12.7621 13.3239Q11.9865 13.7017 10.9972 13.7017Z" />
          </g>
        </g>
        <path d="M0 45.2023C0 23.387 17.6848 5.70227 39.5 5.70227C61.3152 5.70227 79 23.387 79 45.2023C79 67.0175 61.3152 84.7023 39.5 84.7023C17.6848 84.7023 0 67.0175 0 45.2023Z" id="Oval" fill="#B2B2B2" fill-rule="evenodd" stroke="none" />
        <path d="M26 44.7024C26 37.5227 31.8203 31.7024 39 31.7024C46.1797 31.7024 52 37.5227 52 44.7024C52 51.8821 46.1797 57.7024 39 57.7024C31.8203 57.7024 26 51.8821 26 44.7024Z" id="Oval-2" fill="#454545" fill-rule="evenodd" stroke="none" />
        <path d="M34 60.2024C34 57.1648 36.4624 54.7024 39.5 54.7024C42.5376 54.7024 45 57.1648 45 60.2024C45 63.24 42.5376 65.7024 39.5 65.7024C36.4624 65.7024 34 63.24 34 60.2024Z" id="Oval-3" fill="#454545" fill-rule="evenodd" stroke="none" />
        <path d="M20 45.2023C20 42.1648 22.4624 39.7023 25.5 39.7023C28.5376 39.7023 31 42.1648 31 45.2023C31 48.2399 28.5376 50.7023 25.5 50.7023C22.4624 50.7023 20 48.2399 20 45.2023Z" id="Oval-4" fill="#454545" fill-rule="evenodd" stroke="none" />
        <path d="M48 45.2023C48 42.1648 50.4624 39.7023 53.5 39.7023C56.5376 39.7023 59 42.1648 59 45.2023C59 48.2399 56.5376 50.7023 53.5 50.7023C50.4624 50.7023 48 48.2399 48 45.2023Z" id="Oval-5" fill="#454545" fill-rule="evenodd" stroke="none" />
      </g>
      <g id="XLR-14" transform="translate(468 106)">
        <g id="14" transform="translate(69.5 0)">
          <g id="14" fill="#FFFFFF">
            <path d="M4.63352 3.38068L4.63352 13.5625L3.40057 13.5625L3.40057 4.6733L3.34091 4.6733L0.855114 6.32386L0.855114 5.07102L3.40057 3.38068L4.63352 3.38068ZM7.31818 11.4744L7.31818 10.4602L11.7926 3.38068L13.2841 3.38068L13.2841 10.3807L14.6761 10.3807L14.6761 11.4744L13.2841 11.4744L13.2841 13.5625L12.1108 13.5625L12.1108 11.4744L7.31818 11.4744ZM12.1108 10.3807L12.1108 4.9517L12.0312 4.9517L8.65057 10.3011L8.65057 10.3807L12.1108 10.3807Z" />
          </g>
        </g>
        <path d="M0 45.2023C0 23.387 17.6848 5.70227 39.5 5.70227C61.3152 5.70227 79 23.387 79 45.2023C79 67.0175 61.3152 84.7023 39.5 84.7023C17.6848 84.7023 0 67.0175 0 45.2023Z" id="Oval" fill="#B2B2B2" fill-rule="evenodd" stroke="none" />
        <path d="M26 44.7024C26 37.5227 31.8203 31.7024 39 31.7024C46.1797 31.7024 52 37.5227 52 44.7024C52 51.8821 46.1797 57.7024 39 57.7024C31.8203 57.7024 26 51.8821 26 44.7024Z" id="Oval-2" fill="#454545" fill-rule="evenodd" stroke="none" />
        <path d="M34 60.2024C34 57.1648 36.4624 54.7024 39.5 54.7024C42.5376 54.7024 45 57.1648 45 60.2024C45 63.2399 42.5376 65.7024 39.5 65.7024C36.4624 65.7024 34 63.2399 34 60.2024Z" id="Oval-3" fill="#454545" fill-rule="evenodd" stroke="none" />
        <path d="M20 45.2024C20 42.1648 22.4624 39.7024 25.5 39.7024C28.5376 39.7024 31 42.1648 31 45.2024C31 48.2399 28.5376 50.7024 25.5 50.7024C22.4624 50.7024 20 48.2399 20 45.2024Z" id="Oval-4" fill="#454545" fill-rule="evenodd" stroke="none" />
        <path d="M48 45.2024C48 42.1648 50.4624 39.7024 53.5 39.7024C56.5376 39.7024 59 42.1648 59 45.2024C59 48.2399 56.5376 50.7024 53.5 50.7024C50.4624 50.7024 48 48.2399 48 45.2024Z" id="Oval-5" fill="#454545" fill-rule="evenodd" stroke="none" />
      </g>
      <g id="XLR-15" transform="translate(562 96)">
        <g id="15" transform="translate(69.5 10)">
          <g id="15" fill="#FFFFFF">
            <path d="M4.63352 3.38068L4.63352 13.5625L3.40057 13.5625L3.40057 4.6733L3.34091 4.6733L0.855114 6.32386L0.855114 5.07102L3.40057 3.38068L4.63352 3.38068ZM10.7386 13.7017Q9.86364 13.7017 9.16264 13.3537Q8.46165 13.0057 8.03906 12.3991Q7.61648 11.7926 7.5767 11.017L8.76989 11.017Q8.83949 11.7081 9.39879 12.158Q9.9581 12.608 10.7386 12.608Q11.3651 12.608 11.8548 12.3146Q12.3445 12.0213 12.6254 11.5067Q12.9062 10.9922 12.9062 10.3409Q12.9062 9.67472 12.6154 9.15021Q12.3246 8.62571 11.8175 8.32244Q11.3104 8.01918 10.6591 8.0142Q10.1918 8.00923 9.69957 8.1559Q9.20739 8.30256 8.8892 8.53125L7.7358 8.39205L8.35227 3.38068L13.642 3.38068L13.642 4.47443L9.38636 4.47443L9.02841 7.47727L9.08807 7.47727Q9.40128 7.22869 9.87358 7.06463Q10.3459 6.90057 10.858 6.90057Q11.7926 6.90057 12.5259 7.34553Q13.2592 7.79048 13.6793 8.56108Q14.0994 9.33168 14.0994 10.321Q14.0994 11.2955 13.6644 12.0586Q13.2294 12.8217 12.4688 13.2617Q11.7081 13.7017 10.7386 13.7017Z" />
          </g>
        </g>
        <g id="HI-Z" transform="translate(26.999878 0)">
          <g id="HI-Z" fill="#FFFFFF">
            <path d="M1.05682 11.625L1.05682 2.89773L2.11364 2.89773L2.11364 6.78409L6.76705 6.78409L6.76705 2.89773L7.82386 2.89773L7.82386 11.625L6.76705 11.625L6.76705 7.72159L2.11364 7.72159L2.11364 11.625L1.05682 11.625ZM10.9943 2.89773L10.9943 11.625L9.9375 11.625L9.9375 2.89773L10.9943 2.89773ZM16.7216 6.79261L16.7216 7.73011L12.9034 7.73011L12.9034 6.79261L16.7216 6.79261ZM18.3409 11.625L18.3409 10.858L23.0455 3.83523L18.2898 3.83523L18.2898 2.89773L24.3068 2.89773L24.3068 3.66477L19.6023 10.6875L24.358 10.6875L24.358 11.625L18.3409 11.625Z" />
          </g>
        </g>
        <path d="M0 55.2023C0 33.387 17.6848 15.7023 39.5 15.7023C61.3152 15.7023 79 33.387 79 55.2023C79 77.0175 61.3152 94.7023 39.5 94.7023C17.6848 94.7023 0 77.0175 0 55.2023Z" id="Oval" fill="#B2B2B2" fill-rule="evenodd" stroke="none" />
        <path d="M26 54.7024C26 47.5227 31.8203 41.7024 39 41.7024C46.1797 41.7024 52 47.5227 52 54.7024C52 61.8821 46.1797 67.7024 39 67.7024C31.8203 67.7024 26 61.8821 26 54.7024Z" id="Oval-2" fill="#454545" fill-rule="evenodd" stroke="none" />
        <path d="M34 70.2024C34 67.1648 36.4624 64.7024 39.5 64.7024C42.5376 64.7024 45 67.1648 45 70.2024C45 73.2399 42.5376 75.7024 39.5 75.7024C36.4624 75.7024 34 73.2399 34 70.2024Z" id="Oval-3" fill="#454545" fill-rule="evenodd" stroke="none" />
        <path d="M20 55.2024C20 52.1648 22.4624 49.7024 25.5 49.7024C28.5376 49.7024 31 52.1648 31 55.2024C31 58.2399 28.5376 60.7024 25.5 60.7024C22.4624 60.7024 20 58.2399 20 55.2024Z" id="Oval-4" fill="#454545" fill-rule="evenodd" stroke="none" />
        <path d="M48 55.2024C48 52.1648 50.4624 49.7024 53.5 49.7024C56.5376 49.7024 59 52.1648 59 55.2024C59 58.2399 56.5376 60.7024 53.5 60.7024C50.4624 60.7024 48 58.2399 48 55.2024Z" id="Oval-5" fill="#454545" fill-rule="evenodd" stroke="none" />
      </g>
      <g id="XLR-16" transform="translate(656 96)">
        <g id="16" transform="translate(69.5 10)">
          <g id="16" fill="#FFFFFF">
            <path d="M4.63352 3.38068L4.63352 13.5625L3.40057 13.5625L3.40057 4.6733L3.34091 4.6733L0.855114 6.32386L0.855114 5.07102L3.40057 3.38068L4.63352 3.38068ZM10.9375 13.7017Q10.3111 13.6918 9.68466 13.4631Q9.05824 13.2344 8.54119 12.69Q8.02415 12.1456 7.71094 11.2134Q7.39773 10.2812 7.39773 8.86932Q7.39773 6.16974 8.38707 4.70561Q9.37642 3.24148 11.0966 3.24148Q11.9517 3.24148 12.6204 3.58203Q13.2891 3.92259 13.7116 4.52912Q14.1342 5.13565 14.2585 5.92614L13.0455 5.92614Q12.8764 5.24006 12.3892 4.78764Q11.902 4.33523 11.0966 4.33523Q9.91335 4.33523 9.23473 5.36435Q8.55611 6.39347 8.55114 8.25284L8.63068 8.25284Q9.0483 7.62145 9.69957 7.26101Q10.3509 6.90057 11.1364 6.90057Q12.0114 6.90057 12.7372 7.33558Q13.4631 7.7706 13.9006 8.53374Q14.3381 9.29688 14.3381 10.2812Q14.3381 11.2259 13.9155 12.0089Q13.4929 12.7919 12.7298 13.2518Q11.9666 13.7116 10.9375 13.7017ZM10.9375 12.608Q11.5639 12.608 12.0636 12.2947Q12.5632 11.9815 12.854 11.4545Q13.1449 10.9276 13.1449 10.2812Q13.1449 9.64986 12.864 9.13033Q12.5831 8.6108 12.0934 8.30256Q11.6037 7.99432 10.9773 7.99432Q10.3459 7.99432 9.83878 8.31747Q9.33168 8.64062 9.03338 9.16513Q8.73509 9.68963 8.73011 10.3011Q8.73011 10.9077 9.01598 11.4347Q9.30185 11.9616 9.80149 12.2848Q10.3011 12.608 10.9375 12.608Z" />
          </g>
        </g>
        <g id="HI-Z" transform="translate(27.000061 0)">
          <g id="HI-Z" fill="#FFFFFF">
            <path d="M1.05682 11.625L1.05682 2.89773L2.11364 2.89773L2.11364 6.78409L6.76705 6.78409L6.76705 2.89773L7.82386 2.89773L7.82386 11.625L6.76705 11.625L6.76705 7.72159L2.11364 7.72159L2.11364 11.625L1.05682 11.625ZM10.9943 2.89773L10.9943 11.625L9.9375 11.625L9.9375 2.89773L10.9943 2.89773ZM16.7216 6.79261L16.7216 7.73011L12.9034 7.73011L12.9034 6.79261L16.7216 6.79261ZM18.3409 11.625L18.3409 10.858L23.0455 3.83523L18.2898 3.83523L18.2898 2.89773L24.3068 2.89773L24.3068 3.66477L19.6023 10.6875L24.358 10.6875L24.358 11.625L18.3409 11.625Z" />
          </g>
        </g>
        <path d="M0 55.2023C0 33.387 17.6848 15.7023 39.5 15.7023C61.3152 15.7023 79 33.387 79 55.2023C79 77.0175 61.3152 94.7023 39.5 94.7023C17.6848 94.7023 0 77.0175 0 55.2023Z" id="Oval" fill="#B2B2B2" fill-rule="evenodd" stroke="none" />
        <path d="M26 54.7024C26 47.5227 31.8203 41.7024 39 41.7024C46.1797 41.7024 52 47.5227 52 54.7024C52 61.8821 46.1797 67.7024 39 67.7024C31.8203 67.7024 26 61.8821 26 54.7024Z" id="Oval-2" fill="#454545" fill-rule="evenodd" stroke="none" />
        <path d="M34 70.2024C34 67.1648 36.4624 64.7024 39.5 64.7024C42.5376 64.7024 45 67.1648 45 70.2024C45 73.2399 42.5376 75.7024 39.5 75.7024C36.4624 75.7024 34 73.2399 34 70.2024Z" id="Oval-3" fill="#454545" fill-rule="evenodd" stroke="none" />
        <path d="M20 55.2024C20 52.1648 22.4624 49.7024 25.5 49.7024C28.5376 49.7024 31 52.1648 31 55.2024C31 58.2399 28.5376 60.7024 25.5 60.7024C22.4624 60.7024 20 58.2399 20 55.2024Z" id="Oval-4" fill="#454545" fill-rule="evenodd" stroke="none" />
        <path d="M48 55.2024C48 52.1648 50.4624 49.7024 53.5 49.7024C56.5376 49.7024 59 52.1648 59 55.2024C59 58.2399 56.5376 60.7024 53.5 60.7024C50.4624 60.7024 48 58.2399 48 55.2024Z" id="Oval-5" fill="#454545" fill-rule="evenodd" stroke="none" />
      </g>
    </g>
    <g id="Outputs" transform="translate(250 343.00012)">
      <g id="XLRM">
        <g id="OUT-1" transform="translate(41 0)">
          <g id="OUT-1" fill="#FFFFFF">
            <path d="M9.82386 8.47159Q9.82386 10.0824 9.24219 11.2557Q8.66051 12.429 7.64631 13.0653Q6.6321 13.7017 5.32955 13.7017Q4.02699 13.7017 3.01278 13.0653Q1.99858 12.429 1.4169 11.2557Q0.835227 10.0824 0.835227 8.47159Q0.835227 6.8608 1.4169 5.6875Q1.99858 4.5142 3.01278 3.87784Q4.02699 3.24148 5.32955 3.24148Q6.6321 3.24148 7.64631 3.87784Q8.66051 4.5142 9.24219 5.6875Q9.82386 6.8608 9.82386 8.47159ZM8.63068 8.47159Q8.63068 7.14915 8.1907 6.23935Q7.75071 5.32955 7.00249 4.86222Q6.25426 4.39489 5.32955 4.39489Q4.40483 4.39489 3.65661 4.86222Q2.90838 5.32955 2.46839 6.23935Q2.02841 7.14915 2.02841 8.47159Q2.02841 9.79403 2.46839 10.7038Q2.90838 11.6136 3.65661 12.081Q4.40483 12.5483 5.32955 12.5483Q6.25426 12.5483 7.00249 12.081Q7.75071 11.6136 8.1907 10.7038Q8.63068 9.79403 8.63068 8.47159ZM18.5739 3.38068L19.8068 3.38068L19.8068 10.1222Q19.8068 11.1662 19.3171 11.984Q18.8274 12.8018 17.9375 13.2717Q17.0476 13.7415 15.8494 13.7415Q14.6513 13.7415 13.7614 13.2717Q12.8714 12.8018 12.3817 11.984Q11.892 11.1662 11.892 10.1222L11.892 3.38068L13.125 3.38068L13.125 10.0227Q13.125 11.1413 13.8509 11.8647Q14.5767 12.5881 15.8494 12.5881Q17.1271 12.5881 17.8505 11.8647Q18.5739 11.1413 18.5739 10.0227L18.5739 3.38068ZM21.7159 4.47443L21.7159 3.38068L29.3523 3.38068L29.3523 4.47443L26.1506 4.47443L26.1506 13.5625L24.9176 13.5625L24.9176 4.47443L21.7159 4.47443ZM38.5994 3.38068L38.5994 13.5625L37.3665 13.5625L37.3665 4.6733L37.3068 4.6733L34.821 6.32386L34.821 5.07102L37.3665 3.38068L38.5994 3.38068Z" />
          </g>
        </g>
        <path d="M0 54.5C0 33.7893 16.7893 17 37.5 17C58.2107 17 75 33.7893 75 54.5C75 75.2107 58.2107 92 37.5 92C16.7893 92 0 75.2107 0 54.5Z" id="Oval" fill="#454545" fill-rule="evenodd" stroke="none" />
        <path d="M20 55C20 53.3431 21.3431 52 23 52C24.6569 52 26 53.3431 26 55C26 56.6569 24.6569 58 23 58C21.3431 58 20 56.6569 20 55Z" id="Oval-2" fill="#B2B2B2" fill-rule="evenodd" stroke="none" />
        <path d="M48 55C48 53.3431 49.3431 52 51 52C52.6569 52 54 53.3431 54 55C54 56.6569 52.6569 58 51 58C49.3431 58 48 56.6569 48 55Z" id="Oval-3" fill="#B2B2B2" fill-rule="evenodd" stroke="none" />
        <path d="M34 41.0001C34 39.3433 35.3431 38.0001 37 38.0001C38.6569 38.0001 40 39.3433 40 41.0001C40 42.657 38.6569 44.0001 37 44.0001C35.3431 44.0001 34 42.657 34 41.0001Z" id="Oval-4" fill="#B2B2B2" fill-rule="evenodd" stroke="none" />
      </g>
      <g id="XLRM-2" transform="translate(94 0)">
        <g id="OUT-2" transform="translate(40 0)">
          <g id="OUT-2" fill="#FFFFFF">
            <path d="M9.82386 8.47159Q9.82386 10.0824 9.24219 11.2557Q8.66051 12.429 7.64631 13.0653Q6.6321 13.7017 5.32955 13.7017Q4.02699 13.7017 3.01278 13.0653Q1.99858 12.429 1.4169 11.2557Q0.835227 10.0824 0.835227 8.47159Q0.835227 6.8608 1.4169 5.6875Q1.99858 4.5142 3.01278 3.87784Q4.02699 3.24148 5.32955 3.24148Q6.6321 3.24148 7.64631 3.87784Q8.66051 4.5142 9.24219 5.6875Q9.82386 6.8608 9.82386 8.47159ZM8.63068 8.47159Q8.63068 7.14915 8.1907 6.23935Q7.75071 5.32955 7.00249 4.86222Q6.25426 4.39489 5.32955 4.39489Q4.40483 4.39489 3.65661 4.86222Q2.90838 5.32955 2.46839 6.23935Q2.02841 7.14915 2.02841 8.47159Q2.02841 9.79403 2.46839 10.7038Q2.90838 11.6136 3.65661 12.081Q4.40483 12.5483 5.32955 12.5483Q6.25426 12.5483 7.00249 12.081Q7.75071 11.6136 8.1907 10.7038Q8.63068 9.79403 8.63068 8.47159ZM18.5739 3.38068L19.8068 3.38068L19.8068 10.1222Q19.8068 11.1662 19.3171 11.984Q18.8274 12.8018 17.9375 13.2717Q17.0476 13.7415 15.8494 13.7415Q14.6513 13.7415 13.7614 13.2717Q12.8714 12.8018 12.3817 11.984Q11.892 11.1662 11.892 10.1222L11.892 3.38068L13.125 3.38068L13.125 10.0227Q13.125 11.1413 13.8509 11.8647Q14.5767 12.5881 15.8494 12.5881Q17.1271 12.5881 17.8505 11.8647Q18.5739 11.1413 18.5739 10.0227L18.5739 3.38068ZM21.7159 4.47443L21.7159 3.38068L29.3523 3.38068L29.3523 4.47443L26.1506 4.47443L26.1506 13.5625L24.9176 13.5625L24.9176 4.47443L21.7159 4.47443ZM35.0199 13.5625L35.0199 12.6676L38.3807 8.98864Q38.9723 8.34233 39.3551 7.86257Q39.7379 7.38281 39.9244 6.95774Q40.1108 6.53267 40.1108 6.06534Q40.1108 5.25994 39.5515 4.78764Q38.9922 4.31534 38.1619 4.31534Q37.277 4.31534 36.755 4.84482Q36.233 5.37429 36.233 6.24432L35.0597 6.24432Q35.0597 5.34943 35.4723 4.6733Q35.8849 3.99716 36.5984 3.61932Q37.3118 3.24148 38.2017 3.24148Q39.0966 3.24148 39.7876 3.61932Q40.4787 3.99716 40.8714 4.63849Q41.2642 5.27983 41.2642 6.06534Q41.2642 6.62713 41.0629 7.16158Q40.8615 7.69602 40.3668 8.34979Q39.8722 9.00355 38.9972 9.94318L36.7102 12.3892L36.7102 12.4688L41.4432 12.4688L41.4432 13.5625L35.0199 13.5625Z" />
          </g>
        </g>
        <path d="M0 54.5C0 33.7893 16.7893 17 37.5 17C58.2107 17 75 33.7893 75 54.5C75 75.2107 58.2107 92 37.5 92C16.7893 92 0 75.2107 0 54.5Z" id="Oval" fill="#454545" fill-rule="evenodd" stroke="none" />
        <path d="M20 55C20 53.3431 21.3431 52 23 52C24.6569 52 26 53.3431 26 55C26 56.6569 24.6569 58 23 58C21.3431 58 20 56.6569 20 55Z" id="Oval-2" fill="#B2B2B2" fill-rule="evenodd" stroke="none" />
        <path d="M48 55C48 53.3431 49.3431 52 51 52C52.6569 52 54 53.3431 54 55C54 56.6569 52.6569 58 51 58C49.3431 58 48 56.6569 48 55Z" id="Oval-3" fill="#B2B2B2" fill-rule="evenodd" stroke="none" />
        <path d="M34 41.0001C34 39.3433 35.3431 38.0001 37 38.0001C38.6569 38.0001 40 39.3433 40 41.0001C40 42.657 38.6569 44.0001 37 44.0001C35.3431 44.0001 34 42.657 34 41.0001Z" id="Oval-4" fill="#B2B2B2" fill-rule="evenodd" stroke="none" />
      </g>
      <g id="XLRM-3" transform="translate(188 0)">
        <g id="OUT-3" transform="translate(39.5 0)">
          <g id="OUT-3" fill="#FFFFFF">
            <path d="M9.82386 8.47159Q9.82386 10.0824 9.24219 11.2557Q8.66051 12.429 7.64631 13.0653Q6.6321 13.7017 5.32955 13.7017Q4.02699 13.7017 3.01278 13.0653Q1.99858 12.429 1.4169 11.2557Q0.835227 10.0824 0.835227 8.47159Q0.835227 6.8608 1.4169 5.6875Q1.99858 4.5142 3.01278 3.87784Q4.02699 3.24148 5.32955 3.24148Q6.6321 3.24148 7.64631 3.87784Q8.66051 4.5142 9.24219 5.6875Q9.82386 6.8608 9.82386 8.47159ZM8.63068 8.47159Q8.63068 7.14915 8.1907 6.23935Q7.75071 5.32955 7.00249 4.86222Q6.25426 4.39489 5.32955 4.39489Q4.40483 4.39489 3.65661 4.86222Q2.90838 5.32955 2.46839 6.23935Q2.02841 7.14915 2.02841 8.47159Q2.02841 9.79403 2.46839 10.7038Q2.90838 11.6136 3.65661 12.081Q4.40483 12.5483 5.32955 12.5483Q6.25426 12.5483 7.00249 12.081Q7.75071 11.6136 8.1907 10.7038Q8.63068 9.79403 8.63068 8.47159ZM18.5739 3.38068L19.8068 3.38068L19.8068 10.1222Q19.8068 11.1662 19.3171 11.984Q18.8274 12.8018 17.9375 13.2717Q17.0476 13.7415 15.8494 13.7415Q14.6513 13.7415 13.7614 13.2717Q12.8714 12.8018 12.3817 11.984Q11.892 11.1662 11.892 10.1222L11.892 3.38068L13.125 3.38068L13.125 10.0227Q13.125 11.1413 13.8509 11.8647Q14.5767 12.5881 15.8494 12.5881Q17.1271 12.5881 17.8505 11.8647Q18.5739 11.1413 18.5739 10.0227L18.5739 3.38068ZM21.7159 4.47443L21.7159 3.38068L29.3523 3.38068L29.3523 4.47443L26.1506 4.47443L26.1506 13.5625L24.9176 13.5625L24.9176 4.47443L21.7159 4.47443ZM38.4602 13.7017Q37.4759 13.7017 36.7077 13.3636Q35.9396 13.0256 35.4897 12.4215Q35.0398 11.8175 35 11.017L36.2528 11.017Q36.3075 11.7528 36.9315 12.1804Q37.5554 12.608 38.4403 12.608Q39.4197 12.608 40.0536 12.1083Q40.6875 11.6087 40.6875 10.7983Q40.6875 9.95312 40.0636 9.42117Q39.4396 8.8892 38.2812 8.8892L37.4659 8.8892L37.4659 7.79545L38.2812 7.79545Q39.1861 7.79545 39.7578 7.31321Q40.3295 6.83097 40.3295 6.02557Q40.3295 5.25497 39.8274 4.78516Q39.3253 4.31534 38.4801 4.31534Q37.9531 4.31534 37.4883 4.50675Q37.0234 4.69815 36.7301 5.05859Q36.4368 5.41903 36.4119 5.92614L35.2188 5.92614Q35.2486 5.12571 35.701 4.52166Q36.1534 3.91761 36.8867 3.57955Q37.62 3.24148 38.5 3.24148Q39.4446 3.24148 40.1207 3.6218Q40.7969 4.00213 41.1598 4.62358Q41.5227 5.24503 41.5227 5.96591Q41.5227 6.82599 41.0728 7.43253Q40.6229 8.03906 39.8523 8.27273L39.8523 8.35227Q40.8168 8.51136 41.3587 9.1701Q41.9006 9.82884 41.9006 10.7983Q41.9006 11.6286 41.4506 12.2873Q41.0007 12.946 40.2251 13.3239Q39.4496 13.7017 38.4602 13.7017Z" />
          </g>
        </g>
        <path d="M0 54.5C0 33.7893 16.7893 17 37.5 17C58.2107 17 75 33.7893 75 54.5C75 75.2107 58.2107 92 37.5 92C16.7893 92 0 75.2107 0 54.5Z" id="Oval" fill="#454545" fill-rule="evenodd" stroke="none" />
        <path d="M20 55C20 53.3431 21.3431 52 23 52C24.6569 52 26 53.3431 26 55C26 56.6569 24.6569 58 23 58C21.3431 58 20 56.6569 20 55Z" id="Oval-2" fill="#B2B2B2" fill-rule="evenodd" stroke="none" />
        <path d="M48 55C48 53.3431 49.3431 52 51 52C52.6569 52 54 53.3431 54 55C54 56.6569 52.6569 58 51 58C49.3431 58 48 56.6569 48 55Z" id="Oval-3" fill="#B2B2B2" fill-rule="evenodd" stroke="none" />
        <path d="M34 41.0001C34 39.3433 35.3431 38.0001 37 38.0001C38.6569 38.0001 40 39.3433 40 41.0001C40 42.657 38.6569 44.0001 37 44.0001C35.3431 44.0001 34 42.657 34 41.0001Z" id="Oval-4" fill="#B2B2B2" fill-rule="evenodd" stroke="none" />
      </g>
      <g id="XLRM-4" transform="translate(282 0)">
        <g id="OUT-4" transform="translate(39.5 0)">
          <g id="OUT-4" fill="#FFFFFF">
            <path d="M9.82386 8.47159Q9.82386 10.0824 9.24219 11.2557Q8.66051 12.429 7.64631 13.0653Q6.6321 13.7017 5.32955 13.7017Q4.02699 13.7017 3.01278 13.0653Q1.99858 12.429 1.4169 11.2557Q0.835227 10.0824 0.835227 8.47159Q0.835227 6.8608 1.4169 5.6875Q1.99858 4.5142 3.01278 3.87784Q4.02699 3.24148 5.32955 3.24148Q6.6321 3.24148 7.64631 3.87784Q8.66051 4.5142 9.24219 5.6875Q9.82386 6.8608 9.82386 8.47159ZM8.63068 8.47159Q8.63068 7.14915 8.1907 6.23935Q7.75071 5.32955 7.00249 4.86222Q6.25426 4.39489 5.32955 4.39489Q4.40483 4.39489 3.65661 4.86222Q2.90838 5.32955 2.46839 6.23935Q2.02841 7.14915 2.02841 8.47159Q2.02841 9.79403 2.46839 10.7038Q2.90838 11.6136 3.65661 12.081Q4.40483 12.5483 5.32955 12.5483Q6.25426 12.5483 7.00249 12.081Q7.75071 11.6136 8.1907 10.7038Q8.63068 9.79403 8.63068 8.47159ZM18.5739 3.38068L19.8068 3.38068L19.8068 10.1222Q19.8068 11.1662 19.3171 11.984Q18.8274 12.8018 17.9375 13.2717Q17.0476 13.7415 15.8494 13.7415Q14.6513 13.7415 13.7614 13.2717Q12.8714 12.8018 12.3817 11.984Q11.892 11.1662 11.892 10.1222L11.892 3.38068L13.125 3.38068L13.125 10.0227Q13.125 11.1413 13.8509 11.8647Q14.5767 12.5881 15.8494 12.5881Q17.1271 12.5881 17.8505 11.8647Q18.5739 11.1413 18.5739 10.0227L18.5739 3.38068ZM21.7159 4.47443L21.7159 3.38068L29.3523 3.38068L29.3523 4.47443L26.1506 4.47443L26.1506 13.5625L24.9176 13.5625L24.9176 4.47443L21.7159 4.47443ZM34.7812 11.4744L34.7812 10.4602L39.2557 3.38068L40.7472 3.38068L40.7472 10.3807L42.1392 10.3807L42.1392 11.4744L40.7472 11.4744L40.7472 13.5625L39.5739 13.5625L39.5739 11.4744L34.7812 11.4744ZM39.5739 10.3807L39.5739 4.9517L39.4943 4.9517L36.1136 10.3011L36.1136 10.3807L39.5739 10.3807Z" />
          </g>
        </g>
        <path d="M0 54.5C0 33.7893 16.7893 17 37.5 17C58.2107 17 75 33.7893 75 54.5C75 75.2107 58.2107 92 37.5 92C16.7893 92 0 75.2107 0 54.5Z" id="Oval" fill="#454545" fill-rule="evenodd" stroke="none" />
        <path d="M20 55C20 53.3431 21.3431 52 23 52C24.6569 52 26 53.3431 26 55C26 56.6569 24.6569 58 23 58C21.3431 58 20 56.6569 20 55Z" id="Oval-2" fill="#B2B2B2" fill-rule="evenodd" stroke="none" />
        <path d="M48 55C48 53.3431 49.3431 52 51 52C52.6569 52 54 53.3431 54 55C54 56.6569 52.6569 58 51 58C49.3431 58 48 56.6569 48 55Z" id="Oval-3" fill="#B2B2B2" fill-rule="evenodd" stroke="none" />
        <path d="M34 41.0001C34 39.3433 35.3431 38.0001 37 38.0001C38.6569 38.0001 40 39.3433 40 41.0001C40 42.657 38.6569 44.0001 37 44.0001C35.3431 44.0001 34 42.657 34 41.0001Z" id="Oval-4" fill="#B2B2B2" fill-rule="evenodd" stroke="none" />
      </g>
      <g id="XLRM-5" transform="translate(376 0)">
        <g id="OUT-5" transform="translate(40 0)">
          <g id="OUT-5" fill="#FFFFFF">
            <path d="M9.82386 8.47159Q9.82386 10.0824 9.24219 11.2557Q8.66051 12.429 7.64631 13.0653Q6.6321 13.7017 5.32955 13.7017Q4.02699 13.7017 3.01278 13.0653Q1.99858 12.429 1.4169 11.2557Q0.835227 10.0824 0.835227 8.47159Q0.835227 6.8608 1.4169 5.6875Q1.99858 4.5142 3.01278 3.87784Q4.02699 3.24148 5.32955 3.24148Q6.6321 3.24148 7.64631 3.87784Q8.66051 4.5142 9.24219 5.6875Q9.82386 6.8608 9.82386 8.47159ZM8.63068 8.47159Q8.63068 7.14915 8.1907 6.23935Q7.75071 5.32955 7.00249 4.86222Q6.25426 4.39489 5.32955 4.39489Q4.40483 4.39489 3.65661 4.86222Q2.90838 5.32955 2.46839 6.23935Q2.02841 7.14915 2.02841 8.47159Q2.02841 9.79403 2.46839 10.7038Q2.90838 11.6136 3.65661 12.081Q4.40483 12.5483 5.32955 12.5483Q6.25426 12.5483 7.00249 12.081Q7.75071 11.6136 8.1907 10.7038Q8.63068 9.79403 8.63068 8.47159ZM18.5739 3.38068L19.8068 3.38068L19.8068 10.1222Q19.8068 11.1662 19.3171 11.984Q18.8274 12.8018 17.9375 13.2717Q17.0476 13.7415 15.8494 13.7415Q14.6513 13.7415 13.7614 13.2717Q12.8714 12.8018 12.3817 11.984Q11.892 11.1662 11.892 10.1222L11.892 3.38068L13.125 3.38068L13.125 10.0227Q13.125 11.1413 13.8509 11.8647Q14.5767 12.5881 15.8494 12.5881Q17.1271 12.5881 17.8505 11.8647Q18.5739 11.1413 18.5739 10.0227L18.5739 3.38068ZM21.7159 4.47443L21.7159 3.38068L29.3523 3.38068L29.3523 4.47443L26.1506 4.47443L26.1506 13.5625L24.9176 13.5625L24.9176 4.47443L21.7159 4.47443ZM38.2017 13.7017Q37.3267 13.7017 36.6257 13.3537Q35.9247 13.0057 35.5021 12.3991Q35.0795 11.7926 35.0398 11.017L36.233 11.017Q36.3026 11.7081 36.8619 12.158Q37.4212 12.608 38.2017 12.608Q38.8281 12.608 39.3178 12.3146Q39.8075 12.0213 40.0884 11.5067Q40.3693 10.9922 40.3693 10.3409Q40.3693 9.67472 40.0785 9.15021Q39.7876 8.62571 39.2805 8.32244Q38.7734 8.01918 38.1222 8.0142Q37.6548 8.00923 37.1626 8.1559Q36.6705 8.30256 36.3523 8.53125L35.1989 8.39205L35.8153 3.38068L41.1051 3.38068L41.1051 4.47443L36.8494 4.47443L36.4915 7.47727L36.5511 7.47727Q36.8643 7.22869 37.3366 7.06463Q37.8089 6.90057 38.321 6.90057Q39.2557 6.90057 39.989 7.34553Q40.7223 7.79048 41.1424 8.56108Q41.5625 9.33168 41.5625 10.321Q41.5625 11.2955 41.1275 12.0586Q40.6925 12.8217 39.9318 13.2617Q39.1712 13.7017 38.2017 13.7017Z" />
          </g>
        </g>
        <path d="M0 54.5C0 33.7893 16.7893 17 37.5 17C58.2107 17 75 33.7893 75 54.5C75 75.2107 58.2107 92 37.5 92C16.7893 92 0 75.2107 0 54.5Z" id="Oval" fill="#454545" fill-rule="evenodd" stroke="none" />
        <path d="M20 55C20 53.3431 21.3431 52 23 52C24.6569 52 26 53.3431 26 55C26 56.6569 24.6569 58 23 58C21.3431 58 20 56.6569 20 55Z" id="Oval-2" fill="#B2B2B2" fill-rule="evenodd" stroke="none" />
        <path d="M48 55C48 53.3431 49.3431 52 51 52C52.6569 52 54 53.3431 54 55C54 56.6569 52.6569 58 51 58C49.3431 58 48 56.6569 48 55Z" id="Oval-3" fill="#B2B2B2" fill-rule="evenodd" stroke="none" />
        <path d="M34 41.0001C34 39.3433 35.3431 38.0001 37 38.0001C38.6569 38.0001 40 39.3433 40 41.0001C40 42.657 38.6569 44.0001 37 44.0001C35.3431 44.0001 34 42.657 34 41.0001Z" id="Oval-4" fill="#B2B2B2" fill-rule="evenodd" stroke="none" />
      </g>
      <g id="XLRM-6" transform="translate(470 0)">
        <g id="OUT-6" transform="translate(39.5 0)">
          <g id="OUT-6" fill="#FFFFFF">
            <path d="M9.82386 8.47159Q9.82386 10.0824 9.24219 11.2557Q8.66051 12.429 7.64631 13.0653Q6.6321 13.7017 5.32955 13.7017Q4.02699 13.7017 3.01278 13.0653Q1.99858 12.429 1.4169 11.2557Q0.835227 10.0824 0.835227 8.47159Q0.835227 6.8608 1.4169 5.6875Q1.99858 4.5142 3.01278 3.87784Q4.02699 3.24148 5.32955 3.24148Q6.6321 3.24148 7.64631 3.87784Q8.66051 4.5142 9.24219 5.6875Q9.82386 6.8608 9.82386 8.47159ZM8.63068 8.47159Q8.63068 7.14915 8.1907 6.23935Q7.75071 5.32955 7.00249 4.86222Q6.25426 4.39489 5.32955 4.39489Q4.40483 4.39489 3.65661 4.86222Q2.90838 5.32955 2.46839 6.23935Q2.02841 7.14915 2.02841 8.47159Q2.02841 9.79403 2.46839 10.7038Q2.90838 11.6136 3.65661 12.081Q4.40483 12.5483 5.32955 12.5483Q6.25426 12.5483 7.00249 12.081Q7.75071 11.6136 8.1907 10.7038Q8.63068 9.79403 8.63068 8.47159ZM18.5739 3.38068L19.8068 3.38068L19.8068 10.1222Q19.8068 11.1662 19.3171 11.984Q18.8274 12.8018 17.9375 13.2717Q17.0476 13.7415 15.8494 13.7415Q14.6513 13.7415 13.7614 13.2717Q12.8714 12.8018 12.3817 11.984Q11.892 11.1662 11.892 10.1222L11.892 3.38068L13.125 3.38068L13.125 10.0227Q13.125 11.1413 13.8509 11.8647Q14.5767 12.5881 15.8494 12.5881Q17.1271 12.5881 17.8505 11.8647Q18.5739 11.1413 18.5739 10.0227L18.5739 3.38068ZM21.7159 4.47443L21.7159 3.38068L29.3523 3.38068L29.3523 4.47443L26.1506 4.47443L26.1506 13.5625L24.9176 13.5625L24.9176 4.47443L21.7159 4.47443ZM38.4006 13.7017Q37.7741 13.6918 37.1477 13.4631Q36.5213 13.2344 36.0043 12.69Q35.4872 12.1456 35.174 11.2134Q34.8608 10.2812 34.8608 8.86932Q34.8608 6.16974 35.8501 4.70561Q36.8395 3.24148 38.5597 3.24148Q39.4148 3.24148 40.0835 3.58203Q40.7521 3.92259 41.1747 4.52912Q41.5973 5.13565 41.7216 5.92614L40.5085 5.92614Q40.3395 5.24006 39.8523 4.78764Q39.3651 4.33523 38.5597 4.33523Q37.3764 4.33523 36.6978 5.36435Q36.0192 6.39347 36.0142 8.25284L36.0938 8.25284Q36.5114 7.62145 37.1626 7.26101Q37.8139 6.90057 38.5994 6.90057Q39.4744 6.90057 40.2003 7.33558Q40.9261 7.7706 41.3636 8.53374Q41.8011 9.29688 41.8011 10.2812Q41.8011 11.2259 41.3786 12.0089Q40.956 12.7919 40.1928 13.2518Q39.4297 13.7116 38.4006 13.7017ZM38.4006 12.608Q39.027 12.608 39.5266 12.2947Q40.0263 11.9815 40.3171 11.4545Q40.608 10.9276 40.608 10.2812Q40.608 9.64986 40.3271 9.13033Q40.0462 8.6108 39.5565 8.30256Q39.0668 7.99432 38.4403 7.99432Q37.8089 7.99432 37.3018 8.31747Q36.7947 8.64062 36.4964 9.16513Q36.1982 9.68963 36.1932 10.3011Q36.1932 10.9077 36.479 11.4347Q36.7649 11.9616 37.2646 12.2848Q37.7642 12.608 38.4006 12.608Z" />
          </g>
        </g>
        <path d="M0 54.5C0 33.7893 16.7893 17 37.5 17C58.2107 17 75 33.7893 75 54.5C75 75.2107 58.2107 92 37.5 92C16.7893 92 0 75.2107 0 54.5Z" id="Oval" fill="#454545" fill-rule="evenodd" stroke="none" />
        <path d="M20 55C20 53.3431 21.3431 52 23 52C24.6569 52 26 53.3431 26 55C26 56.6569 24.6569 58 23 58C21.3431 58 20 56.6569 20 55Z" id="Oval-2" fill="#B2B2B2" fill-rule="evenodd" stroke="none" />
        <path d="M48 55C48 53.3431 49.3431 52 51 52C52.6569 52 54 53.3431 54 55C54 56.6569 52.6569 58 51 58C49.3431 58 48 56.6569 48 55Z" id="Oval-3" fill="#B2B2B2" fill-rule="evenodd" stroke="none" />
        <path d="M34 41.0001C34 39.3433 35.3431 38.0001 37 38.0001C38.6569 38.0001 40 39.3433 40 41.0001C40 42.657 38.6569 44.0001 37 44.0001C35.3431 44.0001 34 42.657 34 41.0001Z" id="Oval-4" fill="#B2B2B2" fill-rule="evenodd" stroke="none" />
      </g>
      <g id="XLRM-7" transform="translate(564 0)">
        <g id="OUT-7" transform="translate(40 0)">
          <g id="OUT-7" fill="#FFFFFF">
            <path d="M9.82386 8.47159Q9.82386 10.0824 9.24219 11.2557Q8.66051 12.429 7.64631 13.0653Q6.6321 13.7017 5.32955 13.7017Q4.02699 13.7017 3.01278 13.0653Q1.99858 12.429 1.4169 11.2557Q0.835227 10.0824 0.835227 8.47159Q0.835227 6.8608 1.4169 5.6875Q1.99858 4.5142 3.01278 3.87784Q4.02699 3.24148 5.32955 3.24148Q6.6321 3.24148 7.64631 3.87784Q8.66051 4.5142 9.24219 5.6875Q9.82386 6.8608 9.82386 8.47159ZM8.63068 8.47159Q8.63068 7.14915 8.1907 6.23935Q7.75071 5.32955 7.00249 4.86222Q6.25426 4.39489 5.32955 4.39489Q4.40483 4.39489 3.65661 4.86222Q2.90838 5.32955 2.46839 6.23935Q2.02841 7.14915 2.02841 8.47159Q2.02841 9.79403 2.46839 10.7038Q2.90838 11.6136 3.65661 12.081Q4.40483 12.5483 5.32955 12.5483Q6.25426 12.5483 7.00249 12.081Q7.75071 11.6136 8.1907 10.7038Q8.63068 9.79403 8.63068 8.47159ZM18.5739 3.38068L19.8068 3.38068L19.8068 10.1222Q19.8068 11.1662 19.3171 11.984Q18.8274 12.8018 17.9375 13.2717Q17.0476 13.7415 15.8494 13.7415Q14.6513 13.7415 13.7614 13.2717Q12.8714 12.8018 12.3817 11.984Q11.892 11.1662 11.892 10.1222L11.892 3.38068L13.125 3.38068L13.125 10.0227Q13.125 11.1413 13.8509 11.8647Q14.5767 12.5881 15.8494 12.5881Q17.1271 12.5881 17.8505 11.8647Q18.5739 11.1413 18.5739 10.0227L18.5739 3.38068ZM21.7159 4.47443L21.7159 3.38068L29.3523 3.38068L29.3523 4.47443L26.1506 4.47443L26.1506 13.5625L24.9176 13.5625L24.9176 4.47443L21.7159 4.47443ZM35.3381 13.5625L39.892 4.55398L39.892 4.47443L34.642 4.47443L34.642 3.38068L41.1648 3.38068L41.1648 4.53409L36.6307 13.5625L35.3381 13.5625Z" />
          </g>
        </g>
        <path d="M0 54.5C0 33.7893 16.7893 17 37.5 17C58.2107 17 75 33.7893 75 54.5C75 75.2107 58.2107 92 37.5 92C16.7893 92 0 75.2107 0 54.5Z" id="Oval" fill="#454545" fill-rule="evenodd" stroke="none" />
        <path d="M20 55C20 53.3431 21.3431 52 23 52C24.6569 52 26 53.3431 26 55C26 56.6569 24.6569 58 23 58C21.3431 58 20 56.6569 20 55Z" id="Oval-2" fill="#B2B2B2" fill-rule="evenodd" stroke="none" />
        <path d="M48 55C48 53.3431 49.3431 52 51 52C52.6569 52 54 53.3431 54 55C54 56.6569 52.6569 58 51 58C49.3431 58 48 56.6569 48 55Z" id="Oval-3" fill="#B2B2B2" fill-rule="evenodd" stroke="none" />
        <path d="M34 41.0001C34 39.3433 35.3431 38.0001 37 38.0001C38.6569 38.0001 40 39.3433 40 41.0001C40 42.657 38.6569 44.0001 37 44.0001C35.3431 44.0001 34 42.657 34 41.0001Z" id="Oval-4" fill="#B2B2B2" fill-rule="evenodd" stroke="none" />
      </g>
      <g id="XLRM-8" transform="translate(658 0)">
        <g id="OUT-8" transform="translate(39.5 0)">
          <g id="OUT-8" fill="#FFFFFF">
            <path d="M9.82386 8.47159Q9.82386 10.0824 9.24219 11.2557Q8.66051 12.429 7.64631 13.0653Q6.6321 13.7017 5.32955 13.7017Q4.02699 13.7017 3.01278 13.0653Q1.99858 12.429 1.4169 11.2557Q0.835227 10.0824 0.835227 8.47159Q0.835227 6.8608 1.4169 5.6875Q1.99858 4.5142 3.01278 3.87784Q4.02699 3.24148 5.32955 3.24148Q6.6321 3.24148 7.64631 3.87784Q8.66051 4.5142 9.24219 5.6875Q9.82386 6.8608 9.82386 8.47159ZM8.63068 8.47159Q8.63068 7.14915 8.1907 6.23935Q7.75071 5.32955 7.00249 4.86222Q6.25426 4.39489 5.32955 4.39489Q4.40483 4.39489 3.65661 4.86222Q2.90838 5.32955 2.46839 6.23935Q2.02841 7.14915 2.02841 8.47159Q2.02841 9.79403 2.46839 10.7038Q2.90838 11.6136 3.65661 12.081Q4.40483 12.5483 5.32955 12.5483Q6.25426 12.5483 7.00249 12.081Q7.75071 11.6136 8.1907 10.7038Q8.63068 9.79403 8.63068 8.47159ZM18.5739 3.38068L19.8068 3.38068L19.8068 10.1222Q19.8068 11.1662 19.3171 11.984Q18.8274 12.8018 17.9375 13.2717Q17.0476 13.7415 15.8494 13.7415Q14.6513 13.7415 13.7614 13.2717Q12.8714 12.8018 12.3817 11.984Q11.892 11.1662 11.892 10.1222L11.892 3.38068L13.125 3.38068L13.125 10.0227Q13.125 11.1413 13.8509 11.8647Q14.5767 12.5881 15.8494 12.5881Q17.1271 12.5881 17.8505 11.8647Q18.5739 11.1413 18.5739 10.0227L18.5739 3.38068ZM21.7159 4.47443L21.7159 3.38068L29.3523 3.38068L29.3523 4.47443L26.1506 4.47443L26.1506 13.5625L24.9176 13.5625L24.9176 4.47443L21.7159 4.47443ZM38.2812 13.7017Q37.2571 13.7017 36.4741 13.3363Q35.6911 12.9709 35.2536 12.3271Q34.8161 11.6832 34.821 10.858Q34.8161 10.2116 35.0746 9.66229Q35.3331 9.11293 35.783 8.74254Q36.233 8.37216 36.7898 8.27273L36.7898 8.21307Q36.0589 8.02415 35.6264 7.39027Q35.1939 6.75639 35.1989 5.94602Q35.1939 5.17045 35.5916 4.55895Q35.9893 3.94744 36.6879 3.59446Q37.3864 3.24148 38.2812 3.24148Q39.1662 3.24148 39.8622 3.59446Q40.5582 3.94744 40.9585 4.55895Q41.3587 5.17045 41.3636 5.94602Q41.3587 6.75639 40.9236 7.39027Q40.4886 8.02415 39.7727 8.21307L39.7727 8.27273Q40.3246 8.37216 40.767 8.74254Q41.2095 9.11293 41.473 9.66229Q41.7365 10.2116 41.7415 10.858Q41.7365 11.6832 41.2965 12.3271Q40.8565 12.9709 40.0785 13.3363Q39.3004 13.7017 38.2812 13.7017ZM38.2812 12.608Q39.3153 12.608 39.9194 12.1133Q40.5234 11.6186 40.5284 10.7983Q40.5234 10.2216 40.2301 9.77912Q39.9368 9.33665 39.4322 9.0831Q38.9276 8.82955 38.2812 8.82955Q37.63 8.82955 37.1204 9.0831Q36.6108 9.33665 36.32 9.77912Q36.0291 10.2216 36.0341 10.7983Q36.0291 11.6186 36.6307 12.1133Q37.2322 12.608 38.2812 12.608ZM38.2812 7.77557Q39.1016 7.77557 39.6335 7.29581Q40.1655 6.81605 40.1705 6.02557Q40.1655 5.25 39.646 4.78267Q39.1264 4.31534 38.2812 4.31534Q37.4261 4.31534 36.9066 4.78267Q36.3871 5.25 36.392 6.02557Q36.3871 6.81605 36.9165 7.29581Q37.446 7.77557 38.2812 7.77557Z" />
          </g>
        </g>
        <path d="M0 54.5C0 33.7893 16.7893 17 37.5 17C58.2107 17 75 33.7893 75 54.5C75 75.2107 58.2107 92 37.5 92C16.7893 92 0 75.2107 0 54.5Z" id="Oval" fill="#454545" fill-rule="evenodd" stroke="none" />
        <path d="M20 55C20 53.3431 21.3431 52 23 52C24.6569 52 26 53.3431 26 55C26 56.6569 24.6569 58 23 58C21.3431 58 20 56.6569 20 55Z" id="Oval-2" fill="#B2B2B2" fill-rule="evenodd" stroke="none" />
        <path d="M48 55C48 53.3431 49.3431 52 51 52C52.6569 52 54 53.3431 54 55C54 56.6569 52.6569 58 51 58C49.3431 58 48 56.6569 48 55Z" id="Oval-3" fill="#B2B2B2" fill-rule="evenodd" stroke="none" />
        <path d="M34 41.0001C34 39.3433 35.3431 38.0001 37 38.0001C38.6569 38.0001 40 39.3433 40 41.0001C40 42.657 38.6569 44.0001 37 44.0001C35.3431 44.0001 34 42.657 34 41.0001Z" id="Oval-4" fill="#B2B2B2" fill-rule="evenodd" stroke="none" />
      </g>
    </g>
    <path d="M197 142C201.419 142 205 145.581 205 150L205 432C205 436.419 201.419 440 197 440L119 440C114.581 440 111 436.419 111 432L111 150C111 145.581 114.581 142 119 142L197 142Z" id="Rectangle-17" fill="#B2B2B2" stroke="none" />
    <path d="M57 73.0001C63.076 73.0001 68 77.9242 68 84.0001L68 451C68 457.076 63.076 462 57 462L57 462C50.924 462 46 457.076 46 451L46 84.0001C46 77.9242 50.924 73.0001 57 73.0001Z" id="Rectangle-18" fill="#D5D5D5" stroke="none" />
    <path d="M1053 73C1059.08 73 1064 77.924 1064 84L1064 451C1064 457.076 1059.08 462 1053 462L1053 462C1046.92 462 1042 457.076 1042 451L1042 84C1042 77.924 1046.92 73 1053 73Z" id="Rectangle-19" fill="#D5D5D5" stroke="none" />
    <g id="RJ45" transform="translate(128 158.00012)">
      <path d="M54 0C56.2094 0 58 1.79056 58 4L58 50C58 52.2094 56.2094 54 54 54L4 54C1.79056 54 0 52.2094 0 50L0 4C0 1.79056 1.79056 0 4 0L54 0Z" id="Rectangle-20" fill="#D5D5D5" stroke="none" />
      <path d="M17 49L17 5L44 5L44 14L49 14L49 19L54 19L54 34L49 34L49 39L44 39L44 49L17 49Z" id="Rectangle-21-Union" fill="#000000" fill-rule="evenodd" stroke="none" />
    </g>
    <g id="RJ45-2" transform="translate(128 228.30005)">
      <path d="M54 0C56.2094 0 58 1.79056 58 4L58 50C58 52.2094 56.2094 54 54 54L4 54C1.79056 54 0 52.2094 0 50L0 4C0 1.79056 1.79056 0 4 0L54 0Z" id="Rectangle-20" fill="#D5D5D5" stroke="none" />
      <path d="M17 49L17 5L44 5L44 14L49 14L49 19L54 19L54 34L49 34L49 39L44 39L44 49L17 49Z" id="Rectangle-21-Union" fill="#000000" fill-rule="evenodd" stroke="none" />
    </g>
    <g id="RJ45-3" transform="translate(128 299.59998)">
      <path d="M54 0C56.2094 0 58 1.79056 58 4L58 50C58 52.2094 56.2094 54 54 54L4 54C1.79056 54 0 52.2094 0 50L0 4C0 1.79056 1.79056 0 4 0L54 0Z" id="Rectangle-20" fill="#D5D5D5" stroke="none" />
      <path d="M17 49L17 5L44 5L44 14L49 14L49 19L54 19L54 34L49 34L49 39L44 39L44 49L17 49Z" id="Rectangle-21-Union" fill="#000000" fill-rule="evenodd" stroke="none" />
    </g>
    <g id="RJ45-4" transform="translate(128 369.90015)">
      <path d="M54 0C56.2094 0 58 1.79056 58 4L58 50C58 52.2094 56.2094 54 54 54L4 54C1.79056 54 0 52.2094 0 50L0 4C0 1.79056 1.79056 0 4 0L54 0Z" id="Rectangle-20" fill="#D5D5D5" stroke="none" />
      <path d="M17 49L17 5L44 5L44 14L49 14L49 19L54 19L54 34L49 34L49 39L44 39L44 49L17 49Z" id="Rectangle-21-Union" fill="#000000" fill-rule="evenodd" stroke="none" />
    </g>
    <g id="AES50" transform="translate(200 0)">
      <g id="Group-11">
        <g id="Rectangle-16">
          <use stroke="none" fill="#FFFFFF" xlink:href="#path_1" fill-rule="evenodd" />
          <g clip-path="url(#clip_1)">
            <use xlink:href="#path_1" fill="none" stroke="#454545" stroke-width="2" />
          </g>
        </g>
        <g id="A" clip-path="url(#clip_2)" transform="translate(6.250001 3.215908)">
          <g transform="translate(6.579546, 0)" id="A">
            <path d="M4.24432 34.875L0.920455 34.875L10.5341 8.69318L13.8068 8.69318L23.4205 34.875L20.0966 34.875L17.4631 27.4602L6.87784 27.4602L4.24432 34.875ZM7.875 24.6477L16.4659 24.6477L12.2727 12.8352L12.0682 12.8352L7.875 24.6477Z" />
          </g>
        </g>
      </g>
      <g id="Group-12" transform="translate(64 0)">
        <g id="Rectangle-17">
          <use stroke="none" fill="#FFFFFF" xlink:href="#path_1" fill-rule="evenodd" />
          <g clip-path="url(#clip_1)">
            <use xlink:href="#path_1" fill="none" stroke="#454545" stroke-width="2" />
          </g>
        </g>
        <g id="B" clip-path="url(#clip_2)" transform="translate(6.250001 3.215908)">
          <g transform="translate(7.039773, 0)" id="B">
            <path d="M3.17045 34.875L3.17045 8.69318L12.3239 8.69318Q15.0597 8.69318 16.8366 9.63281Q18.6136 10.5724 19.483 12.1513Q20.3523 13.7301 20.3523 15.6477Q20.3523 17.3352 19.7578 18.4347Q19.1634 19.5341 18.1982 20.1733Q17.233 20.8125 16.108 21.1193L16.108 21.375Q17.3097 21.4517 18.5241 22.2188Q19.7386 22.9858 20.5568 24.4176Q21.375 25.8494 21.375 27.9205Q21.375 29.8892 20.4801 31.4616Q19.5852 33.0341 17.6548 33.9545Q15.7244 34.875 12.6307 34.875L3.17045 34.875ZM6.34091 32.0625L12.6307 32.0625Q15.7372 32.0625 17.0476 30.8544Q18.358 29.6463 18.358 27.9205Q18.358 26.5909 17.6804 25.4595Q17.0028 24.3281 15.75 23.6442Q14.4972 22.9602 12.7841 22.9602L6.34091 22.9602L6.34091 32.0625ZM6.34091 20.1989L12.2216 20.1989Q14.3693 20.1989 15.8523 18.9588Q17.3352 17.7188 17.3352 15.6477Q17.3352 13.9219 16.1335 12.7138Q14.9318 11.5057 12.3239 11.5057L6.34091 11.5057L6.34091 20.1989Z" />
          </g>
        </g>
      </g>
      <g id="AES50" clip-path="url(#clip_3)" transform="translate(0 50.000015)">
        <g transform="translate(28.696022, 0)" id="AES50" fill="#FFFFFF">
          <path d="M2.12216 17.4375L0.460227 17.4375L5.26705 4.34659L6.90341 4.34659L11.7102 17.4375L10.0483 17.4375L8.73153 13.7301L3.43892 13.7301L2.12216 17.4375ZM3.9375 12.3239L8.23295 12.3239L6.13636 6.41761L6.03409 6.41761L3.9375 12.3239ZM13.7557 17.4375L13.7557 4.34659L21.6562 4.34659L21.6562 5.75284L15.3409 5.75284L15.3409 10.1761L21.2472 10.1761L21.2472 11.5824L15.3409 11.5824L15.3409 16.0312L21.7585 16.0312L21.7585 17.4375L13.7557 17.4375ZM31.679 7.61932Q31.5639 6.64773 30.7457 6.1108Q29.9276 5.57386 28.7386 5.57386Q27.4347 5.57386 26.642 6.1907Q25.8494 6.80753 25.8494 7.74716Q25.8494 8.45028 26.2809 8.88175Q26.7124 9.31321 27.3036 9.55291Q27.8949 9.79261 28.3807 9.92045L29.7102 10.2784Q30.2216 10.4126 30.8512 10.6491Q31.4808 10.8857 32.0593 11.2915Q32.6378 11.6974 33.0149 12.3303Q33.392 12.9631 33.392 13.8835Q33.392 14.9446 32.8391 15.8011Q32.2862 16.6577 31.2283 17.1626Q30.1705 17.6676 28.6619 17.6676Q26.5526 17.6676 25.3125 16.6705Q24.0724 15.6733 23.9574 14.0625L25.5937 14.0625Q25.6577 14.804 26.0955 15.2866Q26.5334 15.7692 27.2077 16.0025Q27.8821 16.2358 28.6619 16.2358Q29.5696 16.2358 30.2919 15.9386Q31.0142 15.6413 31.4361 15.1076Q31.858 14.5739 31.858 13.858Q31.858 13.206 31.4936 12.7969Q31.1293 12.3878 30.5348 12.1321Q29.9403 11.8764 29.25 11.6847L27.6392 11.2244Q26.1051 10.7834 25.2102 9.9652Q24.3153 9.14702 24.3153 7.82386Q24.3153 6.72443 24.913 5.90305Q25.5107 5.08168 26.5238 4.62464Q27.5369 4.16761 28.7898 4.16761Q30.0554 4.16761 31.0398 4.61825Q32.0241 5.06889 32.6026 5.84872Q33.1811 6.62855 33.2131 7.61932L31.679 7.61932ZM39.8608 17.6165Q38.7358 17.6165 37.8345 17.169Q36.9332 16.7216 36.3899 15.9418Q35.8466 15.1619 35.7955 14.1648L37.3295 14.1648Q37.419 15.0533 38.1381 15.6317Q38.8572 16.2102 39.8608 16.2102Q40.6662 16.2102 41.2958 15.8331Q41.9254 15.456 42.2866 14.7944Q42.6477 14.1328 42.6477 13.2955Q42.6477 12.4389 42.2738 11.7646Q41.8999 11.0902 41.2479 10.7003Q40.5959 10.3104 39.7585 10.304Q39.1577 10.2976 38.5249 10.4862Q37.892 10.6747 37.483 10.9688L36 10.7898L36.7926 4.34659L43.5938 4.34659L43.5938 5.75284L38.1222 5.75284L37.6619 9.61364L37.7386 9.61364Q38.1413 9.29403 38.7486 9.0831Q39.3558 8.87216 40.0142 8.87216Q41.2159 8.87216 42.1587 9.44425Q43.1016 10.0163 43.6417 11.0071Q44.1818 11.9979 44.1818 13.2699Q44.1818 14.5227 43.6225 15.5039Q43.0632 16.4851 42.0852 17.0508Q41.1072 17.6165 39.8608 17.6165ZM50.983 17.6165Q48.8161 17.6165 47.6239 15.8587Q46.4318 14.1009 46.4318 10.892Q46.4318 7.70881 47.6335 5.93821Q48.8352 4.16761 50.983 4.16761Q53.1307 4.16761 54.3324 5.93821Q55.5341 7.70881 55.5341 10.892Q55.5341 14.1009 54.342 15.8587Q53.1499 17.6165 50.983 17.6165ZM50.983 16.2102Q52.4148 16.2102 53.2074 14.8295Q54 13.4489 54 10.892Q54 8.34162 53.201 6.94496Q52.402 5.5483 50.983 5.5483Q49.5639 5.5483 48.7649 6.94496Q47.9659 8.34162 47.9659 10.892Q47.9659 13.4489 48.7617 14.8295Q49.5575 16.2102 50.983 16.2102Z" />
        </g>
      </g>
    </g>
  </g>
</svg>