<?xml version="1.0" encoding="utf-8"?>
<svg width="1110px" height="316px" viewBox="0 0 1110 316" version="1.1" xmlns:xlink="http://www.w3.org/1999/xlink" xmlns="http://www.w3.org/2000/svg">
  <style>
    .number {
      font: 13px sans-serif;
      fill: #ffffff;
      text-anchor: middle;
    }
    .hiz {
      font: 11px sans-serif;
      fill: #ffffff;
      text-anchor: middle;
    }
  </style>
  <g id="SD8">
    <path d="M1070 0C1092.09 0 1110 17.9056 1110 40L1110 276C1110 298.094 1092.09 316 1070 316L40 316C17.9056 316 0 298.094 0 276L0 40C0 17.9056 17.9056 0 40 0L1070 0Z" id="Rectangle-16" fill="#303030" stroke="none" />
    <g id="Inputs" transform="translate(248 76)">
      <g id="XLRi-1" transform="translate(0 0)">
        <text x="78" y="26" class="number">1</text>
        <g id="connector" transform="translate(0 15.7)">
          <use xlink:href="xlr.svg#xlr-f" x="0" y="0" />
        </g>
      </g>
      <g id="XLRi-2" transform="translate(94 0)">
        <text x="78" y="26" class="number">2</text>
        <g id="connector" transform="translate(0 15.7)">
          <use xlink:href="xlr.svg#xlr-f" x="0" y="0" />
        </g>
      </g>
      <g id="XLRi-3" transform="translate(188 0)">
        <text x="78" y="26" class="number">3</text>
        <g id="connector" transform="translate(0 15.7)">
          <use xlink:href="xlr.svg#xlr-f" x="0" y="0" />
        </g>
      </g>
      <g id="XLRi-4" transform="translate(282 0)">
        <text x="78" y="26" class="number">4</text>
        <g id="connector" transform="translate(0 15.7)">
          <use xlink:href="xlr.svg#xlr-f" x="0" y="0" />
        </g>
      </g>
      <g id="XLRi-5" transform="translate(376 0)">
        <text x="78" y="26" class="number">5</text>
        <g id="connector" transform="translate(0 15.7)">
          <use xlink:href="xlr.svg#xlr-f" x="0" y="0" />
        </g>
      </g>
      <g id="XLRi-6" transform="translate(470 0)">
        <text x="78" y="26" class="number">6</text>
        <g id="connector" transform="translate(0 15.7)">
          <use xlink:href="xlr.svg#xlr-f" x="0" y="0" />
        </g>
      </g>
      <g id="XLRi-7" transform="translate(564 0)">
        <text x="78" y="26" class="number">7</text>
        <text x="39.5" y="14" class="hiz">HI-Z</text>
        <g id="connector" transform="translate(0 15.7)">
          <use xlink:href="xlr.svg#xlr-f" x="0" y="0" />
        </g>
      </g>
      <g id="XLRi-8" transform="translate(658 0)">
        <text x="78" y="26" class="number">8</text>
        <text x="39.5" y="14" class="hiz">HI-Z</text>
        <g id="connector" transform="translate(0 15.7)">
          <use xlink:href="xlr.svg#xlr-f" x="0" y="0" />
        </g>
      </g>
    </g>
    <g id="Outputs" transform="translate(248 176)">
      <g id="XLRo-1" transform="translate(0 0)">
        <text x="62" y="25" class="number">OUT 1</text>
        <g id="connector" transform="translate(0 25.7)">
          <use xlink:href="xlr.svg#xlr-m" x="0" y="0" />
        </g>
      </g>
      <g id="XLRo-2" transform="translate(94 0)">
        <text x="62" y="25" class="number">OUT 2</text>
        <g id="connector" transform="translate(0 25.7)">
          <use xlink:href="xlr.svg#xlr-m" x="0" y="0" />
        </g>
      </g>
      <g id="XLRo-3" transform="translate(188 0)">
        <text x="62" y="25" class="number">OUT 3</text>
        <g id="connector" transform="translate(0 25.7)">
          <use xlink:href="xlr.svg#xlr-m" x="0" y="0" />
        </g>
      </g>
      <g id="XLRo-4" transform="translate(282 0)">
        <text x="62" y="25" class="number">OUT 4</text>
        <g id="connector" transform="translate(0 25.7)">
          <use xlink:href="xlr.svg#xlr-m" x="0" y="0" />
        </g>
      </g>
      <g id="XLRo-5" transform="translate(376 0)">
        <text x="62" y="25" class="number">OUT 5</text>
        <g id="connector" transform="translate(0 25.7)">
          <use xlink:href="xlr.svg#xlr-m" x="0" y="0" />
        </g>
      </g>
      <g id="XLRo-6" transform="translate(470 0)">
        <text x="62" y="25" class="number">OUT 6</text>
        <g id="connector" transform="translate(0 25.7)">
          <use xlink:href="xlr.svg#xlr-m" x="0" y="0" />
        </g>
      </g>
      <g id="XLRo-7" transform="translate(564 0)">
        <text x="62" y="25" class="number">OUT 7</text>
        <g id="connector" transform="translate(0 25.7)">
          <use xlink:href="xlr.svg#xlr-m" x="0" y="0" />
        </g>
      </g>
      <g id="XLRo-8" transform="translate(658 0)">
        <text x="62" y="25" class="number">OUT 8</text>
        <g id="connector" transform="translate(0 25.7)">
          <use xlink:href="xlr.svg#xlr-m" x="0" y="0" />
        </g>
      </g>
    </g>
    <path d="M196 81C200.419 81 204 84.5811 204 89L204 212C204 216.419 200.419 220 196 220L118 220C113.581 220 110 216.419 110 212L110 89C110 84.5811 113.581 81 118 81L196 81Z" id="Rectangle-17" fill="#B2B2B2" stroke="none" />
    <path d="M57 34C63.076 34 68 38.924 68 45L68 270C68 276.076 63.076 281 57 281L57 281C50.924 281 46 276.076 46 270L46 45C46 38.924 50.924 34 57 34Z" id="Rectangle-18" fill="#D5D5D5" stroke="none" />
    <path d="M1053 34C1059.08 34 1064 38.924 1064 45L1064 270C1064 276.076 1059.08 281 1053 281L1053 281C1046.92 281 1042 276.076 1042 270L1042 45C1042 38.924 1046.92 34 1053 34Z" id="Rectangle-19" fill="#D5D5D5" stroke="none" />
    <g id="USB" transform="translate(140 227.99988)">
      <path d="M32 0C34.2094 0 36 1.79056 36 4L36 36C36 38.2094 34.2094 40 32 40L4 40C1.79056 40 0 38.2094 0 36L0 4C0 1.79056 1.79056 0 4 0L32 0Z" id="Rectangle-20" fill="#D5D5D5" stroke="none" />
      <path d="M24.929 34.0208L5 34.0208L5 6.02082L24.9749 6.02082L24.9957 6L31.0208 12.0251L31 12.046L31 28.0209L30.9705 28.0209L25 33.9914L25 34.0208L24.9706 34.0208L24.9498 34.0416L24.929 34.0208Z" id="Rectangle-21-Union" fill="#000000" fill-rule="evenodd" stroke="none" />
      <path d="M12 12L22 12L22 29L12 29L12 12Z" id="Rectangle-21" fill="#454545" fill-rule="evenodd" stroke="none" />
      <g id="USB" transform="matrix(0 1 -1 0 62 8)">
        <g transform="translate(0, 2.8977273)" id="USB" fill="#FFFFFF">
          <path d="M6.78409 2.89773L7.84091 2.89773L7.84091 8.67614Q7.84091 9.57102 7.42116 10.272Q7.00142 10.973 6.23864 11.3757Q5.47585 11.7784 4.44886 11.7784Q3.42188 11.7784 2.65909 11.3757Q1.89631 10.973 1.47656 10.272Q1.05682 9.57102 1.05682 8.67614L1.05682 2.89773L2.11364 2.89773L2.11364 8.59091Q2.11364 9.54972 2.7358 10.1697Q3.35795 10.7898 4.44886 10.7898Q5.54403 10.7898 6.16406 10.1697Q6.78409 9.54972 6.78409 8.59091L6.78409 2.89773ZM14.7273 5.07955Q14.6506 4.43182 14.1051 4.07386Q13.5597 3.71591 12.767 3.71591Q11.8977 3.71591 11.3693 4.12713Q10.8409 4.53835 10.8409 5.16477Q10.8409 5.63352 11.1286 5.92116Q11.4162 6.20881 11.8104 6.36861Q12.2045 6.52841 12.5284 6.61364L13.4148 6.85227Q13.7557 6.94176 14.1754 7.09943Q14.5952 7.2571 14.9808 7.5277Q15.3665 7.7983 15.6179 8.22017Q15.8693 8.64205 15.8693 9.25568Q15.8693 9.96307 15.5007 10.5341Q15.1321 11.1051 14.4268 11.4418Q13.7216 11.7784 12.7159 11.7784Q11.3097 11.7784 10.483 11.1136Q9.65625 10.4489 9.57955 9.375L10.6705 9.375Q10.7131 9.86932 11.005 10.1911Q11.2969 10.5128 11.7464 10.6683Q12.196 10.8239 12.7159 10.8239Q13.321 10.8239 13.8026 10.6257Q14.2841 10.4276 14.5653 10.0717Q14.8466 9.71591 14.8466 9.23864Q14.8466 8.80398 14.6037 8.53125Q14.3608 8.25852 13.9645 8.08807Q13.5682 7.91761 13.108 7.78977L12.0341 7.48295Q11.0114 7.18892 10.4148 6.64347Q9.81818 6.09801 9.81818 5.21591Q9.81818 4.48295 10.2166 3.93537Q10.6151 3.38778 11.2905 3.0831Q11.9659 2.77841 12.8011 2.77841Q13.6449 2.77841 14.3011 3.07884Q14.9574 3.37926 15.343 3.89915Q15.7287 4.41903 15.75 5.07955L14.7273 5.07955ZM17.608 11.625L17.608 2.89773L20.6591 2.89773Q21.571 2.89773 22.1634 3.21094Q22.7557 3.52415 23.0455 4.05043Q23.3352 4.5767 23.3352 5.21591Q23.3352 5.77841 23.1371 6.14489Q22.9389 6.51136 22.6172 6.72443Q22.2955 6.9375 21.9205 7.03977L21.9205 7.125Q22.321 7.15057 22.7259 7.40625Q23.1307 7.66193 23.4034 8.1392Q23.6761 8.61648 23.6761 9.30682Q23.6761 9.96307 23.3778 10.4872Q23.0795 11.0114 22.4361 11.3182Q21.7926 11.625 20.7614 11.625L17.608 11.625ZM18.6648 10.6875L20.7614 10.6875Q21.7969 10.6875 22.2337 10.2848Q22.6705 9.8821 22.6705 9.30682Q22.6705 8.86364 22.4446 8.48651Q22.2188 8.10938 21.8011 7.88139Q21.3835 7.65341 20.8125 7.65341L18.6648 7.65341L18.6648 10.6875ZM18.6648 6.73295L20.625 6.73295Q21.3409 6.73295 21.8352 6.3196Q22.3295 5.90625 22.3295 5.21591Q22.3295 4.64062 21.929 4.23793Q21.5284 3.83523 20.6591 3.83523L18.6648 3.83523L18.6648 6.73295Z" />
        </g>
      </g>
    </g>
    <g id="RJ45" transform="translate(128 88)">
      <path d="M54 0C56.2094 0 58 1.79056 58 4L58 50C58 52.2094 56.2094 54 54 54L4 54C1.79056 54 0 52.2094 0 50L0 4C0 1.79056 1.79056 0 4 0L54 0Z" id="Rectangle-20" fill="#D5D5D5" stroke="none" />
      <path d="M17 49L17 5L44 5L44 14L49 14L49 19L54 19L54 34L49 34L49 39L44 39L44 49L17 49Z" id="Rectangle-21-Union" fill="#000000" fill-rule="evenodd" stroke="none" />
    </g>
    <g id="RJ45-2" transform="translate(128 158)">
      <path d="M54 0C56.2094 0 58 1.79056 58 4L58 50C58 52.2094 56.2094 54 54 54L4 54C1.79056 54 0 52.2094 0 50L0 4C0 1.79056 1.79056 0 4 0L54 0Z" id="Rectangle-20" fill="#D5D5D5" stroke="none" />
      <path d="M17 49L17 5L44 5L44 14L49 14L49 19L54 19L54 34L49 34L49 39L44 39L44 49L17 49Z" id="Rectangle-21-Union" fill="#000000" fill-rule="evenodd" stroke="none" />
    </g>
  </g>
</svg>