<?xml version="1.0" encoding="utf-8"?>
<svg width="1110px" height="316px" viewBox="0 0 1110 316" version="1.1" xmlns:xlink="http://www.w3.org/1999/xlink" xmlns="http://www.w3.org/2000/svg">
  <g id="SD8">
    <path d="M1070 0C1092.09 0 1110 17.9056 1110 40L1110 276C1110 298.094 1092.09 316 1070 316L40 316C17.9056 316 0 298.094 0 276L0 40C0 17.9056 17.9056 0 40 0L1070 0Z" id="Rectangle-16" fill="#303030" stroke="none" />
    <g id="Inputs" transform="translate(248 76.5)">
      <g id="XLR" transform="translate(0 10.5)">
        <g id="1" transform="translate(73.5 0)">
          <g transform="translate(0, 3.3806818)" id="1" fill="#FFFFFF">
            <path d="M4.63352 3.38068L4.63352 13.5625L3.40057 13.5625L3.40057 4.6733L3.34091 4.6733L0.855114 6.32386L0.855114 5.07102L3.40057 3.38068L4.63352 3.38068Z" />
          </g>
        </g>
        <path d="M0 45.2023C0 23.387 17.6848 5.70227 39.5 5.70227C61.3152 5.70227 79 23.387 79 45.2023C79 67.0175 61.3152 84.7023 39.5 84.7023C17.6848 84.7023 0 67.0175 0 45.2023Z" id="Oval" fill="#B2B2B2" fill-rule="evenodd" stroke="none" />
        <path d="M26 44.7024C26 37.5227 31.8203 31.7024 39 31.7024C46.1797 31.7024 52 37.5227 52 44.7024C52 51.8821 46.1797 57.7024 39 57.7024C31.8203 57.7024 26 51.8821 26 44.7024Z" id="Oval-2" fill="#454545" fill-rule="evenodd" stroke="none" />
        <path d="M34 60.2024C34 57.1648 36.4624 54.7024 39.5 54.7024C42.5376 54.7024 45 57.1648 45 60.2024C45 63.2399 42.5376 65.7024 39.5 65.7024C36.4624 65.7024 34 63.2399 34 60.2024Z" id="Oval-3" fill="#454545" fill-rule="evenodd" stroke="none" />
        <path d="M20 45.2024C20 42.1648 22.4624 39.7024 25.5 39.7024C28.5376 39.7024 31 42.1648 31 45.2024C31 48.2399 28.5376 50.7024 25.5 50.7024C22.4624 50.7024 20 48.2399 20 45.2024Z" id="Oval-4" fill="#454545" fill-rule="evenodd" stroke="none" />
        <path d="M48 45.2024C48 42.1648 50.4624 39.7024 53.5 39.7024C56.5376 39.7024 59 42.1648 59 45.2024C59 48.2399 56.5376 50.7024 53.5 50.7024C50.4624 50.7024 48 48.2399 48 45.2024Z" id="Oval-5" fill="#454545" fill-rule="evenodd" stroke="none" />
      </g>
      <g id="XLR-2" transform="translate(93.5 10.5)">
        <g id="2" transform="translate(72.5 0)">
          <g transform="translate(0, 3.3806818)" id="2" fill="#FFFFFF">
            <path d="M1.05398 13.5625L1.05398 12.6676L4.41477 8.98864Q5.00639 8.34233 5.3892 7.86257Q5.77202 7.38281 5.95845 6.95774Q6.14489 6.53267 6.14489 6.06534Q6.14489 5.25994 5.58558 4.78764Q5.02628 4.31534 4.19602 4.31534Q3.31108 4.31534 2.78906 4.84482Q2.26705 5.37429 2.26705 6.24432L1.09375 6.24432Q1.09375 5.34943 1.50639 4.6733Q1.91903 3.99716 2.63246 3.61932Q3.34588 3.24148 4.2358 3.24148Q5.13068 3.24148 5.82173 3.61932Q6.51278 3.99716 6.90554 4.63849Q7.2983 5.27983 7.2983 6.06534Q7.2983 6.62713 7.09695 7.16158Q6.8956 7.69602 6.40092 8.34979Q5.90625 9.00355 5.03125 9.94318L2.74432 12.3892L2.74432 12.4688L7.47727 12.4688L7.47727 13.5625L1.05398 13.5625Z" />
          </g>
        </g>
        <path d="M0 45.2023C0 23.387 17.6848 5.70227 39.5 5.70227C61.3152 5.70227 79 23.387 79 45.2023C79 67.0175 61.3152 84.7023 39.5 84.7023C17.6848 84.7023 0 67.0175 0 45.2023Z" id="Oval" fill="#B2B2B2" fill-rule="evenodd" stroke="none" />
        <path d="M26 44.7024C26 37.5227 31.8203 31.7024 39 31.7024C46.1797 31.7024 52 37.5227 52 44.7024C52 51.8821 46.1797 57.7024 39 57.7024C31.8203 57.7024 26 51.8821 26 44.7024Z" id="Oval-2" fill="#454545" fill-rule="evenodd" stroke="none" />
        <path d="M34 60.2024C34 57.1648 36.4624 54.7024 39.5 54.7024C42.5376 54.7024 45 57.1648 45 60.2024C45 63.2399 42.5376 65.7024 39.5 65.7024C36.4624 65.7024 34 63.2399 34 60.2024Z" id="Oval-3" fill="#454545" fill-rule="evenodd" stroke="none" />
        <path d="M20 45.2024C20 42.1648 22.4624 39.7024 25.5 39.7024C28.5376 39.7024 31 42.1648 31 45.2024C31 48.2399 28.5376 50.7024 25.5 50.7024C22.4624 50.7024 20 48.2399 20 45.2024Z" id="Oval-4" fill="#454545" fill-rule="evenodd" stroke="none" />
        <path d="M48 45.2024C48 42.1648 50.4624 39.7024 53.5 39.7024C56.5376 39.7024 59 42.1648 59 45.2024C59 48.2399 56.5376 50.7024 53.5 50.7024C50.4624 50.7024 48 48.2399 48 45.2024Z" id="Oval-5" fill="#454545" fill-rule="evenodd" stroke="none" />
      </g>
      <g id="XLR-3" transform="translate(187.5 10.5)">
        <g id="3" transform="translate(72.5 0)">
          <g transform="translate(0, 3.3806818)" id="3" fill="#FFFFFF">
            <path d="M4.49432 13.7017Q3.50994 13.7017 2.74183 13.3636Q1.97372 13.0256 1.52379 12.4215Q1.07386 11.8175 1.03409 11.017L2.28693 11.017Q2.34162 11.7528 2.96555 12.1804Q3.58949 12.608 4.47443 12.608Q5.45384 12.608 6.08771 12.1083Q6.72159 11.6087 6.72159 10.7983Q6.72159 9.95312 6.09766 9.42117Q5.47372 8.8892 4.31534 8.8892L3.5 8.8892L3.5 7.79545L4.31534 7.79545Q5.22017 7.79545 5.7919 7.31321Q6.36364 6.83097 6.36364 6.02557Q6.36364 5.25497 5.86151 4.78516Q5.35938 4.31534 4.5142 4.31534Q3.98722 4.31534 3.52237 4.50675Q3.05753 4.69815 2.7642 5.05859Q2.47088 5.41903 2.44602 5.92614L1.25284 5.92614Q1.28267 5.12571 1.73509 4.52166Q2.1875 3.91761 2.92081 3.57955Q3.65412 3.24148 4.53409 3.24148Q5.47869 3.24148 6.15483 3.6218Q6.83097 4.00213 7.19389 4.62358Q7.55682 5.24503 7.55682 5.96591Q7.55682 6.82599 7.10689 7.43253Q6.65696 8.03906 5.88636 8.27273L5.88636 8.35227Q6.85085 8.51136 7.39276 9.1701Q7.93466 9.82884 7.93466 10.7983Q7.93466 11.6286 7.48473 12.2873Q7.0348 12.946 6.25923 13.3239Q5.48366 13.7017 4.49432 13.7017Z" />
          </g>
        </g>
        <path d="M0 45.2023C0 23.387 17.6848 5.70227 39.5 5.70227C61.3152 5.70227 79 23.387 79 45.2023C79 67.0175 61.3152 84.7023 39.5 84.7023C17.6848 84.7023 0 67.0175 0 45.2023Z" id="Oval" fill="#B2B2B2" fill-rule="evenodd" stroke="none" />
        <path d="M26 44.7024C26 37.5227 31.8203 31.7024 39 31.7024C46.1797 31.7024 52 37.5227 52 44.7024C52 51.8821 46.1797 57.7024 39 57.7024C31.8203 57.7024 26 51.8821 26 44.7024Z" id="Oval-2" fill="#454545" fill-rule="evenodd" stroke="none" />
        <path d="M34 60.2024C34 57.1648 36.4624 54.7024 39.5 54.7024C42.5376 54.7024 45 57.1648 45 60.2024C45 63.2399 42.5376 65.7024 39.5 65.7024C36.4624 65.7024 34 63.2399 34 60.2024Z" id="Oval-3" fill="#454545" fill-rule="evenodd" stroke="none" />
        <path d="M20 45.2024C20 42.1648 22.4624 39.7024 25.5 39.7024C28.5376 39.7024 31 42.1648 31 45.2024C31 48.2399 28.5376 50.7024 25.5 50.7024C22.4624 50.7024 20 48.2399 20 45.2024Z" id="Oval-4" fill="#454545" fill-rule="evenodd" stroke="none" />
        <path d="M48 45.2024C48 42.1648 50.4624 39.7024 53.5 39.7024C56.5376 39.7024 59 42.1648 59 45.2024C59 48.2399 56.5376 50.7024 53.5 50.7024C50.4624 50.7024 48 48.2399 48 45.2024Z" id="Oval-5" fill="#454545" fill-rule="evenodd" stroke="none" />
      </g>
      <g id="XLR-4" transform="translate(280.5 10.5)">
        <g id="4" transform="translate(72.5 0)">
          <g transform="translate(0, 3.3806818)" id="4" fill="#FFFFFF">
            <path d="M0.815341 11.4744L0.815341 10.4602L5.28977 3.38068L6.78125 3.38068L6.78125 10.3807L8.1733 10.3807L8.1733 11.4744L6.78125 11.4744L6.78125 13.5625L5.60795 13.5625L5.60795 11.4744L0.815341 11.4744ZM5.60795 10.3807L5.60795 4.9517L5.52841 4.9517L2.14773 10.3011L2.14773 10.3807L5.60795 10.3807Z" />
          </g>
        </g>
        <path d="M0 45.2023C0 23.387 17.6848 5.70227 39.5 5.70227C61.3152 5.70227 79 23.387 79 45.2023C79 67.0175 61.3152 84.7023 39.5 84.7023C17.6848 84.7023 0 67.0175 0 45.2023Z" id="Oval" fill="#B2B2B2" fill-rule="evenodd" stroke="none" />
        <path d="M26 44.7024C26 37.5227 31.8203 31.7024 39 31.7024C46.1797 31.7024 52 37.5227 52 44.7024C52 51.8821 46.1797 57.7024 39 57.7024C31.8203 57.7024 26 51.8821 26 44.7024Z" id="Oval-2" fill="#454545" fill-rule="evenodd" stroke="none" />
        <path d="M34 60.2024C34 57.1648 36.4624 54.7024 39.5 54.7024C42.5376 54.7024 45 57.1648 45 60.2024C45 63.2399 42.5376 65.7024 39.5 65.7024C36.4624 65.7024 34 63.2399 34 60.2024Z" id="Oval-3" fill="#454545" fill-rule="evenodd" stroke="none" />
        <path d="M20 45.2024C20 42.1648 22.4624 39.7024 25.5 39.7024C28.5376 39.7024 31 42.1648 31 45.2024C31 48.2399 28.5376 50.7024 25.5 50.7024C22.4624 50.7024 20 48.2399 20 45.2024Z" id="Oval-4" fill="#454545" fill-rule="evenodd" stroke="none" />
        <path d="M48 45.2024C48 42.1648 50.4624 39.7024 53.5 39.7024C56.5376 39.7024 59 42.1648 59 45.2024C59 48.2399 56.5376 50.7024 53.5 50.7024C50.4624 50.7024 48 48.2399 48 45.2024Z" id="Oval-5" fill="#454545" fill-rule="evenodd" stroke="none" />
      </g>
      <g id="XLR-5" transform="translate(375 10.5)">
        <g id="5" transform="translate(72.5 0)">
          <g transform="translate(0, 3.3806818)" id="5" fill="#FFFFFF">
            <path d="M4.2358 13.7017Q3.3608 13.7017 2.6598 13.3537Q1.95881 13.0057 1.53622 12.3991Q1.11364 11.7926 1.07386 11.017L2.26705 11.017Q2.33665 11.7081 2.89595 12.158Q3.45526 12.608 4.2358 12.608Q4.86222 12.608 5.35192 12.3146Q5.84162 12.0213 6.12251 11.5067Q6.40341 10.9922 6.40341 10.3409Q6.40341 9.67472 6.11257 9.15021Q5.82173 8.62571 5.31463 8.32244Q4.80753 8.01918 4.15625 8.0142Q3.68892 8.00923 3.19673 8.1559Q2.70455 8.30256 2.38636 8.53125L1.23295 8.39205L1.84943 3.38068L7.1392 3.38068L7.1392 4.47443L2.88352 4.47443L2.52557 7.47727L2.58523 7.47727Q2.89844 7.22869 3.37074 7.06463Q3.84304 6.90057 4.35511 6.90057Q5.28977 6.90057 6.02308 7.34553Q6.75639 7.79048 7.17649 8.56108Q7.59659 9.33168 7.59659 10.321Q7.59659 11.2955 7.16158 12.0586Q6.72656 12.8217 5.96591 13.2617Q5.20526 13.7017 4.2358 13.7017Z" />
          </g>
        </g>
        <path d="M0 45.2023C0 23.387 17.6848 5.70227 39.5 5.70227C61.3152 5.70227 79 23.387 79 45.2023C79 67.0175 61.3152 84.7023 39.5 84.7023C17.6848 84.7023 0 67.0175 0 45.2023Z" id="Oval" fill="#B2B2B2" fill-rule="evenodd" stroke="none" />
        <path d="M26 44.7024C26 37.5227 31.8203 31.7024 39 31.7024C46.1797 31.7024 52 37.5227 52 44.7024C52 51.8821 46.1797 57.7024 39 57.7024C31.8203 57.7024 26 51.8821 26 44.7024Z" id="Oval-2" fill="#454545" fill-rule="evenodd" stroke="none" />
        <path d="M34 60.2024C34 57.1648 36.4624 54.7024 39.5 54.7024C42.5376 54.7024 45 57.1648 45 60.2024C45 63.2399 42.5376 65.7024 39.5 65.7024C36.4624 65.7024 34 63.2399 34 60.2024Z" id="Oval-3" fill="#454545" fill-rule="evenodd" stroke="none" />
        <path d="M20 45.2024C20 42.1648 22.4624 39.7024 25.5 39.7024C28.5376 39.7024 31 42.1648 31 45.2024C31 48.2399 28.5376 50.7024 25.5 50.7024C22.4624 50.7024 20 48.2399 20 45.2024Z" id="Oval-4" fill="#454545" fill-rule="evenodd" stroke="none" />
        <path d="M48 45.2024C48 42.1648 50.4624 39.7024 53.5 39.7024C56.5376 39.7024 59 42.1648 59 45.2024C59 48.2399 56.5376 50.7024 53.5 50.7024C50.4624 50.7024 48 48.2399 48 45.2024Z" id="Oval-5" fill="#454545" fill-rule="evenodd" stroke="none" />
      </g>
      <g id="XLR-6" transform="translate(468 10.5)">
        <g id="6" transform="translate(72.5 0)">
          <g transform="translate(0, 3.3806818)" id="6" fill="#FFFFFF">
            <path d="M4.43466 13.7017Q3.80824 13.6918 3.18182 13.4631Q2.5554 13.2344 2.03835 12.69Q1.52131 12.1456 1.2081 11.2134Q0.894886 10.2812 0.894886 8.86932Q0.894886 6.16974 1.88423 4.70561Q2.87358 3.24148 4.59375 3.24148Q5.44886 3.24148 6.11754 3.58203Q6.78622 3.92259 7.20881 4.52912Q7.63139 5.13565 7.75568 5.92614L6.54261 5.92614Q6.37358 5.24006 5.88636 4.78764Q5.39915 4.33523 4.59375 4.33523Q3.41051 4.33523 2.73189 5.36435Q2.05327 6.39347 2.0483 8.25284L2.12784 8.25284Q2.54545 7.62145 3.19673 7.26101Q3.84801 6.90057 4.63352 6.90057Q5.50852 6.90057 6.23438 7.33558Q6.96023 7.7706 7.39773 8.53374Q7.83523 9.29688 7.83523 10.2812Q7.83523 11.2259 7.41264 12.0089Q6.99006 12.7919 6.22692 13.2518Q5.46378 13.7116 4.43466 13.7017ZM4.43466 12.608Q5.06108 12.608 5.56072 12.2947Q6.06037 11.9815 6.35121 11.4545Q6.64205 10.9276 6.64205 10.2812Q6.64205 9.64986 6.36115 9.13033Q6.08026 8.6108 5.59055 8.30256Q5.10085 7.99432 4.47443 7.99432Q3.84304 7.99432 3.33594 8.31747Q2.82884 8.64062 2.53054 9.16513Q2.23224 9.68963 2.22727 10.3011Q2.22727 10.9077 2.51314 11.4347Q2.79901 11.9616 3.29865 12.2848Q3.7983 12.608 4.43466 12.608Z" />
          </g>
        </g>
        <path d="M0 45.2023C0 23.387 17.6848 5.70227 39.5 5.70227C61.3152 5.70227 79 23.387 79 45.2023C79 67.0175 61.3152 84.7023 39.5 84.7023C17.6848 84.7023 0 67.0175 0 45.2023Z" id="Oval" fill="#B2B2B2" fill-rule="evenodd" stroke="none" />
        <path d="M26 44.7024C26 37.5227 31.8203 31.7024 39 31.7024C46.1797 31.7024 52 37.5227 52 44.7024C52 51.8821 46.1797 57.7024 39 57.7024C31.8203 57.7024 26 51.8821 26 44.7024Z" id="Oval-2" fill="#454545" fill-rule="evenodd" stroke="none" />
        <path d="M34 60.2024C34 57.1648 36.4624 54.7024 39.5 54.7024C42.5376 54.7024 45 57.1648 45 60.2024C45 63.2399 42.5376 65.7024 39.5 65.7024C36.4624 65.7024 34 63.2399 34 60.2024Z" id="Oval-3" fill="#454545" fill-rule="evenodd" stroke="none" />
        <path d="M20 45.2024C20 42.1648 22.4624 39.7024 25.5 39.7024C28.5376 39.7024 31 42.1648 31 45.2024C31 48.2399 28.5376 50.7024 25.5 50.7024C22.4624 50.7024 20 48.2399 20 45.2024Z" id="Oval-4" fill="#454545" fill-rule="evenodd" stroke="none" />
        <path d="M48 45.2024C48 42.1648 50.4624 39.7024 53.5 39.7024C56.5376 39.7024 59 42.1648 59 45.2024C59 48.2399 56.5376 50.7024 53.5 50.7024C50.4624 50.7024 48 48.2399 48 45.2024Z" id="Oval-5" fill="#454545" fill-rule="evenodd" stroke="none" />
      </g>
      <g id="XLR-7" transform="translate(562 0)">
        <g id="7" transform="translate(73 10.5)">
          <g transform="translate(0, 3.3806818)" id="7" fill="#FFFFFF">
            <path d="M1.37216 13.5625L5.92614 4.55398L5.92614 4.47443L0.676136 4.47443L0.676136 3.38068L7.19886 3.38068L7.19886 4.53409L2.66477 13.5625L1.37216 13.5625Z" />
          </g>
        </g>
        <g id="HI-Z" transform="translate(26 0)">
          <g transform="translate(0, 2.8977273)" id="HI-Z" fill="#FFFFFF">
            <path d="M1.05682 11.625L1.05682 2.89773L2.11364 2.89773L2.11364 6.78409L6.76705 6.78409L6.76705 2.89773L7.82386 2.89773L7.82386 11.625L6.76705 11.625L6.76705 7.72159L2.11364 7.72159L2.11364 11.625L1.05682 11.625ZM10.9943 2.89773L10.9943 11.625L9.9375 11.625L9.9375 2.89773L10.9943 2.89773ZM16.7216 6.79261L16.7216 7.73011L12.9034 7.73011L12.9034 6.79261L16.7216 6.79261ZM18.3409 11.625L18.3409 10.858L23.0455 3.83523L18.2898 3.83523L18.2898 2.89773L24.3068 2.89773L24.3068 3.66477L19.6023 10.6875L24.358 10.6875L24.358 11.625L18.3409 11.625Z" />
          </g>
        </g>
        <path d="M0 55.7023C0 33.887 17.6848 16.2023 39.5 16.2023C61.3152 16.2023 79 33.887 79 55.7023C79 77.5175 61.3152 95.2023 39.5 95.2023C17.6848 95.2023 0 77.5175 0 55.7023Z" id="Oval" fill="#B2B2B2" fill-rule="evenodd" stroke="none" />
        <path d="M26 55.2024C26 48.0227 31.8203 42.2024 39 42.2024C46.1797 42.2024 52 48.0227 52 55.2024C52 62.3821 46.1797 68.2024 39 68.2024C31.8203 68.2024 26 62.3821 26 55.2024Z" id="Oval-2" fill="#454545" fill-rule="evenodd" stroke="none" />
        <path d="M34 70.7024C34 67.6648 36.4624 65.2024 39.5 65.2024C42.5376 65.2024 45 67.6648 45 70.7024C45 73.7399 42.5376 76.2024 39.5 76.2024C36.4624 76.2024 34 73.7399 34 70.7024Z" id="Oval-3" fill="#454545" fill-rule="evenodd" stroke="none" />
        <path d="M20 55.7024C20 52.6648 22.4624 50.2024 25.5 50.2024C28.5376 50.2024 31 52.6648 31 55.7024C31 58.7399 28.5376 61.2024 25.5 61.2024C22.4624 61.2024 20 58.7399 20 55.7024Z" id="Oval-4" fill="#454545" fill-rule="evenodd" stroke="none" />
        <path d="M48 55.7024C48 52.6648 50.4624 50.2024 53.5 50.2024C56.5376 50.2024 59 52.6648 59 55.7024C59 58.7399 56.5376 61.2024 53.5 61.2024C50.4624 61.2024 48 58.7399 48 55.7024Z" id="Oval-5" fill="#454545" fill-rule="evenodd" stroke="none" />
      </g>
      <g id="XLR-8" transform="translate(656 0)">
        <g id="8" transform="translate(72.5 10.5)">
          <g transform="translate(0, 3.3806818)" id="8" fill="#FFFFFF">
            <path d="M4.31534 13.7017Q3.29119 13.7017 2.50817 13.3363Q1.72514 12.9709 1.28764 12.3271Q0.850142 11.6832 0.855114 10.858Q0.850142 10.2116 1.10866 9.66229Q1.36719 9.11293 1.81712 8.74254Q2.26705 8.37216 2.82386 8.27273L2.82386 8.21307Q2.09304 8.02415 1.66051 7.39027Q1.22798 6.75639 1.23295 5.94602Q1.22798 5.17045 1.62571 4.55895Q2.02344 3.94744 2.72195 3.59446Q3.42045 3.24148 4.31534 3.24148Q5.20028 3.24148 5.89631 3.59446Q6.59233 3.94744 6.99254 4.55895Q7.39276 5.17045 7.39773 5.94602Q7.39276 6.75639 6.95774 7.39027Q6.52273 8.02415 5.80682 8.21307L5.80682 8.27273Q6.35866 8.37216 6.80114 8.74254Q7.24361 9.11293 7.5071 9.66229Q7.7706 10.2116 7.77557 10.858Q7.7706 11.6832 7.33061 12.3271Q6.89062 12.9709 6.11257 13.3363Q5.33452 13.7017 4.31534 13.7017ZM4.31534 12.608Q5.34943 12.608 5.95348 12.1133Q6.55753 11.6186 6.5625 10.7983Q6.55753 10.2216 6.2642 9.77912Q5.97088 9.33665 5.46626 9.0831Q4.96165 8.82955 4.31534 8.82955Q3.66406 8.82955 3.15447 9.0831Q2.64489 9.33665 2.35405 9.77912Q2.06321 10.2216 2.06818 10.7983Q2.06321 11.6186 2.66477 12.1133Q3.26634 12.608 4.31534 12.608ZM4.31534 7.77557Q5.13565 7.77557 5.66761 7.29581Q6.19957 6.81605 6.20455 6.02557Q6.19957 5.25 5.68004 4.78267Q5.16051 4.31534 4.31534 4.31534Q3.46023 4.31534 2.9407 4.78267Q2.42116 5.25 2.42614 6.02557Q2.42116 6.81605 2.95064 7.29581Q3.48011 7.77557 4.31534 7.77557Z" />
          </g>
        </g>
        <g id="HI-Z" transform="translate(26 0)">
          <g transform="translate(0, 2.8977273)" id="HI-Z" fill="#FFFFFF">
            <path d="M1.05682 11.625L1.05682 2.89773L2.11364 2.89773L2.11364 6.78409L6.76705 6.78409L6.76705 2.89773L7.82386 2.89773L7.82386 11.625L6.76705 11.625L6.76705 7.72159L2.11364 7.72159L2.11364 11.625L1.05682 11.625ZM10.9943 2.89773L10.9943 11.625L9.9375 11.625L9.9375 2.89773L10.9943 2.89773ZM16.7216 6.79261L16.7216 7.73011L12.9034 7.73011L12.9034 6.79261L16.7216 6.79261ZM18.3409 11.625L18.3409 10.858L23.0455 3.83523L18.2898 3.83523L18.2898 2.89773L24.3068 2.89773L24.3068 3.66477L19.6023 10.6875L24.358 10.6875L24.358 11.625L18.3409 11.625Z" />
          </g>
        </g>
        <path d="M0 55.7023C0 33.887 17.6848 16.2023 39.5 16.2023C61.3152 16.2023 79 33.887 79 55.7023C79 77.5175 61.3152 95.2023 39.5 95.2023C17.6848 95.2023 0 77.5175 0 55.7023Z" id="Oval" fill="#B2B2B2" fill-rule="evenodd" stroke="none" />
        <path d="M26 55.2024C26 48.0227 31.8203 42.2024 39 42.2024C46.1797 42.2024 52 48.0227 52 55.2024C52 62.3821 46.1797 68.2024 39 68.2024C31.8203 68.2024 26 62.3821 26 55.2024Z" id="Oval-2" fill="#454545" fill-rule="evenodd" stroke="none" />
        <path d="M34 70.7024C34 67.6648 36.4624 65.2024 39.5 65.2024C42.5376 65.2024 45 67.6648 45 70.7024C45 73.7399 42.5376 76.2024 39.5 76.2024C36.4624 76.2024 34 73.7399 34 70.7024Z" id="Oval-3" fill="#454545" fill-rule="evenodd" stroke="none" />
        <path d="M20 55.7024C20 52.6648 22.4624 50.2024 25.5 50.2024C28.5376 50.2024 31 52.6648 31 55.7024C31 58.7399 28.5376 61.2024 25.5 61.2024C22.4624 61.2024 20 58.7399 20 55.7024Z" id="Oval-4" fill="#454545" fill-rule="evenodd" stroke="none" />
        <path d="M48 55.7024C48 52.6648 50.4624 50.2024 53.5 50.2024C56.5376 50.2024 59 52.6648 59 55.7024C59 58.7399 56.5376 61.2024 53.5 61.2024C50.4624 61.2024 48 58.7399 48 55.7024Z" id="Oval-5" fill="#454545" fill-rule="evenodd" stroke="none" />
      </g>
    </g>
    <g id="Outputs" transform="translate(248 180)">
      <g id="XLRM">
        <g id="OUT-1" transform="translate(40.5 0)">
          <g transform="translate(0, 3.3806818)" id="OUT-1" fill="#FFFFFF">
            <path d="M9.82386 8.47159Q9.82386 10.0824 9.24219 11.2557Q8.66051 12.429 7.64631 13.0653Q6.6321 13.7017 5.32955 13.7017Q4.02699 13.7017 3.01278 13.0653Q1.99858 12.429 1.4169 11.2557Q0.835227 10.0824 0.835227 8.47159Q0.835227 6.8608 1.4169 5.6875Q1.99858 4.5142 3.01278 3.87784Q4.02699 3.24148 5.32955 3.24148Q6.6321 3.24148 7.64631 3.87784Q8.66051 4.5142 9.24219 5.6875Q9.82386 6.8608 9.82386 8.47159ZM8.63068 8.47159Q8.63068 7.14915 8.1907 6.23935Q7.75071 5.32955 7.00249 4.86222Q6.25426 4.39489 5.32955 4.39489Q4.40483 4.39489 3.65661 4.86222Q2.90838 5.32955 2.46839 6.23935Q2.02841 7.14915 2.02841 8.47159Q2.02841 9.79403 2.46839 10.7038Q2.90838 11.6136 3.65661 12.081Q4.40483 12.5483 5.32955 12.5483Q6.25426 12.5483 7.00249 12.081Q7.75071 11.6136 8.1907 10.7038Q8.63068 9.79403 8.63068 8.47159ZM18.5739 3.38068L19.8068 3.38068L19.8068 10.1222Q19.8068 11.1662 19.3171 11.984Q18.8274 12.8018 17.9375 13.2717Q17.0476 13.7415 15.8494 13.7415Q14.6513 13.7415 13.7614 13.2717Q12.8714 12.8018 12.3817 11.984Q11.892 11.1662 11.892 10.1222L11.892 3.38068L13.125 3.38068L13.125 10.0227Q13.125 11.1413 13.8509 11.8647Q14.5767 12.5881 15.8494 12.5881Q17.1271 12.5881 17.8505 11.8647Q18.5739 11.1413 18.5739 10.0227L18.5739 3.38068ZM21.7159 4.47443L21.7159 3.38068L29.3523 3.38068L29.3523 4.47443L26.1506 4.47443L26.1506 13.5625L24.9176 13.5625L24.9176 4.47443L21.7159 4.47443ZM38.5994 3.38068L38.5994 13.5625L37.3665 13.5625L37.3665 4.6733L37.3068 4.6733L34.821 6.32386L34.821 5.07102L37.3665 3.38068L38.5994 3.38068Z" />
          </g>
        </g>
        <path d="M0 54.5C0 33.7893 16.7893 17 37.5 17C58.2107 17 75 33.7893 75 54.5C75 75.2107 58.2107 92 37.5 92C16.7893 92 0 75.2107 0 54.5Z" id="Oval" fill="#454545" fill-rule="evenodd" stroke="none" />
        <path d="M20 55C20 53.3431 21.3431 52 23 52C24.6569 52 26 53.3431 26 55C26 56.6569 24.6569 58 23 58C21.3431 58 20 56.6569 20 55Z" id="Oval-2" fill="#B2B2B2" fill-rule="evenodd" stroke="none" />
        <path d="M48 55C48 53.3431 49.3431 52 51 52C52.6569 52 54 53.3431 54 55C54 56.6569 52.6569 58 51 58C49.3431 58 48 56.6569 48 55Z" id="Oval-3" fill="#B2B2B2" fill-rule="evenodd" stroke="none" />
        <path d="M34 41.0001C34 39.3433 35.3431 38.0001 37 38.0001C38.6569 38.0001 40 39.3433 40 41.0001C40 42.657 38.6569 44.0001 37 44.0001C35.3431 44.0001 34 42.657 34 41.0001Z" id="Oval-4" fill="#B2B2B2" fill-rule="evenodd" stroke="none" />
      </g>
      <g id="XLRM-2" transform="translate(94 0)">
        <g id="OUT-2" transform="translate(39.5 0)">
          <g transform="translate(0, 3.3806818)" id="OUT-2" fill="#FFFFFF">
            <path d="M9.82386 8.47159Q9.82386 10.0824 9.24219 11.2557Q8.66051 12.429 7.64631 13.0653Q6.6321 13.7017 5.32955 13.7017Q4.02699 13.7017 3.01278 13.0653Q1.99858 12.429 1.4169 11.2557Q0.835227 10.0824 0.835227 8.47159Q0.835227 6.8608 1.4169 5.6875Q1.99858 4.5142 3.01278 3.87784Q4.02699 3.24148 5.32955 3.24148Q6.6321 3.24148 7.64631 3.87784Q8.66051 4.5142 9.24219 5.6875Q9.82386 6.8608 9.82386 8.47159ZM8.63068 8.47159Q8.63068 7.14915 8.1907 6.23935Q7.75071 5.32955 7.00249 4.86222Q6.25426 4.39489 5.32955 4.39489Q4.40483 4.39489 3.65661 4.86222Q2.90838 5.32955 2.46839 6.23935Q2.02841 7.14915 2.02841 8.47159Q2.02841 9.79403 2.46839 10.7038Q2.90838 11.6136 3.65661 12.081Q4.40483 12.5483 5.32955 12.5483Q6.25426 12.5483 7.00249 12.081Q7.75071 11.6136 8.1907 10.7038Q8.63068 9.79403 8.63068 8.47159ZM18.5739 3.38068L19.8068 3.38068L19.8068 10.1222Q19.8068 11.1662 19.3171 11.984Q18.8274 12.8018 17.9375 13.2717Q17.0476 13.7415 15.8494 13.7415Q14.6513 13.7415 13.7614 13.2717Q12.8714 12.8018 12.3817 11.984Q11.892 11.1662 11.892 10.1222L11.892 3.38068L13.125 3.38068L13.125 10.0227Q13.125 11.1413 13.8509 11.8647Q14.5767 12.5881 15.8494 12.5881Q17.1271 12.5881 17.8505 11.8647Q18.5739 11.1413 18.5739 10.0227L18.5739 3.38068ZM21.7159 4.47443L21.7159 3.38068L29.3523 3.38068L29.3523 4.47443L26.1506 4.47443L26.1506 13.5625L24.9176 13.5625L24.9176 4.47443L21.7159 4.47443ZM35.0199 13.5625L35.0199 12.6676L38.3807 8.98864Q38.9723 8.34233 39.3551 7.86257Q39.7379 7.38281 39.9244 6.95774Q40.1108 6.53267 40.1108 6.06534Q40.1108 5.25994 39.5515 4.78764Q38.9922 4.31534 38.1619 4.31534Q37.277 4.31534 36.755 4.84482Q36.233 5.37429 36.233 6.24432L35.0597 6.24432Q35.0597 5.34943 35.4723 4.6733Q35.8849 3.99716 36.5984 3.61932Q37.3118 3.24148 38.2017 3.24148Q39.0966 3.24148 39.7876 3.61932Q40.4787 3.99716 40.8714 4.63849Q41.2642 5.27983 41.2642 6.06534Q41.2642 6.62713 41.0629 7.16158Q40.8615 7.69602 40.3668 8.34979Q39.8722 9.00355 38.9972 9.94318L36.7102 12.3892L36.7102 12.4688L41.4432 12.4688L41.4432 13.5625L35.0199 13.5625Z" />
          </g>
        </g>
        <path d="M0 54.5C0 33.7893 16.7893 17 37.5 17C58.2107 17 75 33.7893 75 54.5C75 75.2107 58.2107 92 37.5 92C16.7893 92 0 75.2107 0 54.5Z" id="Oval" fill="#454545" fill-rule="evenodd" stroke="none" />
        <path d="M20 55C20 53.3431 21.3431 52 23 52C24.6569 52 26 53.3431 26 55C26 56.6569 24.6569 58 23 58C21.3431 58 20 56.6569 20 55Z" id="Oval-2" fill="#B2B2B2" fill-rule="evenodd" stroke="none" />
        <path d="M48 55C48 53.3431 49.3431 52 51 52C52.6569 52 54 53.3431 54 55C54 56.6569 52.6569 58 51 58C49.3431 58 48 56.6569 48 55Z" id="Oval-3" fill="#B2B2B2" fill-rule="evenodd" stroke="none" />
        <path d="M34 41.0001C34 39.3433 35.3431 38.0001 37 38.0001C38.6569 38.0001 40 39.3433 40 41.0001C40 42.657 38.6569 44.0001 37 44.0001C35.3431 44.0001 34 42.657 34 41.0001Z" id="Oval-4" fill="#B2B2B2" fill-rule="evenodd" stroke="none" />
      </g>
      <g id="XLRM-3" transform="translate(188 0)">
        <g id="OUT-3" transform="translate(39.5 0)">
          <g transform="translate(0, 3.3806818)" id="OUT-3" fill="#FFFFFF">
            <path d="M9.82386 8.47159Q9.82386 10.0824 9.24219 11.2557Q8.66051 12.429 7.64631 13.0653Q6.6321 13.7017 5.32955 13.7017Q4.02699 13.7017 3.01278 13.0653Q1.99858 12.429 1.4169 11.2557Q0.835227 10.0824 0.835227 8.47159Q0.835227 6.8608 1.4169 5.6875Q1.99858 4.5142 3.01278 3.87784Q4.02699 3.24148 5.32955 3.24148Q6.6321 3.24148 7.64631 3.87784Q8.66051 4.5142 9.24219 5.6875Q9.82386 6.8608 9.82386 8.47159ZM8.63068 8.47159Q8.63068 7.14915 8.1907 6.23935Q7.75071 5.32955 7.00249 4.86222Q6.25426 4.39489 5.32955 4.39489Q4.40483 4.39489 3.65661 4.86222Q2.90838 5.32955 2.46839 6.23935Q2.02841 7.14915 2.02841 8.47159Q2.02841 9.79403 2.46839 10.7038Q2.90838 11.6136 3.65661 12.081Q4.40483 12.5483 5.32955 12.5483Q6.25426 12.5483 7.00249 12.081Q7.75071 11.6136 8.1907 10.7038Q8.63068 9.79403 8.63068 8.47159ZM18.5739 3.38068L19.8068 3.38068L19.8068 10.1222Q19.8068 11.1662 19.3171 11.984Q18.8274 12.8018 17.9375 13.2717Q17.0476 13.7415 15.8494 13.7415Q14.6513 13.7415 13.7614 13.2717Q12.8714 12.8018 12.3817 11.984Q11.892 11.1662 11.892 10.1222L11.892 3.38068L13.125 3.38068L13.125 10.0227Q13.125 11.1413 13.8509 11.8647Q14.5767 12.5881 15.8494 12.5881Q17.1271 12.5881 17.8505 11.8647Q18.5739 11.1413 18.5739 10.0227L18.5739 3.38068ZM21.7159 4.47443L21.7159 3.38068L29.3523 3.38068L29.3523 4.47443L26.1506 4.47443L26.1506 13.5625L24.9176 13.5625L24.9176 4.47443L21.7159 4.47443ZM38.4602 13.7017Q37.4759 13.7017 36.7077 13.3636Q35.9396 13.0256 35.4897 12.4215Q35.0398 11.8175 35 11.017L36.2528 11.017Q36.3075 11.7528 36.9315 12.1804Q37.5554 12.608 38.4403 12.608Q39.4197 12.608 40.0536 12.1083Q40.6875 11.6087 40.6875 10.7983Q40.6875 9.95312 40.0636 9.42117Q39.4396 8.8892 38.2812 8.8892L37.4659 8.8892L37.4659 7.79545L38.2812 7.79545Q39.1861 7.79545 39.7578 7.31321Q40.3295 6.83097 40.3295 6.02557Q40.3295 5.25497 39.8274 4.78516Q39.3253 4.31534 38.4801 4.31534Q37.9531 4.31534 37.4883 4.50675Q37.0234 4.69815 36.7301 5.05859Q36.4368 5.41903 36.4119 5.92614L35.2188 5.92614Q35.2486 5.12571 35.701 4.52166Q36.1534 3.91761 36.8867 3.57955Q37.62 3.24148 38.5 3.24148Q39.4446 3.24148 40.1207 3.6218Q40.7969 4.00213 41.1598 4.62358Q41.5227 5.24503 41.5227 5.96591Q41.5227 6.82599 41.0728 7.43253Q40.6229 8.03906 39.8523 8.27273L39.8523 8.35227Q40.8168 8.51136 41.3587 9.1701Q41.9006 9.82884 41.9006 10.7983Q41.9006 11.6286 41.4506 12.2873Q41.0007 12.946 40.2251 13.3239Q39.4496 13.7017 38.4602 13.7017Z" />
          </g>
        </g>
        <path d="M0 54.5C0 33.7893 16.7893 17 37.5 17C58.2107 17 75 33.7893 75 54.5C75 75.2107 58.2107 92 37.5 92C16.7893 92 0 75.2107 0 54.5Z" id="Oval" fill="#454545" fill-rule="evenodd" stroke="none" />
        <path d="M20 55C20 53.3431 21.3431 52 23 52C24.6569 52 26 53.3431 26 55C26 56.6569 24.6569 58 23 58C21.3431 58 20 56.6569 20 55Z" id="Oval-2" fill="#B2B2B2" fill-rule="evenodd" stroke="none" />
        <path d="M48 55C48 53.3431 49.3431 52 51 52C52.6569 52 54 53.3431 54 55C54 56.6569 52.6569 58 51 58C49.3431 58 48 56.6569 48 55Z" id="Oval-3" fill="#B2B2B2" fill-rule="evenodd" stroke="none" />
        <path d="M34 41.0001C34 39.3433 35.3431 38.0001 37 38.0001C38.6569 38.0001 40 39.3433 40 41.0001C40 42.657 38.6569 44.0001 37 44.0001C35.3431 44.0001 34 42.657 34 41.0001Z" id="Oval-4" fill="#B2B2B2" fill-rule="evenodd" stroke="none" />
      </g>
      <g id="XLRM-4" transform="translate(282 0)">
        <g id="OUT-4" transform="translate(39.5 0)">
          <g transform="translate(0, 3.3806818)" id="OUT-4" fill="#FFFFFF">
            <path d="M9.82386 8.47159Q9.82386 10.0824 9.24219 11.2557Q8.66051 12.429 7.64631 13.0653Q6.6321 13.7017 5.32955 13.7017Q4.02699 13.7017 3.01278 13.0653Q1.99858 12.429 1.4169 11.2557Q0.835227 10.0824 0.835227 8.47159Q0.835227 6.8608 1.4169 5.6875Q1.99858 4.5142 3.01278 3.87784Q4.02699 3.24148 5.32955 3.24148Q6.6321 3.24148 7.64631 3.87784Q8.66051 4.5142 9.24219 5.6875Q9.82386 6.8608 9.82386 8.47159ZM8.63068 8.47159Q8.63068 7.14915 8.1907 6.23935Q7.75071 5.32955 7.00249 4.86222Q6.25426 4.39489 5.32955 4.39489Q4.40483 4.39489 3.65661 4.86222Q2.90838 5.32955 2.46839 6.23935Q2.02841 7.14915 2.02841 8.47159Q2.02841 9.79403 2.46839 10.7038Q2.90838 11.6136 3.65661 12.081Q4.40483 12.5483 5.32955 12.5483Q6.25426 12.5483 7.00249 12.081Q7.75071 11.6136 8.1907 10.7038Q8.63068 9.79403 8.63068 8.47159ZM18.5739 3.38068L19.8068 3.38068L19.8068 10.1222Q19.8068 11.1662 19.3171 11.984Q18.8274 12.8018 17.9375 13.2717Q17.0476 13.7415 15.8494 13.7415Q14.6513 13.7415 13.7614 13.2717Q12.8714 12.8018 12.3817 11.984Q11.892 11.1662 11.892 10.1222L11.892 3.38068L13.125 3.38068L13.125 10.0227Q13.125 11.1413 13.8509 11.8647Q14.5767 12.5881 15.8494 12.5881Q17.1271 12.5881 17.8505 11.8647Q18.5739 11.1413 18.5739 10.0227L18.5739 3.38068ZM21.7159 4.47443L21.7159 3.38068L29.3523 3.38068L29.3523 4.47443L26.1506 4.47443L26.1506 13.5625L24.9176 13.5625L24.9176 4.47443L21.7159 4.47443ZM34.7812 11.4744L34.7812 10.4602L39.2557 3.38068L40.7472 3.38068L40.7472 10.3807L42.1392 10.3807L42.1392 11.4744L40.7472 11.4744L40.7472 13.5625L39.5739 13.5625L39.5739 11.4744L34.7812 11.4744ZM39.5739 10.3807L39.5739 4.9517L39.4943 4.9517L36.1136 10.3011L36.1136 10.3807L39.5739 10.3807Z" />
          </g>
        </g>
        <path d="M0 54.5C0 33.7893 16.7893 17 37.5 17C58.2107 17 75 33.7893 75 54.5C75 75.2107 58.2107 92 37.5 92C16.7893 92 0 75.2107 0 54.5Z" id="Oval" fill="#454545" fill-rule="evenodd" stroke="none" />
        <path d="M20 55C20 53.3431 21.3431 52 23 52C24.6569 52 26 53.3431 26 55C26 56.6569 24.6569 58 23 58C21.3431 58 20 56.6569 20 55Z" id="Oval-2" fill="#B2B2B2" fill-rule="evenodd" stroke="none" />
        <path d="M48 55C48 53.3431 49.3431 52 51 52C52.6569 52 54 53.3431 54 55C54 56.6569 52.6569 58 51 58C49.3431 58 48 56.6569 48 55Z" id="Oval-3" fill="#B2B2B2" fill-rule="evenodd" stroke="none" />
        <path d="M34 41.0001C34 39.3433 35.3431 38.0001 37 38.0001C38.6569 38.0001 40 39.3433 40 41.0001C40 42.657 38.6569 44.0001 37 44.0001C35.3431 44.0001 34 42.657 34 41.0001Z" id="Oval-4" fill="#B2B2B2" fill-rule="evenodd" stroke="none" />
      </g>
      <g id="XLRM-5" transform="translate(376 0)">
        <g id="OUT-5" transform="translate(39.5 0)">
          <g transform="translate(0, 3.3806818)" id="OUT-5" fill="#FFFFFF">
            <path d="M9.82386 8.47159Q9.82386 10.0824 9.24219 11.2557Q8.66051 12.429 7.64631 13.0653Q6.6321 13.7017 5.32955 13.7017Q4.02699 13.7017 3.01278 13.0653Q1.99858 12.429 1.4169 11.2557Q0.835227 10.0824 0.835227 8.47159Q0.835227 6.8608 1.4169 5.6875Q1.99858 4.5142 3.01278 3.87784Q4.02699 3.24148 5.32955 3.24148Q6.6321 3.24148 7.64631 3.87784Q8.66051 4.5142 9.24219 5.6875Q9.82386 6.8608 9.82386 8.47159ZM8.63068 8.47159Q8.63068 7.14915 8.1907 6.23935Q7.75071 5.32955 7.00249 4.86222Q6.25426 4.39489 5.32955 4.39489Q4.40483 4.39489 3.65661 4.86222Q2.90838 5.32955 2.46839 6.23935Q2.02841 7.14915 2.02841 8.47159Q2.02841 9.79403 2.46839 10.7038Q2.90838 11.6136 3.65661 12.081Q4.40483 12.5483 5.32955 12.5483Q6.25426 12.5483 7.00249 12.081Q7.75071 11.6136 8.1907 10.7038Q8.63068 9.79403 8.63068 8.47159ZM18.5739 3.38068L19.8068 3.38068L19.8068 10.1222Q19.8068 11.1662 19.3171 11.984Q18.8274 12.8018 17.9375 13.2717Q17.0476 13.7415 15.8494 13.7415Q14.6513 13.7415 13.7614 13.2717Q12.8714 12.8018 12.3817 11.984Q11.892 11.1662 11.892 10.1222L11.892 3.38068L13.125 3.38068L13.125 10.0227Q13.125 11.1413 13.8509 11.8647Q14.5767 12.5881 15.8494 12.5881Q17.1271 12.5881 17.8505 11.8647Q18.5739 11.1413 18.5739 10.0227L18.5739 3.38068ZM21.7159 4.47443L21.7159 3.38068L29.3523 3.38068L29.3523 4.47443L26.1506 4.47443L26.1506 13.5625L24.9176 13.5625L24.9176 4.47443L21.7159 4.47443ZM38.2017 13.7017Q37.3267 13.7017 36.6257 13.3537Q35.9247 13.0057 35.5021 12.3991Q35.0795 11.7926 35.0398 11.017L36.233 11.017Q36.3026 11.7081 36.8619 12.158Q37.4212 12.608 38.2017 12.608Q38.8281 12.608 39.3178 12.3146Q39.8075 12.0213 40.0884 11.5067Q40.3693 10.9922 40.3693 10.3409Q40.3693 9.67472 40.0785 9.15021Q39.7876 8.62571 39.2805 8.32244Q38.7734 8.01918 38.1222 8.0142Q37.6548 8.00923 37.1626 8.1559Q36.6705 8.30256 36.3523 8.53125L35.1989 8.39205L35.8153 3.38068L41.1051 3.38068L41.1051 4.47443L36.8494 4.47443L36.4915 7.47727L36.5511 7.47727Q36.8643 7.22869 37.3366 7.06463Q37.8089 6.90057 38.321 6.90057Q39.2557 6.90057 39.989 7.34553Q40.7223 7.79048 41.1424 8.56108Q41.5625 9.33168 41.5625 10.321Q41.5625 11.2955 41.1275 12.0586Q40.6925 12.8217 39.9318 13.2617Q39.1712 13.7017 38.2017 13.7017Z" />
          </g>
        </g>
        <path d="M0 54.5C0 33.7893 16.7893 17 37.5 17C58.2107 17 75 33.7893 75 54.5C75 75.2107 58.2107 92 37.5 92C16.7893 92 0 75.2107 0 54.5Z" id="Oval" fill="#454545" fill-rule="evenodd" stroke="none" />
        <path d="M20 55C20 53.3431 21.3431 52 23 52C24.6569 52 26 53.3431 26 55C26 56.6569 24.6569 58 23 58C21.3431 58 20 56.6569 20 55Z" id="Oval-2" fill="#B2B2B2" fill-rule="evenodd" stroke="none" />
        <path d="M48 55C48 53.3431 49.3431 52 51 52C52.6569 52 54 53.3431 54 55C54 56.6569 52.6569 58 51 58C49.3431 58 48 56.6569 48 55Z" id="Oval-3" fill="#B2B2B2" fill-rule="evenodd" stroke="none" />
        <path d="M34 41.0001C34 39.3433 35.3431 38.0001 37 38.0001C38.6569 38.0001 40 39.3433 40 41.0001C40 42.657 38.6569 44.0001 37 44.0001C35.3431 44.0001 34 42.657 34 41.0001Z" id="Oval-4" fill="#B2B2B2" fill-rule="evenodd" stroke="none" />
      </g>
      <g id="XLRM-6" transform="translate(470 0)">
        <g id="OUT-6" transform="translate(39.5 0)">
          <g transform="translate(0, 3.3806818)" id="OUT-6" fill="#FFFFFF">
            <path d="M9.82386 8.47159Q9.82386 10.0824 9.24219 11.2557Q8.66051 12.429 7.64631 13.0653Q6.6321 13.7017 5.32955 13.7017Q4.02699 13.7017 3.01278 13.0653Q1.99858 12.429 1.4169 11.2557Q0.835227 10.0824 0.835227 8.47159Q0.835227 6.8608 1.4169 5.6875Q1.99858 4.5142 3.01278 3.87784Q4.02699 3.24148 5.32955 3.24148Q6.6321 3.24148 7.64631 3.87784Q8.66051 4.5142 9.24219 5.6875Q9.82386 6.8608 9.82386 8.47159ZM8.63068 8.47159Q8.63068 7.14915 8.1907 6.23935Q7.75071 5.32955 7.00249 4.86222Q6.25426 4.39489 5.32955 4.39489Q4.40483 4.39489 3.65661 4.86222Q2.90838 5.32955 2.46839 6.23935Q2.02841 7.14915 2.02841 8.47159Q2.02841 9.79403 2.46839 10.7038Q2.90838 11.6136 3.65661 12.081Q4.40483 12.5483 5.32955 12.5483Q6.25426 12.5483 7.00249 12.081Q7.75071 11.6136 8.1907 10.7038Q8.63068 9.79403 8.63068 8.47159ZM18.5739 3.38068L19.8068 3.38068L19.8068 10.1222Q19.8068 11.1662 19.3171 11.984Q18.8274 12.8018 17.9375 13.2717Q17.0476 13.7415 15.8494 13.7415Q14.6513 13.7415 13.7614 13.2717Q12.8714 12.8018 12.3817 11.984Q11.892 11.1662 11.892 10.1222L11.892 3.38068L13.125 3.38068L13.125 10.0227Q13.125 11.1413 13.8509 11.8647Q14.5767 12.5881 15.8494 12.5881Q17.1271 12.5881 17.8505 11.8647Q18.5739 11.1413 18.5739 10.0227L18.5739 3.38068ZM21.7159 4.47443L21.7159 3.38068L29.3523 3.38068L29.3523 4.47443L26.1506 4.47443L26.1506 13.5625L24.9176 13.5625L24.9176 4.47443L21.7159 4.47443ZM38.4006 13.7017Q37.7741 13.6918 37.1477 13.4631Q36.5213 13.2344 36.0043 12.69Q35.4872 12.1456 35.174 11.2134Q34.8608 10.2812 34.8608 8.86932Q34.8608 6.16974 35.8501 4.70561Q36.8395 3.24148 38.5597 3.24148Q39.4148 3.24148 40.0835 3.58203Q40.7521 3.92259 41.1747 4.52912Q41.5973 5.13565 41.7216 5.92614L40.5085 5.92614Q40.3395 5.24006 39.8523 4.78764Q39.3651 4.33523 38.5597 4.33523Q37.3764 4.33523 36.6978 5.36435Q36.0192 6.39347 36.0142 8.25284L36.0938 8.25284Q36.5114 7.62145 37.1626 7.26101Q37.8139 6.90057 38.5994 6.90057Q39.4744 6.90057 40.2003 7.33558Q40.9261 7.7706 41.3636 8.53374Q41.8011 9.29688 41.8011 10.2812Q41.8011 11.2259 41.3786 12.0089Q40.956 12.7919 40.1928 13.2518Q39.4297 13.7116 38.4006 13.7017ZM38.4006 12.608Q39.027 12.608 39.5266 12.2947Q40.0263 11.9815 40.3171 11.4545Q40.608 10.9276 40.608 10.2812Q40.608 9.64986 40.3271 9.13033Q40.0462 8.6108 39.5565 8.30256Q39.0668 7.99432 38.4403 7.99432Q37.8089 7.99432 37.3018 8.31747Q36.7947 8.64062 36.4964 9.16513Q36.1982 9.68963 36.1932 10.3011Q36.1932 10.9077 36.479 11.4347Q36.7649 11.9616 37.2646 12.2848Q37.7642 12.608 38.4006 12.608Z" />
          </g>
        </g>
        <path d="M0 54.5C0 33.7893 16.7893 17 37.5 17C58.2107 17 75 33.7893 75 54.5C75 75.2107 58.2107 92 37.5 92C16.7893 92 0 75.2107 0 54.5Z" id="Oval" fill="#454545" fill-rule="evenodd" stroke="none" />
        <path d="M20 55C20 53.3431 21.3431 52 23 52C24.6569 52 26 53.3431 26 55C26 56.6569 24.6569 58 23 58C21.3431 58 20 56.6569 20 55Z" id="Oval-2" fill="#B2B2B2" fill-rule="evenodd" stroke="none" />
        <path d="M48 55C48 53.3431 49.3431 52 51 52C52.6569 52 54 53.3431 54 55C54 56.6569 52.6569 58 51 58C49.3431 58 48 56.6569 48 55Z" id="Oval-3" fill="#B2B2B2" fill-rule="evenodd" stroke="none" />
        <path d="M34 41.0001C34 39.3433 35.3431 38.0001 37 38.0001C38.6569 38.0001 40 39.3433 40 41.0001C40 42.657 38.6569 44.0001 37 44.0001C35.3431 44.0001 34 42.657 34 41.0001Z" id="Oval-4" fill="#B2B2B2" fill-rule="evenodd" stroke="none" />
      </g>
      <g id="XLRM-7" transform="translate(564 0)">
        <g id="OUT-7" transform="translate(40 0)">
          <g transform="translate(0, 3.3806818)" id="OUT-7" fill="#FFFFFF">
            <path d="M9.82386 8.47159Q9.82386 10.0824 9.24219 11.2557Q8.66051 12.429 7.64631 13.0653Q6.6321 13.7017 5.32955 13.7017Q4.02699 13.7017 3.01278 13.0653Q1.99858 12.429 1.4169 11.2557Q0.835227 10.0824 0.835227 8.47159Q0.835227 6.8608 1.4169 5.6875Q1.99858 4.5142 3.01278 3.87784Q4.02699 3.24148 5.32955 3.24148Q6.6321 3.24148 7.64631 3.87784Q8.66051 4.5142 9.24219 5.6875Q9.82386 6.8608 9.82386 8.47159ZM8.63068 8.47159Q8.63068 7.14915 8.1907 6.23935Q7.75071 5.32955 7.00249 4.86222Q6.25426 4.39489 5.32955 4.39489Q4.40483 4.39489 3.65661 4.86222Q2.90838 5.32955 2.46839 6.23935Q2.02841 7.14915 2.02841 8.47159Q2.02841 9.79403 2.46839 10.7038Q2.90838 11.6136 3.65661 12.081Q4.40483 12.5483 5.32955 12.5483Q6.25426 12.5483 7.00249 12.081Q7.75071 11.6136 8.1907 10.7038Q8.63068 9.79403 8.63068 8.47159ZM18.5739 3.38068L19.8068 3.38068L19.8068 10.1222Q19.8068 11.1662 19.3171 11.984Q18.8274 12.8018 17.9375 13.2717Q17.0476 13.7415 15.8494 13.7415Q14.6513 13.7415 13.7614 13.2717Q12.8714 12.8018 12.3817 11.984Q11.892 11.1662 11.892 10.1222L11.892 3.38068L13.125 3.38068L13.125 10.0227Q13.125 11.1413 13.8509 11.8647Q14.5767 12.5881 15.8494 12.5881Q17.1271 12.5881 17.8505 11.8647Q18.5739 11.1413 18.5739 10.0227L18.5739 3.38068ZM21.7159 4.47443L21.7159 3.38068L29.3523 3.38068L29.3523 4.47443L26.1506 4.47443L26.1506 13.5625L24.9176 13.5625L24.9176 4.47443L21.7159 4.47443ZM35.3381 13.5625L39.892 4.55398L39.892 4.47443L34.642 4.47443L34.642 3.38068L41.1648 3.38068L41.1648 4.53409L36.6307 13.5625L35.3381 13.5625Z" />
          </g>
        </g>
        <path d="M0 54.5C0 33.7893 16.7893 17 37.5 17C58.2107 17 75 33.7893 75 54.5C75 75.2107 58.2107 92 37.5 92C16.7893 92 0 75.2107 0 54.5Z" id="Oval" fill="#454545" fill-rule="evenodd" stroke="none" />
        <path d="M20 55C20 53.3431 21.3431 52 23 52C24.6569 52 26 53.3431 26 55C26 56.6569 24.6569 58 23 58C21.3431 58 20 56.6569 20 55Z" id="Oval-2" fill="#B2B2B2" fill-rule="evenodd" stroke="none" />
        <path d="M48 55C48 53.3431 49.3431 52 51 52C52.6569 52 54 53.3431 54 55C54 56.6569 52.6569 58 51 58C49.3431 58 48 56.6569 48 55Z" id="Oval-3" fill="#B2B2B2" fill-rule="evenodd" stroke="none" />
        <path d="M34 41.0001C34 39.3433 35.3431 38.0001 37 38.0001C38.6569 38.0001 40 39.3433 40 41.0001C40 42.657 38.6569 44.0001 37 44.0001C35.3431 44.0001 34 42.657 34 41.0001Z" id="Oval-4" fill="#B2B2B2" fill-rule="evenodd" stroke="none" />
      </g>
      <g id="XLRM-8" transform="translate(658 0)">
        <g id="OUT-8" transform="translate(39.5 0)">
          <g transform="translate(0, 3.3806818)" id="OUT-8" fill="#FFFFFF">
            <path d="M9.82386 8.47159Q9.82386 10.0824 9.24219 11.2557Q8.66051 12.429 7.64631 13.0653Q6.6321 13.7017 5.32955 13.7017Q4.02699 13.7017 3.01278 13.0653Q1.99858 12.429 1.4169 11.2557Q0.835227 10.0824 0.835227 8.47159Q0.835227 6.8608 1.4169 5.6875Q1.99858 4.5142 3.01278 3.87784Q4.02699 3.24148 5.32955 3.24148Q6.6321 3.24148 7.64631 3.87784Q8.66051 4.5142 9.24219 5.6875Q9.82386 6.8608 9.82386 8.47159ZM8.63068 8.47159Q8.63068 7.14915 8.1907 6.23935Q7.75071 5.32955 7.00249 4.86222Q6.25426 4.39489 5.32955 4.39489Q4.40483 4.39489 3.65661 4.86222Q2.90838 5.32955 2.46839 6.23935Q2.02841 7.14915 2.02841 8.47159Q2.02841 9.79403 2.46839 10.7038Q2.90838 11.6136 3.65661 12.081Q4.40483 12.5483 5.32955 12.5483Q6.25426 12.5483 7.00249 12.081Q7.75071 11.6136 8.1907 10.7038Q8.63068 9.79403 8.63068 8.47159ZM18.5739 3.38068L19.8068 3.38068L19.8068 10.1222Q19.8068 11.1662 19.3171 11.984Q18.8274 12.8018 17.9375 13.2717Q17.0476 13.7415 15.8494 13.7415Q14.6513 13.7415 13.7614 13.2717Q12.8714 12.8018 12.3817 11.984Q11.892 11.1662 11.892 10.1222L11.892 3.38068L13.125 3.38068L13.125 10.0227Q13.125 11.1413 13.8509 11.8647Q14.5767 12.5881 15.8494 12.5881Q17.1271 12.5881 17.8505 11.8647Q18.5739 11.1413 18.5739 10.0227L18.5739 3.38068ZM21.7159 4.47443L21.7159 3.38068L29.3523 3.38068L29.3523 4.47443L26.1506 4.47443L26.1506 13.5625L24.9176 13.5625L24.9176 4.47443L21.7159 4.47443ZM38.2812 13.7017Q37.2571 13.7017 36.4741 13.3363Q35.6911 12.9709 35.2536 12.3271Q34.8161 11.6832 34.821 10.858Q34.8161 10.2116 35.0746 9.66229Q35.3331 9.11293 35.783 8.74254Q36.233 8.37216 36.7898 8.27273L36.7898 8.21307Q36.0589 8.02415 35.6264 7.39027Q35.1939 6.75639 35.1989 5.94602Q35.1939 5.17045 35.5916 4.55895Q35.9893 3.94744 36.6879 3.59446Q37.3864 3.24148 38.2812 3.24148Q39.1662 3.24148 39.8622 3.59446Q40.5582 3.94744 40.9585 4.55895Q41.3587 5.17045 41.3636 5.94602Q41.3587 6.75639 40.9236 7.39027Q40.4886 8.02415 39.7727 8.21307L39.7727 8.27273Q40.3246 8.37216 40.767 8.74254Q41.2095 9.11293 41.473 9.66229Q41.7365 10.2116 41.7415 10.858Q41.7365 11.6832 41.2965 12.3271Q40.8565 12.9709 40.0785 13.3363Q39.3004 13.7017 38.2812 13.7017ZM38.2812 12.608Q39.3153 12.608 39.9194 12.1133Q40.5234 11.6186 40.5284 10.7983Q40.5234 10.2216 40.2301 9.77912Q39.9368 9.33665 39.4322 9.0831Q38.9276 8.82955 38.2812 8.82955Q37.63 8.82955 37.1204 9.0831Q36.6108 9.33665 36.32 9.77912Q36.0291 10.2216 36.0341 10.7983Q36.0291 11.6186 36.6307 12.1133Q37.2322 12.608 38.2812 12.608ZM38.2812 7.77557Q39.1016 7.77557 39.6335 7.29581Q40.1655 6.81605 40.1705 6.02557Q40.1655 5.25 39.646 4.78267Q39.1264 4.31534 38.2812 4.31534Q37.4261 4.31534 36.9066 4.78267Q36.3871 5.25 36.392 6.02557Q36.3871 6.81605 36.9165 7.29581Q37.446 7.77557 38.2812 7.77557Z" />
          </g>
        </g>
        <path d="M0 54.5C0 33.7893 16.7893 17 37.5 17C58.2107 17 75 33.7893 75 54.5C75 75.2107 58.2107 92 37.5 92C16.7893 92 0 75.2107 0 54.5Z" id="Oval" fill="#454545" fill-rule="evenodd" stroke="none" />
        <path d="M20 55C20 53.3431 21.3431 52 23 52C24.6569 52 26 53.3431 26 55C26 56.6569 24.6569 58 23 58C21.3431 58 20 56.6569 20 55Z" id="Oval-2" fill="#B2B2B2" fill-rule="evenodd" stroke="none" />
        <path d="M48 55C48 53.3431 49.3431 52 51 52C52.6569 52 54 53.3431 54 55C54 56.6569 52.6569 58 51 58C49.3431 58 48 56.6569 48 55Z" id="Oval-3" fill="#B2B2B2" fill-rule="evenodd" stroke="none" />
        <path d="M34 41.0001C34 39.3433 35.3431 38.0001 37 38.0001C38.6569 38.0001 40 39.3433 40 41.0001C40 42.657 38.6569 44.0001 37 44.0001C35.3431 44.0001 34 42.657 34 41.0001Z" id="Oval-4" fill="#B2B2B2" fill-rule="evenodd" stroke="none" />
      </g>
    </g>
    <path d="M196 81C200.419 81 204 84.5811 204 89L204 212C204 216.419 200.419 220 196 220L118 220C113.581 220 110 216.419 110 212L110 89C110 84.5811 113.581 81 118 81L196 81Z" id="Rectangle-17" fill="#B2B2B2" stroke="none" />
    <path d="M57 34C63.076 34 68 38.924 68 45L68 270C68 276.076 63.076 281 57 281L57 281C50.924 281 46 276.076 46 270L46 45C46 38.924 50.924 34 57 34Z" id="Rectangle-18" fill="#D5D5D5" stroke="none" />
    <path d="M1053 34C1059.08 34 1064 38.924 1064 45L1064 270C1064 276.076 1059.08 281 1053 281L1053 281C1046.92 281 1042 276.076 1042 270L1042 45C1042 38.924 1046.92 34 1053 34Z" id="Rectangle-19" fill="#D5D5D5" stroke="none" />
    <g id="USB" transform="translate(140 227.99988)">
      <path d="M32 0C34.2094 0 36 1.79056 36 4L36 36C36 38.2094 34.2094 40 32 40L4 40C1.79056 40 0 38.2094 0 36L0 4C0 1.79056 1.79056 0 4 0L32 0Z" id="Rectangle-20" fill="#D5D5D5" stroke="none" />
      <path d="M24.929 34.0208L5 34.0208L5 6.02082L24.9749 6.02082L24.9957 6L31.0208 12.0251L31 12.046L31 28.0209L30.9705 28.0209L25 33.9914L25 34.0208L24.9706 34.0208L24.9498 34.0416L24.929 34.0208Z" id="Rectangle-21-Union" fill="#000000" fill-rule="evenodd" stroke="none" />
      <path d="M12 12L22 12L22 29L12 29L12 12Z" id="Rectangle-21" fill="#454545" fill-rule="evenodd" stroke="none" />
      <g id="USB" transform="matrix(0 1 -1 0 62 8)">
        <g transform="translate(0, 2.8977273)" id="USB" fill="#FFFFFF">
          <path d="M6.78409 2.89773L7.84091 2.89773L7.84091 8.67614Q7.84091 9.57102 7.42116 10.272Q7.00142 10.973 6.23864 11.3757Q5.47585 11.7784 4.44886 11.7784Q3.42188 11.7784 2.65909 11.3757Q1.89631 10.973 1.47656 10.272Q1.05682 9.57102 1.05682 8.67614L1.05682 2.89773L2.11364 2.89773L2.11364 8.59091Q2.11364 9.54972 2.7358 10.1697Q3.35795 10.7898 4.44886 10.7898Q5.54403 10.7898 6.16406 10.1697Q6.78409 9.54972 6.78409 8.59091L6.78409 2.89773ZM14.7273 5.07955Q14.6506 4.43182 14.1051 4.07386Q13.5597 3.71591 12.767 3.71591Q11.8977 3.71591 11.3693 4.12713Q10.8409 4.53835 10.8409 5.16477Q10.8409 5.63352 11.1286 5.92116Q11.4162 6.20881 11.8104 6.36861Q12.2045 6.52841 12.5284 6.61364L13.4148 6.85227Q13.7557 6.94176 14.1754 7.09943Q14.5952 7.2571 14.9808 7.5277Q15.3665 7.7983 15.6179 8.22017Q15.8693 8.64205 15.8693 9.25568Q15.8693 9.96307 15.5007 10.5341Q15.1321 11.1051 14.4268 11.4418Q13.7216 11.7784 12.7159 11.7784Q11.3097 11.7784 10.483 11.1136Q9.65625 10.4489 9.57955 9.375L10.6705 9.375Q10.7131 9.86932 11.005 10.1911Q11.2969 10.5128 11.7464 10.6683Q12.196 10.8239 12.7159 10.8239Q13.321 10.8239 13.8026 10.6257Q14.2841 10.4276 14.5653 10.0717Q14.8466 9.71591 14.8466 9.23864Q14.8466 8.80398 14.6037 8.53125Q14.3608 8.25852 13.9645 8.08807Q13.5682 7.91761 13.108 7.78977L12.0341 7.48295Q11.0114 7.18892 10.4148 6.64347Q9.81818 6.09801 9.81818 5.21591Q9.81818 4.48295 10.2166 3.93537Q10.6151 3.38778 11.2905 3.0831Q11.9659 2.77841 12.8011 2.77841Q13.6449 2.77841 14.3011 3.07884Q14.9574 3.37926 15.343 3.89915Q15.7287 4.41903 15.75 5.07955L14.7273 5.07955ZM17.608 11.625L17.608 2.89773L20.6591 2.89773Q21.571 2.89773 22.1634 3.21094Q22.7557 3.52415 23.0455 4.05043Q23.3352 4.5767 23.3352 5.21591Q23.3352 5.77841 23.1371 6.14489Q22.9389 6.51136 22.6172 6.72443Q22.2955 6.9375 21.9205 7.03977L21.9205 7.125Q22.321 7.15057 22.7259 7.40625Q23.1307 7.66193 23.4034 8.1392Q23.6761 8.61648 23.6761 9.30682Q23.6761 9.96307 23.3778 10.4872Q23.0795 11.0114 22.4361 11.3182Q21.7926 11.625 20.7614 11.625L17.608 11.625ZM18.6648 10.6875L20.7614 10.6875Q21.7969 10.6875 22.2337 10.2848Q22.6705 9.8821 22.6705 9.30682Q22.6705 8.86364 22.4446 8.48651Q22.2188 8.10938 21.8011 7.88139Q21.3835 7.65341 20.8125 7.65341L18.6648 7.65341L18.6648 10.6875ZM18.6648 6.73295L20.625 6.73295Q21.3409 6.73295 21.8352 6.3196Q22.3295 5.90625 22.3295 5.21591Q22.3295 4.64062 21.929 4.23793Q21.5284 3.83523 20.6591 3.83523L18.6648 3.83523L18.6648 6.73295Z" />
        </g>
      </g>
    </g>
    <g id="RJ45" transform="translate(128 88)">
      <path d="M54 0C56.2094 0 58 1.79056 58 4L58 50C58 52.2094 56.2094 54 54 54L4 54C1.79056 54 0 52.2094 0 50L0 4C0 1.79056 1.79056 0 4 0L54 0Z" id="Rectangle-20" fill="#D5D5D5" stroke="none" />
      <path d="M17 49L17 5L44 5L44 14L49 14L49 19L54 19L54 34L49 34L49 39L44 39L44 49L17 49Z" id="Rectangle-21-Union" fill="#000000" fill-rule="evenodd" stroke="none" />
    </g>
    <g id="RJ45-2" transform="translate(128 158)">
      <path d="M54 0C56.2094 0 58 1.79056 58 4L58 50C58 52.2094 56.2094 54 54 54L4 54C1.79056 54 0 52.2094 0 50L0 4C0 1.79056 1.79056 0 4 0L54 0Z" id="Rectangle-20" fill="#D5D5D5" stroke="none" />
      <path d="M17 49L17 5L44 5L44 14L49 14L49 19L54 19L54 34L49 34L49 39L44 39L44 49L17 49Z" id="Rectangle-21-Union" fill="#000000" fill-rule="evenodd" stroke="none" />
    </g>
  </g>
</svg>