<?xml version="1.0" encoding="utf-8"?>
<svg width="1000px" height="871.99994px" viewBox="0 0 1000 871.99994" version="1.1" xmlns:xlink="http://www.w3.org/1999/xlink" xmlns="http://www.w3.org/2000/svg">
  <defs>
    <path d="M0 0L50 0L50 50L0 50L0 0Z" id="path_1" />
    <path d="M0 0L37.5 0L37.5 38L0 38L0 0Z" id="path_2" />
    <path d="M0 0L114 0L114 21L0 21L0 0Z" id="path_3" />
    <clipPath id="clip_1">
      <use xlink:href="#path_1" />
    </clipPath>
    <clipPath id="clip_2">
      <use xlink:href="#path_2" transform="translate(0, 2.784092)" />
    </clipPath>
    <clipPath id="clip_3">
      <use xlink:href="#path_3" />
    </clipPath>
  </defs>
  <g id="Group-11">
    <path d="M940 35C973.142 35 1000 61.8584 1000 95L1000 812C1000 845.142 973.142 872 940 872L60 872C26.8584 872 0 845.142 0 812L0 95C0 61.8584 26.8584 35 60 35L940 35Z" id="Rectangle" fill="#303030" stroke="none" />
    <path d="M905 367C909.419 367 913 370.581 913 375L913 473C913 477.419 909.419 481 905 481L834 481C829.581 481 826 477.419 826 473L826 375C826 370.581 829.581 367 834 367L905 367Z" id="Rectangle-15" fill="#B2B2B2" stroke="none" />
    <path d="M905 486C909.419 486 913 489.581 913 494L913 653C913 657.419 909.419 661 905 661L834 661C829.581 661 826 657.419 826 653L826 494C826 489.581 829.581 486 834 486L905 486Z" id="Rectangle-14" fill="#B2B2B2" stroke="none" />
    <path d="M905 666C909.419 666 913 669.581 913 674L913 778C913 782.419 909.419 786 905 786L834 786C829.581 786 826 782.419 826 778L826 674C826 669.581 829.581 666 834 666L905 666Z" id="Rectangle-13" fill="#B2B2B2" stroke="none" />
    <g id="Group-7" transform="translate(84 79)">
      <path d="M382 67C386.419 67 390 70.5811 390 75L390 270C390 274.419 386.419 278 382 278L329 278C324.581 278 321 274.419 321 270L321 75C321 70.5811 324.581 67 329 67L382 67Z" id="Rectangle-11" fill="#B2B2B2" stroke="none" />
      <path d="M310 67C314.419 67 318 70.5811 318 75L318 270C318 274.419 314.419 278 310 278L160 278C155.581 278 152 274.419 152 270L152 75C152 70.5811 155.581 67 160 67L310 67Z" id="Rectangle-12" fill="#B2B2B2" stroke="none" />
      <path d="M140 67C144.419 67 148 70.5811 148 75L148 162C148 166.419 144.419 170 140 170L8 170C3.58112 170 0 166.419 0 162L0 75C0 70.5811 3.58112 67 8 67L140 67Z" id="Rectangle-3" fill="#B2B2B2" stroke="none" />
      <path d="M140 174C144.419 174 148 177.581 148 182L148 269C148 273.419 144.419 277 140 277L84 277C79.5811 277 76 273.419 76 269L76 182C76 177.581 79.5811 174 84 174L140 174Z" id="Rectangle-4" fill="#B2B2B2" stroke="none" />
      <path d="M64 174C68.4189 174 72 177.581 72 182L72 269C72 273.419 68.4189 277 64 277L8 277C3.58112 277 0 273.419 0 269L0 182C0 177.581 3.58112 174 8 174L64 174Z" id="Rectangle-5" fill="#B2B2B2" stroke="none" />
      <path d="M140 0C144.419 0 148 3.58112 148 8L148 55C148 59.4189 144.419 63 140 63L8 63C3.58112 63 0 59.4189 0 55L0 8C0 3.58112 3.58112 0 8 0L140 0Z" id="Rectangle-6" fill="#B2B2B2" stroke="none" />
      <path d="M310 0C314.419 0 318 3.58112 318 8L318 55C318 59.4189 314.419 63 310 63L160 63C155.581 63 152 59.4189 152 55L152 8C152 3.58112 155.581 0 160 0L310 0Z" id="Rectangle-7" fill="#B2B2B2" stroke="none" />
      <path d="M382 0C386.419 0 390 3.58112 390 8L390 55C390 59.4189 386.419 63 382 63L329 63C324.581 63 321 59.4189 321 55L321 8C321 3.58112 324.581 0 329 0L382 0Z" id="Rectangle-8" fill="#B2B2B2" stroke="none" />
    </g>
    <g id="Group-10" transform="translate(84 367)">
      <g id="Group-8">
        <g id="Fader-bank" transform="translate(33 0)">
          <path d="M30 0C34.4189 0 38 3.58112 38 8L38 411C38 415.419 34.4189 419 30 419L8 419C3.58112 419 0 415.419 0 411L0 8C0 3.58112 3.58112 0 8 0L30 0Z" id="Rectangle-3" fill="#454545" stroke="none" />
          <path d="M68 0C72.4189 0 76 3.58112 76 8L76 411C76 415.419 72.4189 419 68 419L46 419C41.5811 419 38 415.419 38 411L38 8C38 3.58112 41.5811 0 46 0L68 0Z" id="Rectangle-4" fill="#B2B2B2" stroke="none" />
          <path d="M106 0C110.419 0 114 3.58112 114 8L114 411C114 415.419 110.419 419 106 419L84 419C79.5811 419 76 415.419 76 411L76 8C76 3.58112 79.5811 0 84 0L106 0Z" id="Rectangle-5" fill="#454545" stroke="none" />
          <path d="M144 0C148.419 0 152 3.58112 152 8L152 411C152 415.419 148.419 419 144 419L122 419C117.581 419 114 415.419 114 411L114 8C114 3.58112 117.581 0 122 0L144 0Z" id="Rectangle-6" fill="#B2B2B2" stroke="none" />
          <path d="M182 0C186.419 0 190 3.58112 190 8L190 411C190 415.419 186.419 419 182 419L160 419C155.581 419 152 415.419 152 411L152 8C152 3.58112 155.581 0 160 0L182 0Z" id="Rectangle-7" fill="#454545" stroke="none" />
          <path d="M220 0.00012207C224.419 0.00012207 228 3.58124 228 8.00012L228 411C228 415.419 224.419 419 220 419L198 419C193.581 419 190 415.419 190 411L190 8.00012C190 3.58124 193.581 0.00012207 198 0.00012207L220 0.00012207Z" id="Rectangle-8" fill="#B2B2B2" stroke="none" />
          <path d="M258 0C262.419 0 266 3.58112 266 8L266 411C266 415.419 262.419 419 258 419L236 419C231.581 419 228 415.419 228 411L228 8C228 3.58112 231.581 0 236 0L258 0Z" id="Rectangle-9" fill="#454545" stroke="none" />
          <path d="M296 0C300.419 0 304 3.58112 304 8L304 411C304 415.419 300.419 419 296 419L274 419C269.581 419 266 415.419 266 411L266 8C266 3.58112 269.581 0 274 0L296 0Z" id="Rectangle-10" fill="#B2B2B2" stroke="none" />
        </g>
        <path d="M23 0.00012207C27.4189 0.00012207 31 3.58124 31 8.00012L31 411C31 415.419 27.4189 419 23 419L8 419C3.58112 419 0 415.419 0 411L0 8.00012C0 3.58124 3.58112 0.00012207 8 0.00012207L23 0.00012207Z" id="Rectangle-11" fill="#B2B2B2" stroke="none" />
      </g>
      <g id="Group-9" transform="translate(344 0)">
        <g id="Fader-bank" transform="translate(34 0)">
          <path d="M30 0C34.4189 0 38 3.58112 38 8L38 411C38 415.419 34.4189 419 30 419L8 419C3.58112 419 0 415.419 0 411L0 8C0 3.58112 3.58112 0 8 0L30 0Z" id="Rectangle-3" fill="#454545" stroke="none" />
          <path d="M68 0C72.4189 0 76 3.58112 76 8L76 411C76 415.419 72.4189 419 68 419L46 419C41.5811 419 38 415.419 38 411L38 8C38 3.58112 41.5811 0 46 0L68 0Z" id="Rectangle-4" fill="#B2B2B2" stroke="none" />
          <path d="M106 0C110.419 0 114 3.58112 114 8L114 411C114 415.419 110.419 419 106 419L84 419C79.5811 419 76 415.419 76 411L76 8C76 3.58112 79.5811 0 84 0L106 0Z" id="Rectangle-5" fill="#454545" stroke="none" />
          <path d="M144 0C148.419 0 152 3.58112 152 8L152 411C152 415.419 148.419 419 144 419L122 419C117.581 419 114 415.419 114 411L114 8C114 3.58112 117.581 0 122 0L144 0Z" id="Rectangle-6" fill="#B2B2B2" stroke="none" />
          <path d="M182 0C186.419 0 190 3.58112 190 8L190 411C190 415.419 186.419 419 182 419L160 419C155.581 419 152 415.419 152 411L152 8C152 3.58112 155.581 0 160 0L182 0Z" id="Rectangle-7" fill="#454545" stroke="none" />
          <path d="M220 0.00012207C224.419 0.00012207 228 3.58124 228 8.00012L228 411C228 415.419 224.419 419 220 419L198 419C193.581 419 190 415.419 190 411L190 8.00012C190 3.58124 193.581 0.00012207 198 0.00012207L220 0.00012207Z" id="Rectangle-8" fill="#B2B2B2" stroke="none" />
          <path d="M258 0C262.419 0 266 3.58112 266 8L266 411C266 415.419 262.419 419 258 419L236 419C231.581 419 228 415.419 228 411L228 8C228 3.58112 231.581 0 236 0L258 0Z" id="Rectangle-9" fill="#454545" stroke="none" />
          <path d="M296 0C300.419 0 304 3.58112 304 8L304 411C304 415.419 300.419 419 296 419L274 419C269.581 419 266 415.419 266 411L266 8C266 3.58112 269.581 0 274 0L296 0Z" id="Rectangle-10" fill="#B2B2B2" stroke="none" />
        </g>
        <path d="M24 0.00012207C28.4189 0.00012207 32 3.58124 32 8.00012L32 42.0001C32 46.419 28.4189 50.0001 24 50.0001L8 50.0001C3.58112 50.0001 0 46.419 0 42.0001L0 8.00012C0 3.58124 3.58112 0.00012207 8 0.00012207L24 0.00012207Z" id="Rectangle-9" fill="#B2B2B2" stroke="none" />
        <path d="M24 87.0001C28.4189 87.0001 32 90.5812 32 95.0001L32 411C32 415.419 28.4189 419 24 419L8 419C3.58112 419 0 415.419 0 411L0 95.0001C0 90.5812 3.58112 87.0001 8 87.0001L24 87.0001Z" id="Rectangle-10" fill="#B2B2B2" stroke="none" />
      </g>
      <path d="M729 0.00012207C733.419 0.00012207 737 3.58124 737 8.00012L737 411C737 415.419 733.419 419 729 419L692 419C687.581 419 684 415.419 684 411L684 8.00012C684 3.58124 687.581 0.00012207 692 0.00012207L729 0.00012207Z" id="Rectangle-12" fill="#B2B2B2" stroke="none" />
    </g>
    <g id="Group-6" transform="translate(488 68)">
      <path d="M430 0C443.809 0 455 11.191 455 25L455 261C455 274.809 443.809 286 430 286L25 286C11.191 286 0 274.809 0 261L0 25C0 11.191 11.191 0 25 0L430 0Z" id="Rectangle-16" fill="#000000" stroke="none" />
      <path d="M360 32C364.419 32 368 35.5811 368 40L368 187C368 191.419 364.419 195 360 195L40.0001 195C35.5812 195 32.0001 191.419 32.0001 187L32.0001 40C32.0001 35.5811 35.5812 32 40.0001 32L360 32Z" id="Rectangle-2" fill="#B2B2B2" stroke="none" />
      <g id="Group-4" transform="translate(375 32)">
        <path d="M35.0002 0C39.4191 0 43.0002 3.58112 43.0002 8L43.0002 9.78182C43.0002 14.2007 39.4191 17.7818 35.0002 17.7818L8.00024 17.7818C3.58137 17.7818 0.000244141 14.2007 0.000244141 9.78182L0.000244141 8C0.000244141 3.58112 3.58137 0 8.00024 0L35.0002 0Z" id="Rectangle-16" fill="#454545" stroke="none" />
        <path d="M35.0001 20.7455C39.419 20.7455 43.0001 24.3266 43.0001 28.7455L43.0001 30.5273C43.0001 34.9462 39.419 38.5273 35.0001 38.5273L8.00012 38.5273C3.58124 38.5273 0.00012207 34.9462 0.00012207 30.5273L0.00012207 28.7455C0.00012207 24.3266 3.58124 20.7455 8.00012 20.7455L35.0001 20.7455Z" id="Rectangle-17" fill="#454545" stroke="none" />
        <path d="M35.0001 41.491C39.419 41.491 43.0001 45.0721 43.0001 49.491L43.0001 51.2728C43.0001 55.6917 39.419 59.2728 35.0001 59.2728L8.00012 59.2728C3.58124 59.2728 0.00012207 55.6917 0.00012207 51.2728L0.00012207 49.491C0.00012207 45.0721 3.58124 41.491 8.00012 41.491L35.0001 41.491Z" id="Rectangle-18" fill="#454545" stroke="none" />
        <path d="M35.0001 62.2363C39.419 62.2363 43.0001 65.8175 43.0001 70.2363L43.0001 72.0182C43.0001 76.437 39.419 80.0182 35.0001 80.0182L8.00012 80.0182C3.58124 80.0182 0.00012207 76.437 0.00012207 72.0182L0.00012207 70.2363C0.00012207 65.8175 3.58124 62.2363 8.00012 62.2363L35.0001 62.2363Z" id="Rectangle-19" fill="#454545" stroke="none" />
        <path d="M35.0001 82.9818C39.419 82.9818 43.0001 86.5629 43.0001 90.9818L43.0001 92.7636C43.0001 97.1825 39.419 100.764 35.0001 100.764L8.00012 100.764C3.58124 100.764 0.00012207 97.1825 0.00012207 92.7636L0.00012207 90.9818C0.00012207 86.5629 3.58124 82.9818 8.00012 82.9818L35.0001 82.9818Z" id="Rectangle-20" fill="#454545" stroke="none" />
        <path d="M35.0001 103.727C39.419 103.727 43.0001 107.308 43.0001 111.727L43.0001 113.509C43.0001 117.928 39.419 121.509 35.0001 121.509L8.00012 121.509C3.58124 121.509 0.00012207 117.928 0.00012207 113.509L0.00012207 111.727C0.00012207 107.308 3.58124 103.727 8.00012 103.727L35.0001 103.727Z" id="Rectangle-21" fill="#454545" stroke="none" />
        <path d="M35.0001 124.473C39.419 124.473 43.0001 128.054 43.0001 132.473L43.0001 134.255C43.0001 138.673 39.419 142.255 35.0001 142.255L8.00012 142.255C3.58124 142.255 0.00012207 138.673 0.00012207 134.255L0.00012207 132.473C0.00012207 128.054 3.58124 124.473 8.00012 124.473L35.0001 124.473Z" id="Rectangle-22" fill="#454545" stroke="none" />
        <path d="M35 145.218C39.4189 145.218 43 148.799 43 153.218L43 155C43 159.419 39.4189 163 35 163L8 163C3.58112 163 0 159.419 0 155L0 153.218C0 148.799 3.58112 145.218 8 145.218L35 145.218Z" id="Rectangle-23" fill="#454545" stroke="none" />
      </g>
      <g id="Group-5" transform="translate(330.00012 201.00012)">
        <path d="M81 16.9999C85.4189 16.9999 89 20.581 89 24.9999L89 26.9999C89 31.4188 85.4189 34.9999 81 34.9999L72 34.9999C67.5811 34.9999 64 31.4188 64 26.9999L64 24.9999C64 20.581 67.5811 16.9999 72 16.9999L81 16.9999Z" id="Rectangle-24" fill="#454545" stroke="none" />
        <path d="M53 16.9999C57.4189 16.9999 61 20.581 61 24.9999L61 26.9999C61 31.4188 57.4189 34.9999 53 34.9999L44 34.9999C39.5811 34.9999 36 31.4188 36 26.9999L36 24.9999C36 20.581 39.5811 16.9999 44 16.9999L53 16.9999Z" id="Rectangle-25" fill="#454545" stroke="none" />
        <path d="M10 0C14.4189 0 18 3.58112 18 8L18 17C18 21.4189 14.4189 25 10 25L8 25C3.58112 25 0 21.4189 0 17L0 8C0 3.58112 3.58112 0 8 0L10 0Z" id="Rectangle-26" fill="#454545" stroke="none" />
        <path d="M10 27.9999C14.4189 27.9999 18 31.581 18 35.9999L18 44.9999C18 49.4188 14.4189 52.9999 10 52.9999L8 52.9999C3.58112 52.9999 0 49.4188 0 44.9999L0 35.9999C0 31.581 3.58112 27.9999 8 27.9999L10 27.9999Z" id="Rectangle-27" fill="#454545" stroke="none" />
      </g>
      <g id="Group-3" transform="translate(47.000122 213)">
        <path d="M205 14.5C205 7.04416 211.044 1 218.5 1C225.956 1 232 7.04416 232 14.5C232 21.9558 225.956 28 218.5 28C211.044 28 205 21.9558 205 14.5Z" id="Oval" fill="#454545" fill-rule="evenodd" stroke="none" />
        <path d="M164 14.5C164 7.04416 170.044 1 177.5 1C184.956 1 191 7.04416 191 14.5C191 21.9558 184.956 28 177.5 28C170.044 28 164 21.9558 164 14.5Z" id="Oval-2" fill="#454545" fill-rule="evenodd" stroke="none" />
        <path d="M123 14.5C123 7.04416 129.044 1 136.5 1C143.956 1 150 7.04416 150 14.5C150 21.9558 143.956 28 136.5 28C129.044 28 123 21.9558 123 14.5Z" id="Oval-3" fill="#454545" fill-rule="evenodd" stroke="none" />
        <path d="M82 13.5C82 6.04416 88.0442 0 95.5 0C102.956 0 109 6.04416 109 13.5C109 20.9558 102.956 27 95.5 27C88.0442 27 82 20.9558 82 13.5Z" id="Oval-4" fill="#454545" fill-rule="evenodd" stroke="none" />
        <path d="M41 13.5C41 6.04416 47.0442 0 54.5 0C61.9558 0 68 6.04416 68 13.5C68 20.9558 61.9558 27 54.5 27C47.0442 27 41 20.9558 41 13.5Z" id="Oval-5" fill="#454545" fill-rule="evenodd" stroke="none" />
        <path d="M0 13.5C0 6.04416 6.04416 0 13.5 0C20.9558 0 27 6.04416 27 13.5C27 20.9558 20.9558 27 13.5 27C6.04416 27 0 20.9558 0 13.5Z" id="Oval-6" fill="#454545" fill-rule="evenodd" stroke="none" />
      </g>
    </g>
    <g id="AES50" transform="translate(200 0)">
      <g id="Group-11">
        <g id="Rectangle-16">
          <use stroke="none" fill="#FFFFFF" xlink:href="#path_1" fill-rule="evenodd" />
          <g clip-path="url(#clip_1)">
            <use xlink:href="#path_1" fill="none" stroke="#454545" stroke-width="2" />
          </g>
        </g>
        <g id="A" clip-path="url(#clip_2)" transform="translate(6.250001 3.215908)">
          <g transform="translate(6.579546, 0)" id="A">
            <path d="M4.24432 34.875L0.920455 34.875L10.5341 8.69318L13.8068 8.69318L23.4205 34.875L20.0966 34.875L17.4631 27.4602L6.87784 27.4602L4.24432 34.875ZM7.875 24.6477L16.4659 24.6477L12.2727 12.8352L12.0682 12.8352L7.875 24.6477Z" />
          </g>
        </g>
      </g>
      <g id="Group-12" transform="translate(64 0)">
        <g id="Rectangle-17">
          <use stroke="none" fill="#FFFFFF" xlink:href="#path_1" fill-rule="evenodd" />
          <g clip-path="url(#clip_1)">
            <use xlink:href="#path_1" fill="none" stroke="#454545" stroke-width="2" />
          </g>
        </g>
        <g id="B" clip-path="url(#clip_2)" transform="translate(6.250001 3.215908)">
          <g transform="translate(7.039773, 0)" id="B">
            <path d="M3.17045 34.875L3.17045 8.69318L12.3239 8.69318Q15.0597 8.69318 16.8366 9.63281Q18.6136 10.5724 19.483 12.1513Q20.3523 13.7301 20.3523 15.6477Q20.3523 17.3352 19.7578 18.4347Q19.1634 19.5341 18.1982 20.1733Q17.233 20.8125 16.108 21.1193L16.108 21.375Q17.3097 21.4517 18.5241 22.2188Q19.7386 22.9858 20.5568 24.4176Q21.375 25.8494 21.375 27.9205Q21.375 29.8892 20.4801 31.4616Q19.5852 33.0341 17.6548 33.9545Q15.7244 34.875 12.6307 34.875L3.17045 34.875ZM6.34091 32.0625L12.6307 32.0625Q15.7372 32.0625 17.0476 30.8544Q18.358 29.6463 18.358 27.9205Q18.358 26.5909 17.6804 25.4595Q17.0028 24.3281 15.75 23.6442Q14.4972 22.9602 12.7841 22.9602L6.34091 22.9602L6.34091 32.0625ZM6.34091 20.1989L12.2216 20.1989Q14.3693 20.1989 15.8523 18.9588Q17.3352 17.7188 17.3352 15.6477Q17.3352 13.9219 16.1335 12.7138Q14.9318 11.5057 12.3239 11.5057L6.34091 11.5057L6.34091 20.1989Z" />
          </g>
        </g>
      </g>
      <g id="AES50" clip-path="url(#clip_3)" transform="translate(0 50.000015)">
        <g transform="translate(28.696022, 0)" id="AES50" fill="#FFFFFF">
          <path d="M2.12216 17.4375L0.460227 17.4375L5.26705 4.34659L6.90341 4.34659L11.7102 17.4375L10.0483 17.4375L8.73153 13.7301L3.43892 13.7301L2.12216 17.4375ZM3.9375 12.3239L8.23295 12.3239L6.13636 6.41761L6.03409 6.41761L3.9375 12.3239ZM13.7557 17.4375L13.7557 4.34659L21.6562 4.34659L21.6562 5.75284L15.3409 5.75284L15.3409 10.1761L21.2472 10.1761L21.2472 11.5824L15.3409 11.5824L15.3409 16.0312L21.7585 16.0312L21.7585 17.4375L13.7557 17.4375ZM31.679 7.61932Q31.5639 6.64773 30.7457 6.1108Q29.9276 5.57386 28.7386 5.57386Q27.4347 5.57386 26.642 6.1907Q25.8494 6.80753 25.8494 7.74716Q25.8494 8.45028 26.2809 8.88175Q26.7124 9.31321 27.3036 9.55291Q27.8949 9.79261 28.3807 9.92045L29.7102 10.2784Q30.2216 10.4126 30.8512 10.6491Q31.4808 10.8857 32.0593 11.2915Q32.6378 11.6974 33.0149 12.3303Q33.392 12.9631 33.392 13.8835Q33.392 14.9446 32.8391 15.8011Q32.2862 16.6577 31.2283 17.1626Q30.1705 17.6676 28.6619 17.6676Q26.5526 17.6676 25.3125 16.6705Q24.0724 15.6733 23.9574 14.0625L25.5937 14.0625Q25.6577 14.804 26.0955 15.2866Q26.5334 15.7692 27.2077 16.0025Q27.8821 16.2358 28.6619 16.2358Q29.5696 16.2358 30.2919 15.9386Q31.0142 15.6413 31.4361 15.1076Q31.858 14.5739 31.858 13.858Q31.858 13.206 31.4936 12.7969Q31.1293 12.3878 30.5348 12.1321Q29.9403 11.8764 29.25 11.6847L27.6392 11.2244Q26.1051 10.7834 25.2102 9.9652Q24.3153 9.14702 24.3153 7.82386Q24.3153 6.72443 24.913 5.90305Q25.5107 5.08168 26.5238 4.62464Q27.5369 4.16761 28.7898 4.16761Q30.0554 4.16761 31.0398 4.61825Q32.0241 5.06889 32.6026 5.84872Q33.1811 6.62855 33.2131 7.61932L31.679 7.61932ZM39.8608 17.6165Q38.7358 17.6165 37.8345 17.169Q36.9332 16.7216 36.3899 15.9418Q35.8466 15.1619 35.7955 14.1648L37.3295 14.1648Q37.419 15.0533 38.1381 15.6317Q38.8572 16.2102 39.8608 16.2102Q40.6662 16.2102 41.2958 15.8331Q41.9254 15.456 42.2866 14.7944Q42.6477 14.1328 42.6477 13.2955Q42.6477 12.4389 42.2738 11.7646Q41.8999 11.0902 41.2479 10.7003Q40.5959 10.3104 39.7585 10.304Q39.1577 10.2976 38.5249 10.4862Q37.892 10.6747 37.483 10.9688L36 10.7898L36.7926 4.34659L43.5938 4.34659L43.5938 5.75284L38.1222 5.75284L37.6619 9.61364L37.7386 9.61364Q38.1413 9.29403 38.7486 9.0831Q39.3558 8.87216 40.0142 8.87216Q41.2159 8.87216 42.1587 9.44425Q43.1016 10.0163 43.6417 11.0071Q44.1818 11.9979 44.1818 13.2699Q44.1818 14.5227 43.6225 15.5039Q43.0632 16.4851 42.0852 17.0508Q41.1072 17.6165 39.8608 17.6165ZM50.983 17.6165Q48.8161 17.6165 47.6239 15.8587Q46.4318 14.1009 46.4318 10.892Q46.4318 7.70881 47.6335 5.93821Q48.8352 4.16761 50.983 4.16761Q53.1307 4.16761 54.3324 5.93821Q55.5341 7.70881 55.5341 10.892Q55.5341 14.1009 54.342 15.8587Q53.1499 17.6165 50.983 17.6165ZM50.983 16.2102Q52.4148 16.2102 53.2074 14.8295Q54 13.4489 54 10.892Q54 8.34162 53.201 6.94496Q52.402 5.5483 50.983 5.5483Q49.5639 5.5483 48.7649 6.94496Q47.9659 8.34162 47.9659 10.892Q47.9659 13.4489 48.7617 14.8295Q49.5575 16.2102 50.983 16.2102Z" />
        </g>
      </g>
    </g>
  </g>
</svg>