<?xml version="1.0" encoding="utf-8"?>
<svg width="1110px" height="372px" viewBox="0 0 1110 372" version="1.1" xmlns:xlink="http://www.w3.org/1999/xlink" xmlns="http://www.w3.org/2000/svg">
  <style>
    .number-background-i {
      stroke: #b2b2b2;
      stroke-width: 1px;
      fill: none;
    }
    .number-i {
      font: 9px sans-serif;
      fill: #b2b2b2;
      text-anchor: middle;
      user-select: none;
    }
    .number-background-o {
      stroke: #b2b2b2;
      stroke-width: 1px;
      fill: #b2b2b2;
    }
    .number-o {
      font: 9px sans-serif;
      fill: #303030;
      text-anchor: middle;
      user-select: none;
    }
  </style>
  <g id="X32C-back">
    <g id="Group">
      <path d="M1050 54C1083.14 54 1110 80.8584 1110 114L1110 288C1110 321.142 1083.14 348 1050 348L60 348C26.8584 348 0 321.142 0 288L0 114C0 80.8584 26.8584 54 60 54L1050 54Z" id="Rectangle" fill="#303030" stroke="none" />
      <path d="M200 372C202.762 372 205 369.762 205 367L205 343C205 340.238 202.762 338 200 338L143 338C140.238 338 138 340.238 138 343L138 367C138 369.762 140.238 372 143 372L200 372Z" id="Rectangle" fill="#303030" stroke="none" />
      <path d="M729 94C731.762 94 734 91.7618 734 89L734 34C734 31.2382 731.762 29 729 29L719 29C716.238 29 714 31.2382 714 34L714 89C714 91.7618 716.238 94 719 94L729 94Z" id="Rectangle" fill="#303030" stroke="none" />
      <path d="M821 94C823.762 94 826 91.7618 826 89L826 34C826 31.2382 823.762 29 821 29L811 29C808.238 29 806 31.2382 806 34L806 89C806 91.7618 808.238 94 811 94L821 94Z" id="Rectangle" fill="#303030" stroke="none" />
      <path d="M919 94C921.762 94 924 91.7618 924 89L924 34C924 31.2382 921.762 29 919 29L909 29C906.238 29 904 31.2382 904 34L904 89C904 91.7618 906.238 94 909 94L919 94Z" id="Rectangle" fill="#303030" stroke="none" />
      <path d="M775 114C777.762 114 780 111.762 780 109L780 54C780 51.2382 777.762 49 775 49L765 49C762.238 49 760 51.2382 760 54L760 109C760 111.762 762.238 114 765 114L775 114Z" id="Rectangle" fill="#303030" stroke="none" />
      <path d="M893 114C895.762 114 898 111.762 898 109L898 54C898 51.2382 895.762 49 893 49L883 49C880.238 49 878 51.2382 878 54L878 109C878 111.762 880.238 114 883 114L893 114Z" id="Rectangle" fill="#303030" stroke="none" />
      <path d="M982 114C984.762 114 987 111.762 987 109L987 54C987 51.2382 984.762 49 982 49L972 49C969.238 49 967 51.2382 967 54L967 109C967 111.762 969.238 114 972 114L982 114Z" id="Rectangle" fill="#303030" stroke="none" />
      <path d="M967 372C969.762 372 972 369.762 972 367L972 343C972 340.238 969.762 338 967 338L910 338C907.238 338 905 340.238 905 343L905 367C905 369.762 907.238 372 910 372L967 372Z" id="Rectangle" fill="#303030" stroke="none" />
      <path d="M551 82C562.047 82 571 73.0472 571 62L571 20C571 8.9528 562.047 0 551 0L106 0C94.9528 0 86 8.9528 86 20L86 62C86 73.0472 94.9528 82 106 82L551 82Z" id="Rectangle" fill="#303030" stroke="none" />
    </g>
    <g id="Layout" transform="translate(122 125)">
      <path stroke="#B2B2B2" fill="none" d="M891 0C893.762 0 896 2.2382 896 5L896 142C896 144.762 893.762 147 891 147L528 147C525.238 147 523 144.762 523 142L523 5C523 2.2382 525.238 0 528 0L891 0Z" />
      <path stroke="#B2B2B2" fill="none" d="M511 0C513.762 0 516 2.2382 516 5L516 78C516 80.7618 513.762 83 511 83L158 83C155.238 83 153 80.7618 153 78L153 5C153 2.2382 155.238 0 158 0L511 0Z" />
      <path stroke="#B2B2B2" fill="none" d="M141 0C143.762 0 146 2.2382 146 5L146 78C146 80.7618 143.762 83 141 83L5 83C2.2382 83 0 80.7618 0 78L0 5C0 2.2382 2.2382 0 5 0L141 0Z" />
      <path stroke="#B2B2B2" fill="none" d="M487 86C489.762 86 492 88.2382 492 91L492 143C492 145.762 489.762 148 487 148L127 148C124.238 148 122 145.762 122 143L122 91C122 88.2382 124.238 86 127 86L487 86Z" />
      <path stroke="#B2B2B2" fill="none" d="M380 161C382.762 161 385 163.238 385 166L385 204C385 206.762 382.762 209 380 209L137 209C134.238 209 132 206.762 132 204L132 166C132 163.238 134.238 161 137 161L380 161Z" />
      <path stroke="#B2B2B2" fill="none" d="M489 154C491.762 154 494 156.238 494 159L494 210C494 212.762 491.762 215 489 215L417 215C414.238 215 412 212.762 412 210L412 159C412 156.238 414.238 154 417 154L489 154Z" />
      <path stroke="#B2B2B2" fill="none" d="M591 154C593.762 154 596 156.238 596 159L596 210C596 212.762 593.762 215 591 215L508 215C505.238 215 503 212.762 503 210L503 159C503 156.238 505.238 154 508 154L591 154Z" />
      <path stroke="#B2B2B2" fill="none" d="M651 154C653.762 154 656 156.238 656 159L656 210C656 212.762 653.762 215 651 215L604 215C601.238 215 599 212.762 599 210L599 159C599 156.238 601.238 154 604 154L651 154Z" />
      <path stroke="#B2B2B2" fill="none" d="M789 154C791.762 154 794 156.238 794 159L794 210C794 212.762 791.762 215 789 215L705 215C702.238 215 700 212.762 700 210L700 159C700 156.238 702.238 154 705 154L789 154Z" />
      <path stroke="#B2B2B2" fill="none" d="M692 154C694.762 154 697 156.238 697 159L697 210C697 212.762 694.762 215 692 215L664 215C661.238 215 659 212.762 659 210L659 159C659 156.238 661.238 154 664 154L692 154Z" />
      <path stroke="#B2B2B2" fill="none" d="M104 178C105.657 178 107 176.657 107 175L107 161C107 159.343 105.657 158 104 158L61 158C59.3429 158 58 159.343 58 161L58 175C58 176.657 59.3429 178 61 178L104 178Z" />
      <path stroke="#B2B2B2" fill="none" d="M117 120C118.657 120 120 121.343 120 123L120 149C120 150.657 118.657 152 117 152L57 152C55.3429 152 54 150.657 54 149L54 123C54 121.343 55.3429 120 57 120L117 120Z" />
      <g id="Rectangle-8">
        <use stroke="none" fill="#303030" xlink:href="#path_2" />
        <g clip-path="url(#clip_2)">
          <use xlink:href="#path_2" fill="none" stroke="#B2B2B2" stroke-width="2" />
        </g>
      </g>
      <g id="Rectangle-8">
        <use stroke="none" fill="#303030" xlink:href="#path_3" />
        <g clip-path="url(#clip_3)">
          <use xlink:href="#path_3" fill="none" stroke="#B2B2B2" stroke-width="2" />
        </g>
      </g>
      <g id="Rectangle-8">
        <use stroke="none" fill="#303030" xlink:href="#path_4" />
        <g clip-path="url(#clip_4)">
          <use xlink:href="#path_4" fill="none" stroke="#B2B2B2" stroke-width="2" />
        </g>
      </g>
      <g id="Rectangle-8">
        <use stroke="none" fill="#303030" xlink:href="#path_5" />
        <g clip-path="url(#clip_5)">
          <use xlink:href="#path_5" fill="none" stroke="#B2B2B2" stroke-width="2" />
        </g>
      </g>
      <g id="Rectangle-8">
        <use stroke="none" fill="#303030" xlink:href="#path_6" />
        <g clip-path="url(#clip_6)">
          <use xlink:href="#path_6" fill="none" stroke="#B2B2B2" stroke-width="2" />
        </g>
      </g>
      <g id="Rectangle-8">
        <use stroke="none" fill="#303030" xlink:href="#path_7" />
        <g clip-path="url(#clip_7)">
          <use xlink:href="#path_7" fill="none" stroke="#B2B2B2" stroke-width="2" />
        </g>
      </g>
      <g id="Rectangle-8">
        <use stroke="none" fill="#303030" xlink:href="#path_8" />
        <g clip-path="url(#clip_8)">
          <use xlink:href="#path_8" fill="none" stroke="#B2B2B2" stroke-width="2" />
        </g>
      </g>
      <g id="Rectangle-8">
        <use stroke="none" fill="#303030" xlink:href="#path_9" />
        <g clip-path="url(#clip_9)">
          <use xlink:href="#path_9" fill="none" stroke="#B2B2B2" stroke-width="2" />
        </g>
      </g>
      <g id="Rectangle-8">
        <use stroke="none" fill="#303030" xlink:href="#path_10" />
        <g clip-path="url(#clip_10)">
          <use xlink:href="#path_10" fill="none" stroke="#B2B2B2" stroke-width="2" />
        </g>
      </g>
      <g id="Rectangle-8">
        <use stroke="none" fill="#303030" xlink:href="#path_11" />
        <g clip-path="url(#clip_11)">
          <use xlink:href="#path_11" fill="none" stroke="#B2B2B2" stroke-width="2" />
        </g>
      </g>
      <path d="M494 1L494 82" id="Line" fill="none" fill-rule="evenodd" stroke="#B2B2B2" stroke-width="1" stroke-linecap="square" />
      <path d="M515 41L154 41" id="Line" fill="none" fill-rule="evenodd" stroke="#B2B2B2" stroke-width="1" stroke-linecap="square" />
      <path d="M494 46L494 83Q494 83 494 83L516 83Q516 83 516 83L516 41Q516 41 516 41L499 41Q498.877 41 498.755 41.006Q498.632 41.0121 498.51 41.0241Q498.388 41.0361 498.266 41.0541Q498.145 41.0721 498.025 41.0961Q497.904 41.12 497.785 41.1498Q497.666 41.1797 497.549 41.2153Q497.431 41.2509 497.315 41.2923Q497.2 41.3336 497.086 41.3806Q496.973 41.4276 496.862 41.4801Q496.751 41.5325 496.643 41.5904Q496.535 41.6483 496.429 41.7114Q496.324 41.7745 496.222 41.8426Q496.12 41.9108 496.021 41.984Q495.923 42.0571 495.828 42.1349Q495.733 42.2128 495.642 42.2952Q495.551 42.3777 495.464 42.4645Q495.378 42.5513 495.295 42.6422Q495.213 42.7331 495.135 42.828Q495.057 42.9229 494.984 43.0215Q494.911 43.1201 494.843 43.2221Q494.774 43.3242 494.711 43.4295Q494.648 43.5348 494.59 43.643Q494.532 43.7513 494.48 43.8622Q494.427 43.9732 494.381 44.0866Q494.334 44.2 494.292 44.3155Q494.251 44.4311 494.215 44.5486Q494.18 44.666 494.15 44.7851Q494.12 44.9042 494.096 45.0245Q494.072 45.1449 494.054 45.2663Q494.036 45.3878 494.024 45.5099Q494.012 45.6321 494.006 45.7547Q494 45.8773 494 46Z" transform="rotate(180 505 62)" id="Rectangle-17" fill="#B2B2B2" stroke="none" />
      <path d="M49 89L49 112Q49 112.147 49.0144 112.294Q49.0289 112.441 49.0576 112.585Q49.0864 112.73 49.1292 112.871Q49.172 113.012 49.2284 113.148Q49.2848 113.284 49.3542 113.414Q49.4237 113.544 49.5056 113.667Q49.5875 113.789 49.681 113.903Q49.7745 114.017 49.8787 114.121Q49.9829 114.226 50.0968 114.319Q50.2107 114.413 50.3333 114.494Q50.4558 114.576 50.5858 114.646Q50.7158 114.715 50.8519 114.772Q50.9881 114.828 51.1291 114.871Q51.2702 114.914 51.4147 114.942Q51.5593 114.971 51.706 114.986Q51.8526 115 52 115L117 115Q117.147 115 117.294 114.986Q117.441 114.971 117.585 114.942Q117.73 114.914 117.871 114.871Q118.012 114.828 118.148 114.772Q118.284 114.715 118.414 114.646Q118.544 114.576 118.667 114.494Q118.789 114.413 118.903 114.319Q119.017 114.226 119.121 114.121Q119.226 114.017 119.319 113.903Q119.413 113.789 119.494 113.667Q119.576 113.544 119.646 113.414Q119.715 113.284 119.772 113.148Q119.828 113.012 119.871 112.871Q119.914 112.73 119.942 112.585Q119.971 112.441 119.986 112.294Q120 112.147 120 112L120 89Q120 88.8526 119.986 88.7059Q119.971 88.5593 119.942 88.4147Q119.914 88.2702 119.871 88.1292Q119.828 87.9881 119.772 87.8519Q119.715 87.7158 119.646 87.5858Q119.576 87.4558 119.494 87.3333Q119.413 87.2108 119.319 87.0968Q119.226 86.9829 119.121 86.8787Q119.017 86.7745 118.903 86.681Q118.789 86.5875 118.667 86.5056Q118.544 86.4237 118.414 86.3542Q118.284 86.2848 118.148 86.2283Q118.012 86.172 117.871 86.1292Q117.73 86.0864 117.585 86.0576Q117.441 86.0289 117.294 86.0145Q117.147 86 117 86L52 86Q51.8526 86 51.7059 86.0144Q51.5593 86.0289 51.4147 86.0576Q51.2702 86.0864 51.1291 86.1292Q50.9881 86.172 50.8519 86.2283Q50.7158 86.2848 50.5858 86.3542Q50.4558 86.4237 50.3333 86.5056Q50.2107 86.5875 50.0968 86.681Q49.9829 86.7745 49.8787 86.8787Q49.7745 86.9829 49.681 87.0968Q49.5875 87.2108 49.5056 87.3333Q49.4237 87.4558 49.3542 87.5858Q49.2848 87.7158 49.2284 87.8519Q49.172 87.9881 49.1292 88.1292Q49.0864 88.2702 49.0576 88.4147Q49.0289 88.5593 49.0144 88.7059Q49 88.8526 49 89Z" transform="rotate(180 84.5 100.5)" id="Rectangle-17" fill="#B2B2B2" stroke="none" />
      <path d="M54 139L54 152Q54 152 54 152L120 152Q120 152 120 152L120 139Q120 138.853 119.986 138.706Q119.971 138.559 119.942 138.415Q119.914 138.27 119.871 138.129Q119.828 137.988 119.772 137.852Q119.715 137.716 119.646 137.586Q119.576 137.456 119.494 137.333Q119.413 137.211 119.319 137.097Q119.226 136.983 119.121 136.879Q119.017 136.774 118.903 136.681Q118.789 136.587 118.667 136.506Q118.544 136.424 118.414 136.354Q118.284 136.285 118.148 136.228Q118.012 136.172 117.871 136.129Q117.73 136.086 117.585 136.058Q117.441 136.029 117.294 136.014Q117.147 136 117 136L57 136Q56.8526 136 56.706 136.014Q56.5593 136.029 56.4147 136.058Q56.2702 136.086 56.1291 136.129Q55.9881 136.172 55.8519 136.228Q55.7158 136.285 55.5858 136.354Q55.4558 136.424 55.3333 136.506Q55.2107 136.587 55.0968 136.681Q54.9829 136.774 54.8787 136.879Q54.7745 136.983 54.681 137.097Q54.5875 137.211 54.5056 137.333Q54.4237 137.456 54.3542 137.586Q54.2848 137.716 54.2284 137.852Q54.172 137.988 54.1292 138.129Q54.0864 138.27 54.0576 138.415Q54.0289 138.559 54.0144 138.706Q54 138.853 54 139Z" transform="rotate(180 87 144)" id="Rectangle-17" fill="#B2B2B2" stroke="none" />
      <path d="M132 161L132 166Q132 166.123 132.006 166.245Q132.012 166.368 132.024 166.49Q132.036 166.612 132.054 166.734Q132.072 166.855 132.096 166.975Q132.12 167.096 132.15 167.215Q132.18 167.334 132.215 167.451Q132.251 167.569 132.292 167.684Q132.334 167.8 132.381 167.913Q132.428 168.027 132.48 168.138Q132.533 168.249 132.59 168.357Q132.648 168.465 132.711 168.57Q132.774 168.676 132.843 168.778Q132.911 168.88 132.984 168.978Q133.057 169.077 133.135 169.172Q133.213 169.267 133.295 169.358Q133.378 169.449 133.464 169.536Q133.551 169.622 133.642 169.705Q133.733 169.787 133.828 169.865Q133.923 169.943 134.022 170.016Q134.12 170.089 134.222 170.157Q134.324 170.226 134.429 170.289Q134.535 170.352 134.643 170.41Q134.751 170.467 134.862 170.52Q134.973 170.572 135.087 170.619Q135.2 170.666 135.316 170.708Q135.431 170.749 135.549 170.785Q135.666 170.82 135.785 170.85Q135.904 170.88 136.025 170.904Q136.145 170.928 136.266 170.946Q136.388 170.964 136.51 170.976Q136.632 170.988 136.755 170.994Q136.877 171 137 171L380 171Q380.123 171 380.245 170.994Q380.368 170.988 380.49 170.976Q380.612 170.964 380.734 170.946Q380.855 170.928 380.975 170.904Q381.096 170.88 381.215 170.85Q381.334 170.82 381.451 170.785Q381.569 170.749 381.684 170.708Q381.8 170.666 381.913 170.619Q382.027 170.572 382.138 170.52Q382.249 170.467 382.357 170.41Q382.465 170.352 382.57 170.289Q382.676 170.226 382.778 170.157Q382.88 170.089 382.978 170.016Q383.077 169.943 383.172 169.865Q383.267 169.787 383.358 169.705Q383.449 169.622 383.535 169.536Q383.622 169.449 383.705 169.358Q383.787 169.267 383.865 169.172Q383.943 169.077 384.016 168.978Q384.089 168.88 384.157 168.778Q384.225 168.676 384.289 168.57Q384.352 168.465 384.41 168.357Q384.467 168.249 384.52 168.138Q384.572 168.027 384.619 167.913Q384.666 167.8 384.708 167.684Q384.749 167.569 384.785 167.451Q384.82 167.334 384.85 167.215Q384.88 167.096 384.904 166.975Q384.928 166.855 384.946 166.734Q384.964 166.612 384.976 166.49Q384.988 166.368 384.994 166.245Q385 166.123 385 166L385 161Q385 161 385 161L132 161Q132 161 132 161Z" transform="rotate(180 258.5 166)" id="Rectangle-17" fill="#B2B2B2" stroke="none" />
      <path d="M0 0L0 5Q0 5.12274 0.00602272 5.24534Q0.0120454 5.36793 0.0240764 5.49009Q0.0361073 5.61224 0.0541174 5.73365Q0.0721276 5.85507 0.0960736 5.97545Q0.12002 6.09584 0.149844 6.2149Q0.179668 6.33396 0.215298 6.45142Q0.250929 6.56888 0.29228 6.68445Q0.333631 6.80002 0.380602 6.91342Q0.427574 7.02682 0.480053 7.13777Q0.532533 7.24873 0.590394 7.35698Q0.648254 7.46523 0.711357 7.57051Q0.774459 7.67579 0.842652 7.77785Q0.910844 7.87991 0.983962 7.9785Q1.05708 8.07708 1.13495 8.17197Q1.21282 8.26685 1.29524 8.35779Q1.37767 8.44874 1.46447 8.53553Q1.55126 8.62232 1.6422 8.70475Q1.73315 8.78718 1.82803 8.86505Q1.92291 8.94292 2.0215 9.01604Q2.12009 9.08915 2.22215 9.15735Q2.32421 9.22554 2.42949 9.28864Q2.53477 9.35174 2.64302 9.40961Q2.75127 9.46747 2.86222 9.51995Q2.97318 9.57242 3.08658 9.6194Q3.19998 9.66637 3.31555 9.70772Q3.43112 9.74907 3.54858 9.7847Q3.66603 9.82033 3.7851 9.85015Q3.90416 9.87998 4.02455 9.90392Q4.14493 9.92787 4.26635 9.94588Q4.38776 9.96389 4.50991 9.97592Q4.63207 9.98795 4.75466 9.99398Q4.87726 10 5 10L141 10Q141.123 10 141.245 9.99398Q141.368 9.98795 141.49 9.97592Q141.612 9.96389 141.734 9.94588Q141.855 9.92787 141.975 9.90392Q142.096 9.87998 142.215 9.85015Q142.334 9.82033 142.451 9.7847Q142.569 9.74907 142.684 9.70772Q142.8 9.66637 142.913 9.6194Q143.027 9.57242 143.138 9.51995Q143.249 9.46747 143.357 9.40961Q143.465 9.35174 143.57 9.28864Q143.676 9.22554 143.778 9.15735Q143.88 9.08915 143.978 9.01604Q144.077 8.94292 144.172 8.86505Q144.267 8.78718 144.358 8.70475Q144.449 8.62232 144.536 8.53553Q144.622 8.44874 144.705 8.35779Q144.787 8.26685 144.865 8.17197Q144.943 8.07708 145.016 7.9785Q145.089 7.87991 145.157 7.77785Q145.226 7.67579 145.289 7.57051Q145.352 7.46523 145.41 7.35698Q145.467 7.24873 145.52 7.13777Q145.572 7.02682 145.619 6.91342Q145.666 6.80002 145.708 6.68445Q145.749 6.56888 145.785 6.45142Q145.82 6.33396 145.85 6.2149Q145.88 6.09584 145.904 5.97545Q145.928 5.85507 145.946 5.73365Q145.964 5.61224 145.976 5.49009Q145.988 5.36793 145.994 5.24534Q146 5.12274 146 5L146 0Q146 0 146 0L0 0Q0 0 0 0Z" transform="rotate(180 73 5)" id="Rectangle-17" fill="#B2B2B2" stroke="none" />
      <g id="Rectangle-8">
        <use stroke="none" fill="#303030" xlink:href="#path_12" />
        <g clip-path="url(#clip_12)">
          <use xlink:href="#path_12" fill="none" stroke="#B2B2B2" stroke-width="2" />
        </g>
      </g>
      <g id="Rectangle-8">
        <use stroke="none" fill="#303030" xlink:href="#path_13" />
        <g clip-path="url(#clip_13)">
          <use xlink:href="#path_13" fill="none" stroke="#B2B2B2" stroke-width="2" />
        </g>
      </g>
      <path d="M700 210L700 215Q700 215 700 215L794 215Q794 215 794 215L794 210Q794 209.877 793.994 209.755Q793.988 209.632 793.976 209.51Q793.964 209.388 793.946 209.266Q793.928 209.145 793.904 209.025Q793.88 208.904 793.85 208.785Q793.82 208.666 793.785 208.549Q793.749 208.431 793.708 208.316Q793.666 208.2 793.619 208.087Q793.572 207.973 793.52 207.862Q793.467 207.751 793.409 207.643Q793.352 207.535 793.288 207.429Q793.225 207.324 793.157 207.222Q793.089 207.12 793.016 207.021Q792.943 206.923 792.865 206.828Q792.787 206.733 792.705 206.642Q792.622 206.551 792.535 206.464Q792.449 206.378 792.358 206.295Q792.267 206.213 792.172 206.135Q792.077 206.057 791.978 205.984Q791.88 205.911 791.778 205.843Q791.676 205.774 791.57 205.711Q791.465 205.648 791.357 205.59Q791.249 205.533 791.138 205.48Q791.027 205.428 790.913 205.381Q790.8 205.334 790.684 205.292Q790.569 205.251 790.451 205.215Q790.334 205.18 790.215 205.15Q790.096 205.12 789.975 205.096Q789.855 205.072 789.734 205.054Q789.612 205.036 789.49 205.024Q789.368 205.012 789.245 205.006Q789.123 205 789 205L705 205Q704.877 205 704.755 205.006Q704.632 205.012 704.51 205.024Q704.388 205.036 704.266 205.054Q704.145 205.072 704.024 205.096Q703.904 205.12 703.785 205.15Q703.666 205.18 703.549 205.215Q703.431 205.251 703.315 205.292Q703.2 205.334 703.086 205.381Q702.973 205.428 702.862 205.48Q702.751 205.533 702.643 205.59Q702.535 205.648 702.429 205.711Q702.324 205.774 702.222 205.843Q702.12 205.911 702.021 205.984Q701.923 206.057 701.828 206.135Q701.733 206.213 701.642 206.295Q701.551 206.378 701.464 206.464Q701.378 206.551 701.295 206.642Q701.213 206.733 701.135 206.828Q701.057 206.923 700.984 207.021Q700.911 207.12 700.843 207.222Q700.774 207.324 700.711 207.429Q700.648 207.535 700.59 207.643Q700.532 207.751 700.48 207.862Q700.428 207.973 700.381 208.087Q700.334 208.2 700.292 208.316Q700.251 208.431 700.215 208.549Q700.18 208.666 700.15 208.785Q700.12 208.904 700.096 209.025Q700.072 209.145 700.054 209.266Q700.036 209.388 700.024 209.51Q700.012 209.632 700.006 209.755Q700 209.877 700 210Z" transform="rotate(180 747 210)" id="Rectangle-17" fill="#B2B2B2" stroke="none" />
      <path d="M659 210L659 215Q659 215 659 215L697 215Q697 215 697 215L697 210Q697 209.877 696.994 209.755Q696.988 209.632 696.976 209.51Q696.964 209.388 696.946 209.266Q696.928 209.145 696.904 209.025Q696.88 208.904 696.85 208.785Q696.82 208.666 696.785 208.549Q696.749 208.431 696.708 208.316Q696.666 208.2 696.619 208.087Q696.572 207.973 696.52 207.862Q696.467 207.751 696.41 207.643Q696.352 207.535 696.289 207.429Q696.225 207.324 696.157 207.222Q696.089 207.12 696.016 207.021Q695.943 206.923 695.865 206.828Q695.787 206.733 695.705 206.642Q695.622 206.551 695.535 206.464Q695.449 206.378 695.358 206.295Q695.267 206.213 695.172 206.135Q695.077 206.057 694.978 205.984Q694.88 205.911 694.778 205.843Q694.676 205.774 694.57 205.711Q694.465 205.648 694.357 205.59Q694.249 205.533 694.138 205.48Q694.027 205.428 693.913 205.381Q693.8 205.334 693.684 205.292Q693.569 205.251 693.451 205.215Q693.334 205.18 693.215 205.15Q693.096 205.12 692.975 205.096Q692.855 205.072 692.734 205.054Q692.612 205.036 692.49 205.024Q692.368 205.012 692.245 205.006Q692.123 205 692 205L664 205Q663.877 205 663.755 205.006Q663.632 205.012 663.51 205.024Q663.388 205.036 663.266 205.054Q663.145 205.072 663.024 205.096Q662.904 205.12 662.785 205.15Q662.666 205.18 662.549 205.215Q662.431 205.251 662.315 205.292Q662.2 205.334 662.086 205.381Q661.973 205.428 661.862 205.48Q661.751 205.533 661.643 205.59Q661.535 205.648 661.429 205.711Q661.324 205.774 661.222 205.843Q661.12 205.911 661.021 205.984Q660.923 206.057 660.828 206.135Q660.733 206.213 660.642 206.295Q660.551 206.378 660.464 206.464Q660.378 206.551 660.295 206.642Q660.213 206.733 660.135 206.828Q660.057 206.923 659.984 207.021Q659.911 207.12 659.843 207.222Q659.774 207.324 659.711 207.429Q659.648 207.535 659.59 207.643Q659.533 207.751 659.48 207.862Q659.428 207.973 659.381 208.087Q659.334 208.2 659.292 208.316Q659.251 208.431 659.215 208.549Q659.18 208.666 659.15 208.785Q659.12 208.904 659.096 209.025Q659.072 209.145 659.054 209.266Q659.036 209.388 659.024 209.51Q659.012 209.632 659.006 209.755Q659 209.877 659 210Z" transform="rotate(180 678 210)" id="Rectangle-17" fill="#B2B2B2" stroke="none" />
      <path d="M599 210L599 215Q599 215 599 215L656 215Q656 215 656 215L656 210Q656 209.877 655.994 209.755Q655.988 209.632 655.976 209.51Q655.964 209.388 655.946 209.266Q655.928 209.145 655.904 209.025Q655.88 208.904 655.85 208.785Q655.82 208.666 655.785 208.549Q655.749 208.431 655.708 208.316Q655.666 208.2 655.619 208.087Q655.572 207.973 655.52 207.862Q655.467 207.751 655.41 207.643Q655.352 207.535 655.289 207.429Q655.225 207.324 655.157 207.222Q655.089 207.12 655.016 207.021Q654.943 206.923 654.865 206.828Q654.787 206.733 654.705 206.642Q654.622 206.551 654.536 206.464Q654.449 206.378 654.358 206.295Q654.267 206.213 654.172 206.135Q654.077 206.057 653.978 205.984Q653.88 205.911 653.778 205.843Q653.676 205.774 653.57 205.711Q653.465 205.648 653.357 205.59Q653.249 205.533 653.138 205.48Q653.027 205.428 652.913 205.381Q652.8 205.334 652.684 205.292Q652.569 205.251 652.451 205.215Q652.334 205.18 652.215 205.15Q652.096 205.12 651.975 205.096Q651.855 205.072 651.734 205.054Q651.612 205.036 651.49 205.024Q651.368 205.012 651.245 205.006Q651.123 205 651 205L604 205Q603.877 205 603.755 205.006Q603.632 205.012 603.51 205.024Q603.388 205.036 603.266 205.054Q603.145 205.072 603.024 205.096Q602.904 205.12 602.785 205.15Q602.666 205.18 602.549 205.215Q602.431 205.251 602.315 205.292Q602.2 205.334 602.086 205.381Q601.973 205.428 601.862 205.48Q601.751 205.533 601.643 205.59Q601.535 205.648 601.429 205.711Q601.324 205.774 601.222 205.843Q601.12 205.911 601.021 205.984Q600.923 206.057 600.828 206.135Q600.733 206.213 600.642 206.295Q600.551 206.378 600.464 206.464Q600.378 206.551 600.295 206.642Q600.213 206.733 600.135 206.828Q600.057 206.923 599.984 207.021Q599.911 207.12 599.843 207.222Q599.774 207.324 599.711 207.429Q599.648 207.535 599.59 207.643Q599.532 207.751 599.48 207.862Q599.427 207.973 599.38 208.087Q599.334 208.2 599.292 208.316Q599.251 208.431 599.215 208.549Q599.18 208.666 599.15 208.785Q599.12 208.904 599.096 209.025Q599.072 209.145 599.054 209.266Q599.036 209.388 599.024 209.51Q599.012 209.632 599.006 209.755Q599 209.877 599 210Z" transform="rotate(180 627.5 210)" id="Rectangle-17" fill="#B2B2B2" stroke="none" />
      <path d="M503 210L503 215Q503 215 503 215L596 215Q596 215 596 215L596 210Q596 209.877 595.994 209.755Q595.988 209.632 595.976 209.51Q595.964 209.388 595.946 209.266Q595.928 209.145 595.904 209.025Q595.88 208.904 595.85 208.785Q595.82 208.666 595.785 208.549Q595.749 208.431 595.708 208.316Q595.666 208.2 595.619 208.087Q595.572 207.973 595.52 207.862Q595.467 207.751 595.41 207.643Q595.352 207.535 595.289 207.429Q595.226 207.324 595.157 207.222Q595.089 207.12 595.016 207.021Q594.943 206.923 594.865 206.828Q594.787 206.733 594.705 206.642Q594.622 206.551 594.536 206.464Q594.449 206.378 594.358 206.295Q594.267 206.213 594.172 206.135Q594.077 206.057 593.978 205.984Q593.88 205.911 593.778 205.843Q593.676 205.774 593.57 205.711Q593.465 205.648 593.357 205.59Q593.249 205.533 593.138 205.48Q593.027 205.428 592.913 205.381Q592.8 205.334 592.684 205.292Q592.569 205.251 592.451 205.215Q592.334 205.18 592.215 205.15Q592.096 205.12 591.975 205.096Q591.855 205.072 591.734 205.054Q591.612 205.036 591.49 205.024Q591.368 205.012 591.245 205.006Q591.123 205 591 205L508 205Q507.877 205 507.755 205.006Q507.632 205.012 507.51 205.024Q507.388 205.036 507.266 205.054Q507.145 205.072 507.024 205.096Q506.904 205.12 506.785 205.15Q506.666 205.18 506.549 205.215Q506.431 205.251 506.315 205.292Q506.2 205.334 506.086 205.381Q505.973 205.428 505.862 205.48Q505.751 205.533 505.643 205.59Q505.535 205.648 505.429 205.711Q505.324 205.774 505.222 205.843Q505.12 205.911 505.021 205.984Q504.923 206.057 504.828 206.135Q504.733 206.213 504.642 206.295Q504.551 206.378 504.464 206.464Q504.378 206.551 504.295 206.642Q504.213 206.733 504.135 206.828Q504.057 206.923 503.984 207.021Q503.911 207.12 503.843 207.222Q503.774 207.324 503.711 207.429Q503.648 207.535 503.59 207.643Q503.533 207.751 503.48 207.862Q503.428 207.973 503.381 208.087Q503.334 208.2 503.292 208.316Q503.251 208.431 503.215 208.549Q503.18 208.666 503.15 208.785Q503.12 208.904 503.096 209.025Q503.072 209.145 503.054 209.266Q503.036 209.388 503.024 209.51Q503.012 209.632 503.006 209.755Q503 209.877 503 210Z" transform="rotate(180 549.5 210)" id="Rectangle-17" fill="#B2B2B2" stroke="none" />
      <path d="M412 210L412 215Q412 215 412 215L494 215Q494 215 494 215L494 210Q494 209.877 493.994 209.755Q493.988 209.632 493.976 209.51Q493.964 209.388 493.946 209.266Q493.928 209.145 493.904 209.025Q493.88 208.904 493.85 208.785Q493.82 208.666 493.785 208.549Q493.749 208.431 493.708 208.316Q493.666 208.2 493.619 208.087Q493.572 207.973 493.52 207.862Q493.467 207.751 493.41 207.643Q493.352 207.535 493.289 207.429Q493.225 207.324 493.157 207.222Q493.089 207.12 493.016 207.021Q492.943 206.923 492.865 206.828Q492.787 206.733 492.705 206.642Q492.622 206.551 492.535 206.464Q492.449 206.378 492.358 206.295Q492.267 206.213 492.172 206.135Q492.077 206.057 491.978 205.984Q491.88 205.911 491.778 205.843Q491.676 205.774 491.57 205.711Q491.465 205.648 491.357 205.59Q491.249 205.533 491.138 205.48Q491.027 205.428 490.913 205.381Q490.8 205.334 490.684 205.292Q490.569 205.251 490.451 205.215Q490.334 205.18 490.215 205.15Q490.096 205.12 489.975 205.096Q489.855 205.072 489.734 205.054Q489.612 205.036 489.49 205.024Q489.368 205.012 489.245 205.006Q489.123 205 489 205L417 205Q416.877 205 416.755 205.006Q416.632 205.012 416.51 205.024Q416.388 205.036 416.266 205.054Q416.145 205.072 416.025 205.096Q415.904 205.12 415.785 205.15Q415.666 205.18 415.549 205.215Q415.431 205.251 415.315 205.292Q415.2 205.334 415.087 205.381Q414.973 205.428 414.862 205.48Q414.751 205.533 414.643 205.59Q414.535 205.648 414.429 205.711Q414.324 205.774 414.222 205.843Q414.12 205.911 414.021 205.984Q413.923 206.057 413.828 206.135Q413.733 206.213 413.642 206.295Q413.551 206.378 413.464 206.464Q413.378 206.551 413.295 206.642Q413.213 206.733 413.135 206.828Q413.057 206.923 412.984 207.021Q412.911 207.12 412.843 207.222Q412.774 207.324 412.711 207.429Q412.648 207.535 412.59 207.643Q412.533 207.751 412.48 207.862Q412.428 207.973 412.381 208.087Q412.334 208.2 412.292 208.316Q412.251 208.431 412.215 208.549Q412.18 208.666 412.15 208.785Q412.12 208.904 412.096 209.025Q412.072 209.145 412.054 209.266Q412.036 209.388 412.024 209.51Q412.012 209.632 412.006 209.755Q412 209.877 412 210Z" transform="rotate(180 453 210)" id="Rectangle-17" fill="#B2B2B2" stroke="none" />
    </g>
    <g id="Inputs" transform="translate(648 125)">
      <g id="XLRi-1" class="connector input" transform="translate(322 0)">
        <g class="number-container-i" >
          <rect class="number-background-i" x="2" y="0" width="41" height="11" rx="3" ry="3" />
          <text x="22" y="9" class="number-i">IN 1</text>
        </g>
        <circle id="pwr" cx="3" cy="59" r="2.5" fill="#742121"/>
        <g id="connector" transform="translate(3 22) scale(0.5)">
          <use xlink:href="xlr.svg#xlr-f" x="0" y="0" />
        </g>
      </g>
      <g id="XLRi-2" class="connector input" transform="translate(276 0)">
        <g class="number-container-i" >
          <rect class="number-background-i" x="2" y="0" width="41" height="11" rx="3" ry="3" />
          <text x="22" y="9" class="number-i">IN 2</text>
        </g>
        <circle id="pwr" cx="3" cy="59" r="2.5" fill="#742121"/>
        <g id="connector" transform="translate(3 22) scale(0.5)">
          <use xlink:href="xlr.svg#xlr-f" x="0" y="0" />
        </g>
      </g>
      <g id="XLRi-3" class="connector input" transform="translate(230 0)">
        <g class="number-container-i" >
          <rect class="number-background-i" x="2" y="0" width="41" height="11" rx="3" ry="3" />
          <text x="22" y="9" class="number-i">IN 3</text>
        </g>
        <circle id="pwr" cx="3" cy="59" r="2.5" fill="#742121"/>
        <g id="connector" transform="translate(3 22) scale(0.5)">
          <use xlink:href="xlr.svg#xlr-f" x="0" y="0" />
        </g>
      </g>
      <g id="XLRi-4" class="connector input" transform="translate(184 0)">
        <g class="number-container-i" >
          <rect class="number-background-i" x="2" y="0" width="41" height="11" rx="3" ry="3" />
          <text x="22" y="9" class="number-i">IN 4</text>
        </g>
        <circle id="pwr" cx="3" cy="59" r="2.5" fill="#742121"/>
        <g id="connector" transform="translate(3 22) scale(0.5)">
          <use xlink:href="xlr.svg#xlr-f" x="0" y="0" />
        </g>
      </g>
      <g id="XLRi-5" class="connector input" transform="translate(138 0)">
        <g class="number-container-i" >
          <rect class="number-background-i" x="2" y="0" width="41" height="11" rx="3" ry="3" />
          <text x="22" y="9" class="number-i">IN 5</text>
        </g>
        <circle id="pwr" cx="3" cy="59" r="2.5" fill="#742121"/>
        <g id="connector" transform="translate(3 22) scale(0.5)">
          <use xlink:href="xlr.svg#xlr-f" x="0" y="0" />
        </g>
      </g>
      <g id="XLRi-6" class="connector input" transform="translate(92 0)">
        <g class="number-container-i" >
          <rect class="number-background-i" x="2" y="0" width="41" height="11" rx="3" ry="3" />
          <text x="22" y="9" class="number-i">IN 6</text>
        </g>
        <circle id="pwr" cx="3" cy="59" r="2.5" fill="#742121"/>
        <g id="connector" transform="translate(3 22) scale(0.5)">
          <use xlink:href="xlr.svg#xlr-f" x="0" y="0" />
        </g>
      </g>
      <g id="XLRi-7" class="connector input" transform="translate(46 0)">
        <g class="number-container-i" >
          <rect class="number-background-i" x="2" y="0" width="41" height="11" rx="3" ry="3" />
          <text x="22" y="9" class="number-i">IN 7</text>
        </g>
        <circle id="pwr" cx="3" cy="59" r="2.5" fill="#742121"/>
        <g id="connector" transform="translate(3 22) scale(0.5)">
          <use xlink:href="xlr.svg#xlr-f" x="0" y="0" />
        </g>
      </g>
      <g id="XLRi-8" class="connector input" transform="translate(0 0)">
        <g class="number-container-i" >
          <rect class="number-background-i" x="2" y="0" width="41" height="11" rx="3" ry="3" />
          <text x="22" y="9" class="number-i">IN 8</text>
        </g>
        <circle id="pwr" cx="3" cy="59" r="2.5" fill="#742121"/>
        <g id="connector" transform="translate(3 22) scale(0.5)">
          <use xlink:href="xlr.svg#xlr-f" x="0" y="0" />
        </g>
      </g>
      <g id="XLRi-9" class="connector input" transform="translate(322 70)">
        <g class="number-container-i" transform="translate(0 66)" >
          <rect class="number-background-i" x="2" y="0" width="41" height="11" rx="3" ry="3" />
          <text x="22" y="9" class="number-i">IN 9</text>
        </g>
        <circle id="pwr" cx="3" cy="59" r="2.5" fill="#742121"/>
        <g id="connector" transform="translate(3 22) scale(0.5)">
          <use xlink:href="xlr.svg#xlr-f" x="0" y="0" />
        </g>
      </g>
      <g id="XLRi-10" class="connector input" transform="translate(276 70)">
        <g class="number-container-i" transform="translate(0 66)" >
          <rect class="number-background-i" x="2" y="0" width="41" height="11" rx="3" ry="3" />
          <text x="22" y="9" class="number-i">IN 10</text>
        </g>
        <circle id="pwr" cx="3" cy="59" r="2.5" fill="#742121"/>
        <g id="connector" transform="translate(3 22) scale(0.5)">
          <use xlink:href="xlr.svg#xlr-f" x="0" y="0" />
        </g>
      </g>
      <g id="XLRi-11" class="connector input" transform="translate(230 70)">
        <g class="number-container-i" transform="translate(0 66)" >
          <rect class="number-background-i" x="2" y="0" width="41" height="11" rx="3" ry="3" />
          <text x="22" y="9" class="number-i">IN 11</text>
        </g>
        <circle id="pwr" cx="3" cy="59" r="2.5" fill="#742121"/>
        <g id="connector" transform="translate(3 22) scale(0.5)">
          <use xlink:href="xlr.svg#xlr-f" x="0" y="0" />
        </g>
      </g>
      <g id="XLRi-12" class="connector input" transform="translate(184 70)">
        <g class="number-container-i" transform="translate(0 66)" >
          <rect class="number-background-i" x="2" y="0" width="41" height="11" rx="3" ry="3" />
          <text x="22" y="9" class="number-i">IN 12</text>
        </g>
        <circle id="pwr" cx="3" cy="59" r="2.5" fill="#742121"/>
        <g id="connector" transform="translate(3 22) scale(0.5)">
          <use xlink:href="xlr.svg#xlr-f" x="0" y="0" />
        </g>
      </g>
      <g id="XLRi-13" class="connector input" transform="translate(138 70)">
        <g class="number-container-i" transform="translate(0 66)" >
          <rect class="number-background-i" x="2" y="0" width="41" height="11" rx="3" ry="3" />
          <text x="22" y="9" class="number-i">IN 13</text>
        </g>
        <circle id="pwr" cx="3" cy="59" r="2.5" fill="#742121"/>
        <g id="connector" transform="translate(3 22) scale(0.5)">
          <use xlink:href="xlr.svg#xlr-f" x="0" y="0" />
        </g>
      </g>
      <g id="XLRi-14" class="connector input" transform="translate(92 70)">
        <g class="number-container-i" transform="translate(0 66)" >
          <rect class="number-background-i" x="2" y="0" width="41" height="11" rx="3" ry="3" />
          <text x="22" y="9" class="number-i">IN 14</text>
        </g>
        <circle id="pwr" cx="3" cy="59" r="2.5" fill="#742121"/>
        <g id="connector" transform="translate(3 22) scale(0.5)">
          <use xlink:href="xlr.svg#xlr-f" x="0" y="0" />
        </g>
      </g>
      <g id="XLRi-15" class="connector input" transform="translate(46 70)">
        <g class="number-container-i" transform="translate(0 66)" >
          <rect class="number-background-i" x="2" y="0" width="41" height="11" rx="3" ry="3" />
          <text x="22" y="9" class="number-i">IN 15</text>
        </g>
        <circle id="pwr" cx="3" cy="59" r="2.5" fill="#742121"/>
        <g id="connector" transform="translate(3 22) scale(0.5)">
          <use xlink:href="xlr.svg#xlr-f" x="0" y="0" />
        </g>
      </g>
      <g id="XLRi-16" class="connector input" transform="translate(0 70)">
        <g class="number-container-i" transform="translate(0 66)" >
          <rect class="number-background-i" x="2" y="0" width="41" height="11" rx="3" ry="3" />
          <text x="22" y="9" class="number-i">IN 16</text>
        </g>
        <circle id="pwr" cx="3" cy="59" r="2.5" fill="#742121"/>
        <g id="connector" transform="translate(3 22) scale(0.5)">
          <use xlink:href="xlr.svg#xlr-f" x="0" y="0" />
        </g>
      </g>
    </g>
    <g id="Outputs" transform="translate(248 216)">
      <g id="XLRo-1" class="connector output" transform="translate(322 0)">
        <g class="number-container-o" >
          <rect class="number-background-o" x="0" y="46" width="41" height="11" rx="3" ry="3" />
          <text x="20" y="55" class="number-o">OUT 1</text>
        </g>
        <g id="connector" transform="translate(0 0) scale(0.5)">
          <use xlink:href="xlr.svg#xlr-m-180" x="0" y="0" />
        </g>
      </g>
      <g id="XLRo-2" class="connector output" transform="translate(276 0)">
        <g class="number-container-o" >
          <rect class="number-background-o" x="0" y="46" width="41" height="11" rx="3" ry="3" />
          <text x="20" y="55" class="number-o">OUT 2</text>
        </g>
        <g id="connector" transform="translate(0 0) scale(0.5)">
          <use xlink:href="xlr.svg#xlr-m-180" x="0" y="0" />
        </g>
      </g>
      <g id="XLRo-3" class="connector output" transform="translate(230 0)">
        <g class="number-container-o" >
          <rect class="number-background-o" x="0" y="46" width="41" height="11" rx="3" ry="3" />
          <text x="20" y="55" class="number-o">OUT 3</text>
        </g>
        <g id="connector" transform="translate(0 0) scale(0.5)">
          <use xlink:href="xlr.svg#xlr-m-180" x="0" y="0" />
        </g>
      </g>
      <g id="XLRo-4" class="connector output" transform="translate(184 0)">
        <g class="number-container-o" >
          <rect class="number-background-o" x="0" y="46" width="41" height="11" rx="3" ry="3" />
          <text x="20" y="55" class="number-o">OUT 4</text>
        </g>
        <g id="connector" transform="translate(0 0) scale(0.5)">
          <use xlink:href="xlr.svg#xlr-m-180" x="0" y="0" />
        </g>
      </g>
      <g id="XLRo-5" class="connector output" transform="translate(138 0)">
        <g class="number-container-o" >
          <rect class="number-background-o" x="0" y="46" width="41" height="11" rx="3" ry="3" />
          <text x="20" y="55" class="number-o">OUT 5</text>
        </g>
        <g id="connector" transform="translate(0 0) scale(0.5)">
          <use xlink:href="xlr.svg#xlr-m-180" x="0" y="0" />
        </g>
      </g>
      <g id="XLRo-6" class="connector output" transform="translate(92 0)">
        <g class="number-container-o" >
          <rect class="number-background-o" x="0" y="46" width="41" height="11" rx="3" ry="3" />
          <text x="20" y="55" class="number-o">OUT 6</text>
        </g>
        <g id="connector" transform="translate(0 0) scale(0.5)">
          <use xlink:href="xlr.svg#xlr-m-180" x="0" y="0" />
        </g>
      </g>
      <g id="XLRo-7" class="connector output" transform="translate(46 0)">
        <g class="number-container-o" >
          <rect class="number-background-o" x="0" y="46" width="41" height="11" rx="3" ry="3" />
          <text x="20" y="55" class="number-o">OUT 7</text>
        </g>
        <g id="connector" transform="translate(0 0) scale(0.5)">
          <use xlink:href="xlr.svg#xlr-m-180" x="0" y="0" />
        </g>
      </g>
      <g id="XLRo-8" class="connector output" transform="translate(0 0)">
        <g class="number-container-o" >
          <rect class="number-background-o" x="0" y="46" width="41" height="11" rx="3" ry="3" />
          <text x="20" y="55" class="number-o">OUT 8</text>
        </g>
        <g id="connector" transform="translate(0 0) scale(0.5)">
          <use xlink:href="xlr.svg#xlr-m-180" x="0" y="0" />
        </g>
      </g>
    </g>
    <g id="Power" transform="translate(126 289)">
      <path d="M0 0L0 20L11 29L32 29L43 20L43 0L0 0Z" id="Vector" fill="#000000" fill-rule="evenodd" stroke="none" />
      <path d="M9 7L9 13" id="Line" fill="none" fill-rule="evenodd" stroke="#B2B2B2" stroke-width="1" stroke-linecap="round" />
      <path d="M34 7L34 13" id="Line" fill="none" fill-rule="evenodd" stroke="#B2B2B2" stroke-width="1" stroke-linecap="round" />
      <path d="M21 14L21 20" id="Line" fill="none" fill-rule="evenodd" stroke="#B2B2B2" stroke-width="1" stroke-linecap="round" />
    </g>
  </g>
</svg>